SplineFontDB: 3.2
FontName: YbluiFont
FullName: YbluiFont
FamilyName: YbluiFont
Weight: Book
Copyright: Copyright (c) 2022, yblui.
Version: 1.0.0
ItalicAngle: 0
UnderlinePosition: -101
UnderlineWidth: 51
Ascent: 819
Descent: 205
InvalidEm: 0
sfntRevision: 0x00010000
LayerCount: 2
Layer: 0 1 "Back" 1
Layer: 1 1 "Fore" 0
XUID: [1021 203 -1298503665 26192]
StyleMap: 0x0000
FSType: 0
OS2Version: 4
OS2_WeightWidthSlopeOnly: 0
OS2_UseTypoMetrics: 1
CreationTime: 1642845196
ModificationTime: 1643196621
PfmFamily: 17
TTFWeight: 400
TTFWidth: 5
LineGap: 92
VLineGap: 0
Panose: 2 0 5 3 0 0 0 0 0 0
OS2TypoAscent: 819
OS2TypoAOffset: 0
OS2TypoDescent: -205
OS2TypoDOffset: 0
OS2TypoLinegap: 92
OS2WinAscent: 820
OS2WinAOffset: 0
OS2WinDescent: 217
OS2WinDOffset: 0
HheadAscent: 820
HheadAOffset: 0
HheadDescent: -217
HheadDOffset: 0
OS2SubXSize: 665
OS2SubYSize: 716
OS2SubXOff: 0
OS2SubYOff: 143
OS2SupXSize: 665
OS2SupYSize: 716
OS2SupXOff: 0
OS2SupYOff: 491
OS2StrikeYSize: 51
OS2StrikeYPos: 265
OS2CapHeight: 614
OS2XHeight: 412
OS2Vendor: 'PfEd'
OS2CodePages: 00000001.00000000
OS2UnicodeRanges: 00000001.40000000.00000000.00000000
Lookup: 4 0 0 "Ligature Substitution lookup 0" { "Ligature Substitution lookup 0 subtable"  } []
Lookup: 258 0 0 "'kern' Horizontal Kerning in Latin lookup 0" { "'kern' Horizontal Kerning in Latin lookup 0 subtable"  } ['kern' ('DFLT' <'dflt' > 'latn' <'dflt' > ) ]
MarkAttachClasses: 1
DEI: 91125
ShortTable: cvt  2
  34
  648
EndShort
ShortTable: maxp 16
  1
  0
  101
  73
  5
  0
  0
  2
  0
  1
  1
  0
  64
  46
  0
  0
EndShort
LangName: 1033 "" "" "Regular" "FontForge 2.0 : YbluiFont : 23-1-2022"
GaspTable: 1 65535 2 0
Encoding: UnicodeBmp
UnicodeInterp: none
NameList: AGL For New Fonts
DisplaySize: -48
AntiAlias: 1
FitToEm: 0
WinInfo: 76 38 13
BeginChars: 65539 1184

StartChar: .notdef
Encoding: 65536 -1 0
Width: 374
Flags: W
LayerCount: 2
Fore
SplineSet
34 0 m 1,0,-1
 34 682 l 1,1,-1
 306 682 l 1,2,-1
 306 0 l 1,3,-1
 34 0 l 1,0,-1
68 34 m 1,4,-1
 272 34 l 1,5,-1
 272 648 l 1,6,-1
 68 648 l 1,7,-1
 68 34 l 1,4,-1
EndSplineSet
Validated: 1
EndChar

StartChar: exclam
Encoding: 33 33 4
Width: 133
GlyphClass: 2
Flags: W
LayerCount: 2
Fore
SplineSet
31 614 m 1,0,-1
 102 614 l 1,1,-1
 102 156 l 1,2,-1
 31 156 l 1,3,-1
 31 614 l 1,0,-1
31 102 m 1,4,-1
 102 102 l 1,5,-1
 102 31 l 1,6,-1
 31 31 l 1,7,-1
 31 102 l 1,4,-1
EndSplineSet
Validated: 1
EndChar

StartChar: quotedbl
Encoding: 34 34 5
Width: 409
GlyphClass: 2
Flags: W
LayerCount: 2
Fore
SplineSet
231 741 m 1,0,-1
 303 743 l 1,1,-1
 293 549 l 1,2,-1
 242 549 l 1,3,-1
 231 741 l 1,0,-1
90 741 m 1,4,-1
 162 743 l 1,5,-1
 152 549 l 1,6,-1
 100 549 l 1,7,-1
 90 741 l 1,4,-1
EndSplineSet
Validated: 1
EndChar

StartChar: numbersign
Encoding: 35 35 6
Width: 409
GlyphClass: 2
Flags: W
LayerCount: 2
Fore
SplineSet
295 606 m 1,0,-1
 365 589 l 1,1,-1
 251 -4 l 1,2,-1
 182 18 l 1,3,-1
 295 606 l 1,0,-1
172 606 m 1,4,-1
 242 589 l 1,5,-1
 128 -4 l 1,6,-1
 59 18 l 1,7,-1
 172 606 l 1,4,-1
31 212 m 1,8,-1
 370 212 l 1,9,-1
 370 138 l 1,10,-1
 31 138 l 1,11,-1
 31 212 l 1,8,-1
37 433 m 1,12,-1
 379 434 l 1,13,-1
 377 358 l 1,14,-1
 37 361 l 1,15,-1
 37 433 l 1,12,-1
EndSplineSet
Validated: 5
EndChar

StartChar: dollar
Encoding: 36 36 7
Width: 512
GlyphClass: 2
Flags: W
LayerCount: 2
Fore
SplineSet
214 693 m 1,0,-1
 214 -66 l 1,1,-1
 286 -66 l 1,2,-1
 286 693 l 1,3,-1
 214 693 l 1,0,-1
392 494 m 1,4,-1
 431 554 l 1,5,6
 337 617 337 617 228 617 c 0,7,8
 140 617 140 617 84 579.5 c 128,-1,9
 28 542 28 542 28 465 c 0,10,11
 28 448 28 448 34 432.5 c 128,-1,12
 40 417 40 417 48 405.5 c 128,-1,13
 56 394 56 394 72.5 381.5 c 128,-1,14
 89 369 89 369 100.5 361.5 c 128,-1,15
 112 354 112 354 134.5 343.5 c 128,-1,16
 157 333 157 333 168.5 328.5 c 128,-1,17
 180 324 180 324 205.5 314.5 c 128,-1,18
 231 305 231 305 239 302 c 128,-1,19
 247 299 247 299 275 288.5 c 128,-1,20
 303 278 303 278 316 273 c 128,-1,21
 329 268 329 268 351 256.5 c 128,-1,22
 373 245 373 245 384 235 c 128,-1,23
 395 225 395 225 403.5 209.5 c 128,-1,24
 412 194 412 194 412 177 c 0,25,26
 411 123 411 123 362.5 96 c 128,-1,27
 314 69 314 69 228 69 c 0,28,29
 149 69 149 69 60 193 c 1,30,-1
 15 129 l 1,31,32
 43 99 43 99 59.5 82.5 c 128,-1,33
 76 66 76 66 105 42.5 c 128,-1,34
 134 19 134 19 164.5 8 c 128,-1,35
 195 -3 195 -3 228 -3 c 0,36,37
 343 -3 343 -3 412.5 43 c 128,-1,38
 482 89 482 89 483 176 c 0,39,40
 484 212 484 212 468.5 242.5 c 128,-1,41
 453 273 453 273 434.5 290.5 c 128,-1,42
 416 308 416 308 381 325 c 128,-1,43
 346 342 346 342 328 348.5 c 128,-1,44
 310 355 310 355 273 366 c 0,45,46
 269 367 269 367 251.5 372.5 c 128,-1,47
 234 378 234 378 221.5 382 c 128,-1,48
 209 386 209 386 190 393 c 128,-1,49
 171 400 171 400 157.5 407 c 128,-1,50
 144 414 144 414 131 423 c 128,-1,51
 118 432 118 432 111 442.5 c 128,-1,52
 104 453 104 453 104 465 c 0,53,54
 104 496 104 496 146 521 c 128,-1,55
 188 546 188 546 226 546 c 0,56,57
 267 546 267 546 300 537 c 128,-1,58
 333 528 333 528 347.5 520.5 c 128,-1,59
 362 513 362 513 392 494 c 1,4,-1
EndSplineSet
Validated: 37
EndChar

StartChar: percent
Encoding: 37 37 8
Width: 512
GlyphClass: 2
Flags: W
LayerCount: 2
Fore
SplineSet
317 104 m 0,0,1
 317 63 317 63 369 63 c 0,2,3
 393 63 393 63 406.5 74.5 c 128,-1,4
 420 86 420 86 420 104 c 128,-1,5
 420 122 420 122 406.5 136 c 128,-1,6
 393 150 393 150 370 150 c 0,7,8
 317 150 317 150 317 104 c 0,0,1
246 106 m 128,-1,10
 246 153 246 153 282 187 c 128,-1,11
 318 221 318 221 369 221 c 128,-1,12
 420 221 420 221 456 187 c 128,-1,13
 492 153 492 153 492 106 c 128,-1,14
 492 59 492 59 456 25.5 c 128,-1,15
 420 -8 420 -8 369 -8 c 128,-1,16
 318 -8 318 -8 282 25.5 c 128,-1,9
 246 59 246 59 246 106 c 128,-1,10
103 493 m 0,17,18
 103 452 103 452 155 452 c 0,19,20
 179 452 179 452 192.5 464 c 128,-1,21
 206 476 206 476 206 493 c 0,22,23
 206 511 206 511 192.5 524.5 c 128,-1,24
 179 538 179 538 156 538 c 0,25,26
 103 538 103 538 103 493 c 0,17,18
32 495 m 128,-1,28
 32 542 32 542 68 575.5 c 128,-1,29
 104 609 104 609 155 609 c 128,-1,30
 206 609 206 609 242 575.5 c 128,-1,31
 278 542 278 542 278 495 c 128,-1,32
 278 448 278 448 242 414 c 128,-1,33
 206 380 206 380 155 380 c 128,-1,34
 104 380 104 380 68 414 c 128,-1,27
 32 448 32 448 32 495 c 128,-1,28
71 148 m 1,35,-1
 394 490 l 1,36,-1
 445 443 l 1,37,-1
 124 98 l 1,38,-1
 71 148 l 1,35,-1
EndSplineSet
Validated: 1
EndChar

StartChar: ampersand
Encoding: 38 38 9
Width: 512
GlyphClass: 2
Flags: W
LayerCount: 2
Fore
SplineSet
190 395 m 1,0,1
 188 398 188 398 180.5 412 c 128,-1,2
 173 426 173 426 170 432 c 128,-1,3
 167 438 167 438 162.5 449 c 128,-1,4
 158 460 158 460 156 469.5 c 128,-1,5
 154 479 154 479 154 489 c 0,6,7
 154 514 154 514 176.5 530.5 c 128,-1,8
 199 547 199 547 241 547 c 0,9,10
 272 547 272 547 282.5 538 c 128,-1,11
 293 529 293 529 293 499 c 0,12,13
 293 490 293 490 288.5 481.5 c 128,-1,14
 284 473 284 473 273 463 c 128,-1,15
 262 453 262 453 251.5 444.5 c 128,-1,16
 241 436 241 436 222 421 c 128,-1,17
 203 406 203 406 190 395 c 1,0,1
178 299 m 1,18,-1
 276 155 l 2,19,20
 275 154 275 154 260.5 135.5 c 128,-1,21
 246 117 246 117 239 109 c 128,-1,22
 232 101 232 101 218 87.5 c 128,-1,23
 204 74 204 74 193 68 c 128,-1,24
 182 62 182 62 172 62 c 0,25,26
 147 62 147 62 124.5 98.5 c 128,-1,27
 102 135 102 135 102 178 c 0,28,29
 102 194 102 194 105.5 207 c 128,-1,30
 109 220 109 220 118 233 c 128,-1,31
 127 246 127 246 133.5 253.5 c 128,-1,32
 140 261 140 261 156 276.5 c 128,-1,33
 172 292 172 292 178 299 c 1,18,-1
428 -15 m 1,34,-1
 481 33 l 1,35,-1
 364 161 l 1,36,-1
 467 271 l 1,37,-1
 409 312 l 1,38,-1
 327 210 l 1,39,-1
 229 346 l 1,40,41
 282 384 282 384 323.5 428.5 c 128,-1,42
 365 473 365 473 365 502 c 0,43,44
 365 563 365 563 336.5 590 c 128,-1,45
 308 617 308 617 246 617 c 0,46,47
 172 617 172 617 127 578.5 c 128,-1,48
 82 540 82 540 82 485 c 0,49,50
 82 466 82 466 87.5 446.5 c 128,-1,51
 93 427 93 427 98.5 416 c 128,-1,52
 104 405 104 405 117 383 c 128,-1,53
 130 361 130 361 135 351 c 1,54,55
 131 347 131 347 115 331.5 c 128,-1,56
 99 316 99 316 95 311.5 c 128,-1,57
 91 307 91 307 78.5 293 c 128,-1,58
 66 279 66 279 62 272.5 c 128,-1,59
 58 266 58 266 50 253 c 128,-1,60
 42 240 42 240 39 230 c 128,-1,61
 36 220 36 220 33.5 206.5 c 128,-1,62
 31 193 31 193 31 179 c 0,63,64
 31 98 31 98 72 44.5 c 128,-1,65
 113 -9 113 -9 171 -9 c 0,66,67
 239 -9 239 -9 329 98 c 1,68,-1
 428 -15 l 1,34,-1
EndSplineSet
Validated: 9
EndChar

StartChar: quotesingle
Encoding: 39 39 10
Width: 133
GlyphClass: 2
Flags: W
LayerCount: 2
Fore
SplineSet
31 741 m 1,0,-1
 102 743 l 1,1,-1
 92 549 l 1,2,-1
 41 549 l 1,3,-1
 31 741 l 1,0,-1
EndSplineSet
Validated: 1
EndChar

StartChar: parenleft
Encoding: 40 40 11
Width: 409
GlyphClass: 2
Flags: W
LayerCount: 2
Fore
SplineSet
334 614 m 1,0,-1
 379 556 l 1,1,2
 102 485 102 485 102 304 c 0,3,4
 102 248 102 248 147 191.5 c 128,-1,5
 192 135 192 135 251.5 97 c 128,-1,6
 311 59 311 59 377 35 c 1,7,-1
 331 -23 l 1,8,9
 289 -14 289 -14 236 18 c 128,-1,10
 183 50 183 50 135.5 94 c 128,-1,11
 88 138 88 138 55.5 195 c 128,-1,12
 23 252 23 252 23 305 c 0,13,14
 23 409 23 409 119 502 c 128,-1,15
 215 595 215 595 334 614 c 1,0,-1
EndSplineSet
Validated: 1
EndChar

StartChar: parenright
Encoding: 41 41 12
Width: 409
GlyphClass: 2
Flags: W
LayerCount: 2
Fore
SplineSet
68 614 m 1,0,-1
 23 556 l 1,1,2
 299 485 299 485 299 304 c 0,3,4
 299 261 299 261 273.5 218 c 128,-1,5
 248 175 248 175 207 140.5 c 128,-1,6
 166 106 166 106 119.5 79.5 c 128,-1,7
 73 53 73 53 25 35 c 1,8,-1
 71 -23 l 1,9,10
 113 -14 113 -14 166 18 c 128,-1,11
 219 50 219 50 266.5 94 c 128,-1,12
 314 138 314 138 346.5 195 c 128,-1,13
 379 252 379 252 379 305 c 0,14,15
 379 409 379 409 283 502 c 128,-1,16
 187 595 187 595 68 614 c 1,0,-1
EndSplineSet
Validated: 9
EndChar

StartChar: asterisk
Encoding: 42 42 13
Width: 409
GlyphClass: 2
Flags: W
LayerCount: 2
Fore
SplineSet
239 500 m 1,0,-1
 177 584 l 1,1,-1
 220 615 l 1,2,-1
 282 531 l 1,3,-1
 239 500 l 1,0,-1
176 588 m 1,4,-1
 118 501 l 1,5,-1
 74 530 l 1,6,-1
 131 618 l 1,7,-1
 176 588 l 1,4,-1
154 667 m 1,8,-1
 154 771 l 1,9,-1
 207 771 l 1,10,-1
 207 667 l 1,11,-1
 154 667 l 1,8,-1
207 667 m 1,12,-1
 308 693 l 1,13,-1
 321 642 l 1,14,-1
 220 615 l 1,15,-1
 207 667 l 1,12,-1
58 710 m 1,16,-1
 153 666 l 1,17,-1
 131 618 l 1,18,-1
 36 661 l 1,19,-1
 58 710 l 1,16,-1
EndSplineSet
Validated: 5
EndChar

StartChar: plus
Encoding: 43 43 14
Width: 409
GlyphClass: 2
Flags: W
LayerCount: 2
Fore
SplineSet
243 30 m 1,0,-1
 171 30 l 1,1,-1
 171 361 l 1,2,-1
 243 361 l 1,3,-1
 243 30 l 1,0,-1
37 241 m 1,4,-1
 369 241 l 1,5,-1
 369 169 l 1,6,-1
 37 169 l 1,7,-1
 37 241 l 1,4,-1
EndSplineSet
Validated: 5
EndChar

StartChar: comma
Encoding: 44 44 15
Width: 133
GlyphClass: 2
Flags: W
LayerCount: 2
Fore
SplineSet
102 31 m 1,0,1
 102 0 102 0 89 -20 c 0,2,3
 78 -37 78 -37 49 -52 c 1,4,-1
 38 -34 l 1,5,6
 64 -19 64 -19 70 -8 c 0,7,8
 77 4 77 4 77 31 c 1,9,-1
 102 31 l 1,0,1
31 102 m 1,10,-1
 102 102 l 1,11,-1
 102 31 l 1,12,-1
 77 31 l 1,13,-1
 31 31 l 1,14,-1
 31 102 l 1,10,-1
EndSplineSet
Validated: 5
EndChar

StartChar: hyphen
Encoding: 45 45 16
Width: 409
GlyphClass: 2
Flags: W
LayerCount: 2
Fore
SplineSet
37 241 m 1,0,-1
 369 241 l 1,1,-1
 369 169 l 1,2,-1
 37 169 l 1,3,-1
 37 241 l 1,0,-1
EndSplineSet
Validated: 1
EndChar

StartChar: period
Encoding: 46 46 17
Width: 133
GlyphClass: 2
Flags: W
LayerCount: 2
Fore
SplineSet
31 102 m 5,0,-1
 102 102 l 5,1,-1
 102 31 l 5,2,-1
 31 31 l 5,3,-1
 31 102 l 5,0,-1
EndSplineSet
Validated: 1
EndChar

StartChar: slash
Encoding: 47 47 18
Width: 409
GlyphClass: 2
Flags: W
LayerCount: 2
Fore
SplineSet
304 605 m 1,0,-1
 378 575 l 1,1,-1
 116 -7 l 1,2,-1
 42 23 l 1,3,-1
 304 605 l 1,0,-1
EndSplineSet
Validated: 1
EndChar

StartChar: zero
Encoding: 48 48 19
Width: 409
GlyphClass: 2
Flags: W
LayerCount: 2
Fore
SplineSet
28 206 m 128,-1,1
 28 295 28 295 78.5 357.5 c 128,-1,2
 129 420 129 420 205 420 c 128,-1,3
 281 420 281 420 331.5 357.5 c 128,-1,4
 382 295 382 295 382 206 c 128,-1,5
 382 117 382 117 331.5 54.5 c 128,-1,6
 281 -8 281 -8 205 -8 c 128,-1,7
 129 -8 129 -8 78.5 54.5 c 128,-1,0
 28 117 28 117 28 206 c 128,-1,1
100 207 m 128,-1,9
 100 143 100 143 127.5 104 c 128,-1,10
 155 65 155 65 205 65 c 128,-1,11
 255 65 255 65 282 104 c 128,-1,12
 309 143 309 143 309 207 c 128,-1,13
 309 271 309 271 282 309.5 c 128,-1,14
 255 348 255 348 205 348 c 128,-1,15
 155 348 155 348 127.5 309.5 c 128,-1,8
 100 271 100 271 100 207 c 128,-1,9
EndSplineSet
Validated: 1
EndChar

StartChar: one
Encoding: 49 49 20
Width: 133
GlyphClass: 2
Flags: W
LayerCount: 2
Fore
SplineSet
31 414 m 1,0,-1
 102 414 l 1,1,-1
 102 0 l 1,2,-1
 31 0 l 1,3,-1
 31 414 l 1,0,-1
EndSplineSet
Validated: 1
EndChar

StartChar: two
Encoding: 50 50 21
Width: 409
GlyphClass: 2
Flags: W
LayerCount: 2
Fore
SplineSet
31 324 m 1,0,-1
 79 270 l 1,1,2
 110 300 110 300 121.5 309.5 c 128,-1,3
 133 319 133 319 155 328.5 c 128,-1,4
 177 338 177 338 205 338 c 0,5,6
 242 338 242 338 273 314 c 128,-1,7
 304 290 304 290 304 272 c 0,8,9
 304 237 304 237 186 184 c 0,10,11
 175 179 175 179 175 179 c 1,12,-1
 31 103 l 1,13,-1
 31 0 l 1,14,-1
 379 0 l 1,15,-1
 379 72 l 1,16,-1
 106 72 l 1,17,-1
 221 123 l 2,18,19
 227 125 227 125 238 129.5 c 128,-1,20
 249 134 249 134 276 149 c 128,-1,21
 303 164 303 164 324 180.5 c 128,-1,22
 345 197 345 197 362 221.5 c 128,-1,23
 379 246 379 246 379 271 c 0,24,25
 379 327 379 327 329.5 368.5 c 128,-1,26
 280 410 280 410 207 410 c 0,27,28
 121 410 121 410 31 324 c 1,0,-1
EndSplineSet
Validated: 9
EndChar

StartChar: three
Encoding: 51 51 22
Width: 409
GlyphClass: 2
Flags: W
LayerCount: 2
Fore
SplineSet
317 340 m 1,0,-1
 53 132 l 1,1,-1
 88 77 l 1,2,3
 144 87 144 87 201 87 c 0,4,5
 250 87 250 87 280 61.5 c 128,-1,6
 310 36 310 36 310 0 c 0,7,8
 310 -70 310 -70 280.5 -101.5 c 128,-1,9
 251 -133 251 -133 190 -133 c 0,10,11
 148 -133 148 -133 123 -120 c 128,-1,12
 98 -107 98 -107 70 -78 c 1,13,-1
 25 -135 l 1,14,15
 74 -175 74 -175 108.5 -192 c 128,-1,16
 143 -209 143 -209 193 -209 c 0,17,18
 278 -209 278 -209 330 -152 c 128,-1,19
 382 -95 382 -95 382 0 c 0,20,21
 382 67 382 67 329.5 111.5 c 128,-1,22
 277 156 277 156 205 156 c 0,23,24
 192 156 192 156 186 155 c 128,-1,25
 180 154 180 154 173 149.5 c 128,-1,26
 166 145 166 145 159 134 c 1,27,-1
 379 317 l 1,28,-1
 379 410 l 1,29,-1
 31 410 l 1,30,-1
 31 338 l 1,31,-1
 317 340 l 1,0,-1
EndSplineSet
Validated: 5
EndChar

StartChar: four
Encoding: 52 52 23
Width: 409
GlyphClass: 2
Flags: W
LayerCount: 2
Fore
SplineSet
236 254 m 1,0,-1
 116 72 l 1,1,-1
 236 72 l 1,2,-1
 236 254 l 1,0,-1
256 410 m 1,3,-1
 307 395 l 1,4,-1
 307 72 l 1,5,-1
 379 72 l 1,6,-1
 379 0 l 1,7,-1
 309 0 l 1,8,-1
 307 -205 l 1,9,-1
 236 -205 l 1,10,-1
 236 0 l 1,11,-1
 45 0 l 1,12,-1
 31 76 l 1,13,-1
 256 410 l 1,3,-1
EndSplineSet
Validated: 1
EndChar

StartChar: five
Encoding: 53 53 24
Width: 409
GlyphClass: 2
Flags: W
LayerCount: 2
Fore
SplineSet
379 410 m 1,0,-1
 31 410 l 1,1,-1
 31 132 l 1,2,-1
 66 77 l 1,3,4
 122 87 122 87 201 87 c 0,5,6
 250 87 250 87 280 61.5 c 128,-1,7
 310 36 310 36 310 0 c 0,8,9
 310 -70 310 -70 280.5 -101.5 c 128,-1,10
 251 -133 251 -133 190 -133 c 0,11,12
 148 -133 148 -133 123 -120 c 128,-1,13
 98 -107 98 -107 70 -78 c 1,14,-1
 25 -135 l 1,15,16
 74 -175 74 -175 108.5 -192 c 128,-1,17
 143 -209 143 -209 193 -209 c 0,18,19
 278 -209 278 -209 330 -152 c 128,-1,20
 382 -95 382 -95 382 0 c 0,21,22
 382 67 382 67 329.5 111.5 c 128,-1,23
 277 156 277 156 205 156 c 0,24,25
 135 156 135 156 102 153 c 1,26,-1
 102 338 l 1,27,-1
 379 338 l 1,28,-1
 379 410 l 1,0,-1
EndSplineSet
Validated: 9
EndChar

StartChar: six
Encoding: 54 54 25
Width: 409
GlyphClass: 2
Flags: W
LayerCount: 2
Fore
SplineSet
309 210 m 128,-1,1
 309 274 309 274 282 313 c 128,-1,2
 255 352 255 352 205 352 c 128,-1,3
 155 352 155 352 127.5 313 c 128,-1,4
 100 274 100 274 100 210 c 128,-1,5
 100 146 100 146 127.5 107.5 c 128,-1,6
 155 69 155 69 205 69 c 128,-1,7
 255 69 255 69 282 107.5 c 128,-1,0
 309 146 309 146 309 210 c 128,-1,1
382 211 m 128,-1,9
 382 122 382 122 331.5 59.5 c 128,-1,10
 281 -3 281 -3 205 -3 c 128,-1,11
 129 -3 129 -3 78.5 59.5 c 128,-1,12
 28 122 28 122 28 211 c 0,13,14
 28 234 28 234 28.5 272.5 c 128,-1,15
 29 311 29 311 29.5 326.5 c 128,-1,16
 30 342 30 342 32.5 368.5 c 128,-1,17
 35 395 35 395 40 411 c 128,-1,18
 45 427 45 427 54 449 c 128,-1,19
 63 471 63 471 77 494 c 0,20,21
 103 537 103 537 158.5 574 c 128,-1,22
 214 611 214 611 252 621 c 1,23,-1
 270 551 l 1,24,25
 243 542 243 542 203.5 517.5 c 128,-1,26
 164 493 164 493 139 457 c 0,27,28
 119.697241526 429.530689864 119.697241526 429.530689864 110.591280341 393.242528019 c 1,29,30
 151.470514884 424 151.470514884 424 205 424 c 0,31,32
 281 424 281 424 331.5 362 c 128,-1,8
 382 300 382 300 382 211 c 128,-1,9
EndSplineSet
Validated: 1
EndChar

StartChar: seven
Encoding: 55 55 26
Width: 409
GlyphClass: 2
Flags: W
LayerCount: 2
Fore
SplineSet
31 410 m 1,0,-1
 31 338 l 1,1,-1
 313 338 l 1,2,-1
 96 -186 l 1,3,-1
 162 -217 l 1,4,-1
 379 319 l 1,5,-1
 379 410 l 1,6,-1
 31 410 l 1,0,-1
EndSplineSet
Validated: 9
EndChar

StartChar: eight
Encoding: 56 56 27
Width: 409
GlyphClass: 2
Flags: W
LayerCount: 2
Fore
SplineSet
28 450 m 0,0,1
 28 528 28 528 77.5 575 c 128,-1,2
 127 622 127 622 205 622 c 0,3,4
 285 622 285 622 333.5 578 c 128,-1,5
 382 534 382 534 382 449 c 0,6,7
 382 367 382 367 332.5 319 c 128,-1,8
 283 271 283 271 205 271 c 0,9,10
 126 271 126 271 77 318 c 128,-1,11
 28 365 28 365 28 450 c 0,0,1
100 451 m 0,12,13
 100 399 100 399 127 371 c 128,-1,14
 154 343 154 343 205 343 c 128,-1,15
 256 343 256 343 282.5 370.5 c 128,-1,16
 309 398 309 398 309 450 c 0,17,18
 309 550 309 550 205 550 c 0,19,20
 154 550 154 550 127 523 c 128,-1,21
 100 496 100 496 100 451 c 0,12,13
28 171 m 0,22,23
 28 249 28 249 77.5 296 c 128,-1,24
 127 343 127 343 205 343 c 0,25,26
 285 343 285 343 333.5 299 c 128,-1,27
 382 255 382 255 382 170 c 0,28,29
 382 88 382 88 332.5 40 c 128,-1,30
 283 -8 283 -8 205 -8 c 0,31,32
 126 -8 126 -8 77 39 c 128,-1,33
 28 86 28 86 28 171 c 0,22,23
100 172 m 0,34,35
 100 121 100 121 127 93 c 128,-1,36
 154 65 154 65 205 65 c 0,37,38
 309 65 309 65 309 171 c 0,39,40
 309 271 309 271 205 271 c 0,41,42
 154 271 154 271 127 244 c 128,-1,43
 100 217 100 217 100 172 c 0,34,35
EndSplineSet
Validated: 5
EndChar

StartChar: nine
Encoding: 57 57 28
Width: 409
GlyphClass: 2
Flags: W
LayerCount: 2
Fore
SplineSet
100 207 m 128,-1,1
 100 143 100 143 127.5 104 c 128,-1,2
 155 65 155 65 205 65 c 128,-1,3
 255 65 255 65 282 104 c 0,4,5
 307.991537788 141.543332361 307.991537788 141.543332361 308.96233348 202.254018514 c 2,6,-1
 309 207 l 2,7,8
 309 271 309 271 282 309.5 c 128,-1,9
 255 348 255 348 205 348 c 128,-1,10
 155 348 155 348 127.5 309.5 c 128,-1,0
 100 271 100 271 100 207 c 128,-1,1
28 206 m 128,-1,12
 28 295 28 295 78.5 357.5 c 128,-1,13
 129 420 129 420 205 420 c 128,-1,14
 281 420 281 420 331.5 357.5 c 128,-1,15
 382 295 382 295 382 206 c 0,16,17
 382 202.213972756 382 202.213972756 381.908614175 198.475900449 c 2,18,-1
 379 -41 l 2,19,20
 378 -74 378 -74 376 -92 c 128,-1,21
 374 -110 374 -110 364 -132 c 128,-1,22
 354 -154 354 -154 335 -170 c 0,23,24
 300 -199 300 -199 214 -211 c 1,25,-1
 212 -153 l 1,26,27
 260 -147 260 -147 284 -119 c 0,28,29
 293 -109 293 -109 298.5 -90.5 c 128,-1,30
 304 -72 304 -72 306 -58 c 2,31,-1
 307 -45 l 1,32,-1
 307.592320505 29.6323836745 l 1,33,34
 263.973166522 -8 263.973166522 -8 205 -8 c 0,35,36
 129 -8 129 -8 78.5 54.5 c 128,-1,11
 28 117 28 117 28 206 c 128,-1,12
EndSplineSet
Validated: 1
EndChar

StartChar: colon
Encoding: 58 58 29
Width: 133
GlyphClass: 2
Flags: W
LayerCount: 2
Fore
SplineSet
31 410 m 1,0,-1
 102 410 l 1,1,-1
 102 338 l 1,2,-1
 31 338 l 1,3,-1
 31 410 l 1,0,-1
31 102 m 1,4,-1
 102 102 l 1,5,-1
 102 31 l 1,6,-1
 31 31 l 1,7,-1
 31 102 l 1,4,-1
EndSplineSet
Validated: 1
EndChar

StartChar: semicolon
Encoding: 59 59 30
Width: 133
GlyphClass: 2
Flags: W
LayerCount: 2
Fore
SplineSet
31 410 m 1,0,-1
 102 410 l 1,1,-1
 102 338 l 1,2,-1
 31 338 l 1,3,-1
 31 410 l 1,0,-1
102 31 m 1,4,5
 102 0 102 0 89 -20 c 0,6,7
 78 -37 78 -37 49 -52 c 1,8,-1
 38 -34 l 1,9,10
 64 -19 64 -19 70 -8 c 0,11,12
 77 4 77 4 77 31 c 1,13,-1
 102 31 l 1,4,5
31 102 m 1,14,-1
 102 102 l 1,15,-1
 102 31 l 1,16,-1
 77 31 l 1,17,-1
 31 31 l 1,18,-1
 31 102 l 1,14,-1
EndSplineSet
Validated: 5
EndChar

StartChar: less
Encoding: 60 60 31
Width: 409
GlyphClass: 2
Flags: W
LayerCount: 2
Fore
SplineSet
338 416 m 1,0,-1
 379 354 l 1,1,-1
 117 219 l 1,2,-1
 379 29 l 1,3,-1
 334 -27 l 1,4,-1
 31 197 l 1,5,-1
 31 248 l 1,6,-1
 338 416 l 1,0,-1
EndSplineSet
Validated: 1
EndChar

StartChar: equal
Encoding: 61 61 32
Width: 409
GlyphClass: 2
Flags: W
LayerCount: 2
Fore
SplineSet
31 141 m 1,0,-1
 379 141 l 1,1,-1
 379 70 l 1,2,-1
 31 70 l 1,3,-1
 31 141 l 1,0,-1
31 371 m 1,4,-1
 379 371 l 1,5,-1
 379 299 l 1,6,-1
 31 299 l 1,7,-1
 31 371 l 1,4,-1
EndSplineSet
Validated: 1
EndChar

StartChar: greater
Encoding: 62 62 33
Width: 409
GlyphClass: 2
Flags: W
LayerCount: 2
Fore
SplineSet
73 416 m 1,0,-1
 32 354 l 1,1,-1
 294 219 l 1,2,-1
 32 29 l 1,3,-1
 77 -27 l 1,4,-1
 380 197 l 1,5,-1
 380 248 l 1,6,-1
 73 416 l 1,0,-1
EndSplineSet
Validated: 9
EndChar

StartChar: question
Encoding: 63 63 34
Width: 409
GlyphClass: 2
Flags: W
LayerCount: 2
Fore
SplineSet
158 102 m 1,0,-1
 229 102 l 1,1,-1
 229 31 l 1,2,-1
 158 31 l 1,3,-1
 158 102 l 1,0,-1
27 516 m 1,4,-1
 61 470 l 1,5,6
 73 479 73 479 90 495 c 128,-1,7
 107 511 107 511 115.5 517.5 c 128,-1,8
 124 524 124 524 137.5 532 c 128,-1,9
 151 540 151 540 164.5 543 c 128,-1,10
 178 546 178 546 196 546 c 0,11,12
 233 546 233 546 270 507 c 128,-1,13
 307 468 307 468 307 425 c 0,14,15
 307 408 307 408 300 393.5 c 128,-1,16
 293 379 293 379 285 369 c 128,-1,17
 277 359 277 359 258 347.5 c 128,-1,18
 239 336 239 336 228.5 331 c 128,-1,19
 218 326 218 326 192 315 c 128,-1,20
 166 304 166 304 158 300 c 1,21,-1
 158 136 l 1,22,-1
 228 136 l 1,23,-1
 228 259 l 1,24,25
 379 333 379 333 379 425 c 0,26,27
 379 495 379 495 321 555.5 c 128,-1,28
 263 616 263 616 199 616 c 0,29,30
 167 616 167 616 132.5 598.5 c 128,-1,31
 98 581 98 581 77 563 c 128,-1,32
 56 545 56 545 27 516 c 1,4,-1
EndSplineSet
Validated: 9
EndChar

StartChar: at
Encoding: 64 64 35
Width: 512
GlyphClass: 2
Flags: W
LayerCount: 2
Fore
SplineSet
293 413 m 1,0,-1
 283 302 l 2,1,2
 273 206 273 206 246 206 c 0,3,4
 213 206 213 206 196.5 236 c 128,-1,5
 180 266 180 266 180 307 c 0,6,7
 180 427 180 427 240 427 c 0,8,9
 270 427 270 427 293 413 c 1,0,-1
365 452 m 1,10,11
 337 470 337 470 324.5 477 c 128,-1,12
 312 484 312 484 290 491.5 c 128,-1,13
 268 499 268 499 244 499 c 0,14,15
 178 499 178 499 143.5 442 c 128,-1,16
 109 385 109 385 109 307 c 0,17,18
 109 241 109 241 145.5 187.5 c 128,-1,19
 182 134 182 134 240 134 c 0,20,21
 275 134 275 134 291 149.5 c 128,-1,22
 307 165 307 165 328 210 c 1,23,24
 338 190 338 190 344.5 181 c 128,-1,25
 351 172 351 172 362 164.5 c 128,-1,26
 373 157 373 157 387 157 c 0,27,28
 437 157 437 157 459 191.5 c 128,-1,29
 481 226 481 226 481 307 c 0,30,31
 481 393 481 393 459.5 460 c 128,-1,32
 438 527 438 527 385.5 570.5 c 128,-1,33
 333 614 333 614 255 614 c 0,34,35
 133 614 133 614 82 532.5 c 128,-1,36
 31 451 31 451 31 307 c 0,37,38
 31 243 31 243 43.5 188.5 c 128,-1,39
 56 134 56 134 81.5 90.5 c 128,-1,40
 107 47 107 47 151.5 22 c 128,-1,41
 196 -3 196 -3 256 -3 c 0,42,43
 282 -3 282 -3 304 2 c 128,-1,44
 326 7 326 7 339.5 13 c 128,-1,45
 353 19 353 19 377 31 c 1,46,-1
 340 91 l 1,47,48
 312 75 312 75 300 72 c 128,-1,49
 288 69 288 69 256 69 c 0,50,51
 217 69 217 69 189 81.5 c 128,-1,52
 161 94 161 94 144.5 114.5 c 128,-1,53
 128 135 128 135 118.5 167 c 128,-1,54
 109 199 109 199 105.5 231.5 c 128,-1,55
 102 264 102 264 102 307 c 0,56,57
 102 353 102 353 104.5 385 c 128,-1,58
 107 417 107 417 116.5 449 c 128,-1,59
 126 481 126 481 142.5 500 c 128,-1,60
 159 519 159 519 187.5 531 c 128,-1,61
 216 543 216 543 256 543 c 128,-1,62
 296 543 296 543 324.5 531 c 128,-1,63
 353 519 353 519 369.5 499.5 c 128,-1,64
 386 480 386 480 395 448 c 128,-1,65
 404 416 404 416 407 384 c 128,-1,66
 410 352 410 352 410 307 c 0,67,68
 410 228 410 228 390 228 c 0,69,70
 381 228 381 228 374.5 242 c 128,-1,71
 368 256 368 256 354 303 c 1,72,-1
 365 452 l 1,10,11
EndSplineSet
Validated: 9
EndChar

StartChar: A
Encoding: 65 65 36
Width: 512
GlyphClass: 2
Flags: W
LayerCount: 2
Fore
SplineSet
159 302 m 1,0,-1
 159 230 l 1,1,-1
 343 230 l 1,2,-1
 343 302 l 1,3,-1
 159 302 l 1,0,-1
481 13 m 1,4,-1
 302 614 l 1,5,-1
 219 614 l 1,6,-1
 407 -21 l 1,7,-1
 481 13 l 1,4,-1
29 9 m 1,8,-1
 98 -22 l 1,9,-1
 302 615 l 1,10,-1
 219 614 l 1,11,-1
 29 9 l 1,8,-1
EndSplineSet
Validated: 5
EndChar

StartChar: B
Encoding: 66 66 37
Width: 512
GlyphClass: 2
Flags: W
LayerCount: 2
Fore
SplineSet
56 271 m 1,0,-1
 263 270 l 2,1,2
 347 269 347 269 378.5 243.5 c 128,-1,3
 410 218 410 218 410 165 c 0,4,5
 410 127 410 127 376.5 100.5 c 128,-1,6
 343 74 343 74 284 74 c 2,7,-1
 71 73 l 1,8,-1
 73 1 l 1,9,-1
 286 0 l 2,10,11
 360 0 360 0 420.5 47.5 c 128,-1,12
 481 95 481 95 481 164 c 0,13,14
 481 250 481 250 421 296.5 c 128,-1,15
 361 343 361 343 267 343 c 2,16,-1
 56 343 l 1,17,-1
 56 271 l 1,0,-1
31 614 m 1,18,-1
 31 0 l 1,19,-1
 94 0 l 1,20,-1
 94 614 l 1,21,-1
 31 614 l 1,18,-1
56 543 m 1,22,-1
 263 542 l 2,23,24
 347 541 347 541 378.5 515.5 c 128,-1,25
 410 490 410 490 410 436 c 0,26,27
 410 398 410 398 376.5 371.5 c 128,-1,28
 343 345 343 345 284 345 c 2,29,-1
 71 344 l 1,30,-1
 73 272 l 1,31,-1
 286 271 l 2,32,33
 360 271 360 271 420.5 318.5 c 128,-1,34
 481 366 481 366 481 435 c 0,35,36
 481 521 481 521 421 567.5 c 128,-1,37
 361 614 361 614 267 614 c 2,38,-1
 56 614 l 1,39,-1
 56 543 l 1,22,-1
EndSplineSet
Validated: 5
EndChar

StartChar: C
Encoding: 67 67 38
Width: 512
GlyphClass: 2
Flags: W
LayerCount: 2
Fore
SplineSet
436 490 m 1,0,1
 424 495 424 495 398 507.5 c 128,-1,2
 372 520 372 520 361 524 c 128,-1,3
 350 528 350 528 331 535 c 128,-1,4
 312 542 312 542 294.5 544 c 128,-1,5
 277 546 277 546 256 546 c 0,6,7
 186 546 186 546 143 472.5 c 128,-1,8
 100 399 100 399 100 309 c 0,9,10
 100 186 100 186 142 125.5 c 128,-1,11
 184 65 184 65 256 65 c 0,12,13
 330 65 330 65 429 138 c 1,14,15
 429 138 429 138 482 90 c 1,16,17
 481 89 481 89 470.5 80 c 128,-1,18
 460 71 460 71 456 68 c 128,-1,19
 452 65 452 65 440 56 c 128,-1,20
 428 47 428 47 421 42.5 c 128,-1,21
 414 38 414 38 400.5 30 c 128,-1,22
 387 22 387 22 376.5 17.5 c 128,-1,23
 366 13 366 13 350.5 7.5 c 128,-1,24
 335 2 335 2 321.5 -1 c 128,-1,25
 308 -4 308 -4 290.5 -6 c 128,-1,26
 273 -8 273 -8 256 -8 c 0,27,28
 28 -8 28 -8 28 308 c 0,29,30
 28 454 28 454 86 535.5 c 128,-1,31
 144 617 144 617 256 617 c 0,32,33
 372 617 372 617 481 546 c 1,34,35
 436 490 436 490 436 490 c 1,0,1
EndSplineSet
Validated: 1
EndChar

StartChar: D
Encoding: 68 68 39
Width: 512
GlyphClass: 2
Flags: W
LayerCount: 2
Fore
SplineSet
31 614 m 1,0,-1
 31 543 l 1,1,-1
 242 543 l 2,2,3
 333 541 333 541 371.5 487 c 128,-1,4
 410 433 410 433 410 304 c 0,5,6
 410 199 410 199 365 137 c 128,-1,7
 320 75 320 75 248 73 c 2,8,-1
 31 72 l 1,9,-1
 31 0 l 1,10,-1
 248 0 l 2,11,12
 344 0 344 0 412.5 86 c 128,-1,13
 481 172 481 172 481 307 c 0,14,15
 481 456 481 456 421.5 535 c 128,-1,16
 362 614 362 614 250 614 c 2,17,-1
 31 614 l 1,0,-1
31 614 m 1,18,-1
 31 0 l 1,19,-1
 102 0 l 1,20,-1
 102 614 l 1,21,-1
 31 614 l 1,18,-1
EndSplineSet
Validated: 5
EndChar

StartChar: E
Encoding: 69 69 40
Width: 512
GlyphClass: 2
Flags: W
LayerCount: 2
Fore
SplineSet
102 521 m 1,0,-1
 102 341 l 1,1,-1
 481 341 l 1,2,-1
 481 270 l 1,3,-1
 102 270 l 1,4,-1
 102 71 l 1,5,-1
 481 71 l 1,6,-1
 481 0 l 1,7,-1
 102 0 l 1,8,-1
 46 0 l 1,9,-1
 30 0 l 1,10,-1
 30 592 l 1,11,-1
 46 592 l 1,12,-1
 102 592 l 1,13,-1
 481 592 l 1,14,-1
 481 521 l 1,15,-1
 102 521 l 1,0,-1
EndSplineSet
Validated: 1
EndChar

StartChar: F
Encoding: 70 70 41
Width: 512
GlyphClass: 2
Flags: W
LayerCount: 2
Fore
SplineSet
102 521 m 1,0,-1
 102 341 l 1,1,-1
 481 341 l 1,2,-1
 481 270 l 1,3,-1
 102 270 l 1,4,-1
 102 0 l 1,5,-1
 30 0 l 1,6,-1
 30 592 l 1,7,-1
 46 592 l 1,8,-1
 102 592 l 1,9,-1
 481 592 l 1,10,-1
 481 521 l 1,11,-1
 102 521 l 1,0,-1
EndSplineSet
Validated: 1
EndChar

StartChar: G
Encoding: 71 71 42
Width: 512
GlyphClass: 2
Flags: W
LayerCount: 2
Fore
SplineSet
436 490 m 1,0,1
 424 495 424 495 398 507.5 c 128,-1,2
 372 520 372 520 361 524 c 128,-1,3
 350 528 350 528 331 535 c 128,-1,4
 312 542 312 542 294.5 544 c 128,-1,5
 277 546 277 546 256 546 c 0,6,7
 186 546 186 546 143 472.5 c 128,-1,8
 100 399 100 399 100 309 c 0,9,10
 100 186 100 186 142 125.5 c 128,-1,11
 184 65 184 65 256 65 c 0,12,13
 322.810803042 65 322.810803042 65 410 124.504910232 c 1,14,-1
 410 253 l 1,15,-1
 314 253 l 1,16,-1
 314 325 l 1,17,-1
 531 325 l 1,18,-1
 531 253 l 1,19,-1
 481 253 l 1,20,-1
 481 90.9056603774 l 1,21,-1
 482 90 l 1,22,23
 481.764171542 89.7641715422 481.764171542 89.7641715422 481 89.0834225923 c 2,24,-1
 481 -40 l 1,25,-1
 410 -40 l 1,26,-1
 410 35.6826303574 l 1,27,28
 405.739559354 33.1049240615 405.739559354 33.1049240615 400.5 30 c 0,29,30
 387 22 387 22 376.5 17.5 c 128,-1,31
 366 13 366 13 350.5 7.5 c 128,-1,32
 335 2 335 2 321.5 -1 c 128,-1,33
 308 -4 308 -4 290.5 -6 c 128,-1,34
 273 -8 273 -8 256 -8 c 0,35,36
 28 -8 28 -8 28 308 c 0,37,38
 28 454 28 454 86 535.5 c 128,-1,39
 144 617 144 617 256 617 c 0,40,41
 372 617 372 617 481 546 c 1,42,-1
 436 490 l 1,0,1
EndSplineSet
Validated: 1
EndChar

StartChar: H
Encoding: 72 72 43
Width: 512
GlyphClass: 2
Flags: W
LayerCount: 2
Fore
SplineSet
31 614 m 1,0,-1
 102 614 l 1,1,-1
 102 343 l 1,2,-1
 410 343 l 1,3,-1
 410 614 l 1,4,-1
 481 614 l 1,5,-1
 481 2 l 1,6,-1
 410 0 l 1,7,-1
 410 257 l 1,8,-1
 102 257 l 1,9,-1
 102 0 l 1,10,-1
 31 0 l 1,11,-1
 31 614 l 1,0,-1
EndSplineSet
Validated: 1
EndChar

StartChar: I
Encoding: 73 73 44
Width: 133
GlyphClass: 2
Flags: W
LayerCount: 2
Fore
SplineSet
31 614 m 1,0,-1
 102 614 l 1,1,-1
 102 0 l 1,2,-1
 31 0 l 1,3,-1
 31 614 l 1,0,-1
EndSplineSet
Validated: 1
EndChar

StartChar: J
Encoding: 74 74 45
Width: 512
GlyphClass: 2
Flags: W
LayerCount: 2
Fore
SplineSet
483 186 m 2,0,-1
 481 614 l 1,1,-1
 410 614 l 1,2,-1
 410 188 l 2,3,4
 410 143 410 143 367.5 107 c 128,-1,5
 325 71 325 71 255 71 c 0,6,7
 180 71 180 71 90 124 c 1,8,-1
 41 62 l 1,9,10
 165 0 165 0 256 0 c 0,11,12
 365 0 365 0 424.5 48.5 c 128,-1,13
 484 97 484 97 483 186 c 2,0,-1
EndSplineSet
Validated: 41
EndChar

StartChar: K
Encoding: 75 75 46
Width: 512
GlyphClass: 2
Flags: W
LayerCount: 2
Fore
SplineSet
31 614 m 1,0,-1
 100 614 l 1,1,-1
 100 373.512690355 l 1,2,-1
 429 614 l 1,3,-1
 473 551 l 1,4,-1
 138.264070727 307.71254625 l 1,5,-1
 480 43 l 1,6,-1
 432 -14 l 1,7,-1
 100 242.114285714 l 1,8,-1
 100 0 l 1,9,-1
 31 0 l 1,10,-1
 31 614 l 1,0,-1
EndSplineSet
Validated: 1
EndChar

StartChar: L
Encoding: 76 76 47
Width: 512
GlyphClass: 2
Flags: W
LayerCount: 2
Fore
SplineSet
47 66 m 1,0,-1
 481 66 l 1,1,-1
 481 0 l 1,2,-1
 47 0 l 1,3,-1
 47 66 l 1,0,-1
31 614 m 1,4,-1
 102 614 l 1,5,-1
 102 0 l 1,6,-1
 31 0 l 1,7,-1
 31 614 l 1,4,-1
EndSplineSet
Validated: 5
EndChar

StartChar: M
Encoding: 77 77 48
Width: 716
GlyphClass: 2
Flags: W
LayerCount: 2
Fore
SplineSet
322 0 m 1,0,-1
 399 0 l 1,1,-1
 577 635 l 1,2,-1
 494 635 l 1,3,-1
 322 0 l 1,0,-1
693 30 m 1,4,-1
 577 635 l 1,5,-1
 494 636 l 1,6,-1
 623 -1 l 1,7,-1
 693 30 l 1,4,-1
399 1 m 1,8,-1
 227 636 l 1,9,-1
 144 636 l 1,10,-1
 322 0 l 1,11,-1
 399 1 l 1,8,-1
29 31 m 1,12,-1
 98 -1 l 1,13,-1
 227 636 l 1,14,-1
 144 636 l 1,15,-1
 29 31 l 1,12,-1
EndSplineSet
Validated: 5
EndChar

StartChar: N
Encoding: 78 78 49
Width: 512
GlyphClass: 2
Flags: W
LayerCount: 2
Fore
SplineSet
51 569 m 1,0,-1
 103 614 l 1,1,-1
 466 43 l 1,2,-1
 410 0 l 1,3,-1
 51 569 l 1,0,-1
410 614 m 1,4,-1
 481 614 l 1,5,-1
 481 0 l 1,6,-1
 410 0 l 1,7,-1
 410 614 l 1,4,-1
31 614 m 1,8,-1
 103 614 l 1,9,-1
 103 0 l 1,10,-1
 31 0 l 1,11,-1
 31 614 l 1,8,-1
EndSplineSet
Validated: 5
EndChar

StartChar: O
Encoding: 79 79 50
Width: 512
GlyphClass: 2
Flags: W
LayerCount: 2
Fore
SplineSet
99 306 m 128,-1,1
 99 198 99 198 142 133.5 c 128,-1,2
 185 69 185 69 256 69 c 0,3,4
 328 69 328 69 370.5 130.5 c 128,-1,5
 413 192 413 192 413 306 c 0,6,7
 413 410 413 410 369.5 476.5 c 128,-1,8
 326 543 326 543 256 543 c 0,9,10
 185 543 185 543 142 478.5 c 128,-1,0
 99 414 99 414 99 306 c 128,-1,1
28 306 m 0,11,12
 28 391 28 391 51.5 458.5 c 128,-1,13
 75 526 75 526 128 570 c 128,-1,14
 181 614 181 614 256 614 c 0,15,16
 369 614 369 614 426.5 528.5 c 128,-1,17
 484 443 484 443 484 306 c 0,18,19
 484 160 484 160 427 78 c 128,-1,20
 370 -4 370 -4 256 -4 c 0,21,22
 144 -4 144 -4 86 83 c 128,-1,23
 28 170 28 170 28 306 c 0,11,12
EndSplineSet
Validated: 1
EndChar

StartChar: P
Encoding: 80 80 51
Width: 512
GlyphClass: 2
Flags: W
LayerCount: 2
Fore
SplineSet
31 614 m 1,0,-1
 31 0 l 1,1,-1
 94 0 l 1,2,-1
 94 614 l 1,3,-1
 31 614 l 1,0,-1
56 543 m 1,4,-1
 263 542 l 2,5,6
 347 541 347 541 378.5 515.5 c 128,-1,7
 410 490 410 490 410 436 c 0,8,9
 410 398 410 398 376.5 371.5 c 128,-1,10
 343 345 343 345 284 345 c 2,11,-1
 71 344 l 1,12,-1
 73 272 l 1,13,-1
 286 271 l 2,14,15
 360 271 360 271 420.5 318.5 c 128,-1,16
 481 366 481 366 481 435 c 0,17,18
 481 521 481 521 421 567.5 c 128,-1,19
 361 614 361 614 267 614 c 2,20,-1
 56 614 l 1,21,-1
 56 543 l 1,4,-1
EndSplineSet
Validated: 5
EndChar

StartChar: Q
Encoding: 81 81 52
Width: 512
GlyphClass: 2
Flags: W
LayerCount: 2
Fore
SplineSet
419 160 m 1,0,-1
 584 57 l 1,1,-1
 548 -5 l 1,2,-1
 383 99 l 1,3,-1
 419 160 l 1,0,-1
99 306 m 128,-1,5
 99 198 99 198 142 133.5 c 128,-1,6
 185 69 185 69 256 69 c 0,7,8
 328 69 328 69 370.5 130.5 c 128,-1,9
 413 192 413 192 413 306 c 0,10,11
 413 410 413 410 369.5 476.5 c 128,-1,12
 326 543 326 543 256 543 c 0,13,14
 185 543 185 543 142 478.5 c 128,-1,4
 99 414 99 414 99 306 c 128,-1,5
28 306 m 0,15,16
 28 391 28 391 51.5 458.5 c 128,-1,17
 75 526 75 526 128 570 c 128,-1,18
 181 614 181 614 256 614 c 0,19,20
 369 614 369 614 426.5 528.5 c 128,-1,21
 484 443 484 443 484 306 c 0,22,23
 484 160 484 160 427 78 c 128,-1,24
 370 -4 370 -4 256 -4 c 0,25,26
 144 -4 144 -4 86 83 c 128,-1,27
 28 170 28 170 28 306 c 0,15,16
EndSplineSet
Validated: 5
EndChar

StartChar: R
Encoding: 82 82 53
Width: 512
GlyphClass: 2
Flags: W
LayerCount: 2
Fore
SplineSet
109 320 m 1,0,-1
 67 262 l 1,1,-1
 447 -15 l 1,2,-1
 489 43 l 1,3,-1
 109 320 l 1,0,-1
31 614 m 1,4,-1
 31 0 l 1,5,-1
 94 0 l 1,6,-1
 94 614 l 1,7,-1
 31 614 l 1,4,-1
56 543 m 1,8,-1
 263 542 l 2,9,10
 347 541 347 541 378.5 518 c 128,-1,11
 410 495 410 495 410 442 c 0,12,13
 410 405 410 405 376.5 380 c 128,-1,14
 343 355 343 355 284 355 c 2,15,-1
 71 354 l 1,16,-1
 73 283 l 1,17,-1
 286 282 l 2,18,19
 361 282 361 282 421 327.5 c 128,-1,20
 481 373 481 373 481 441 c 0,21,22
 481 527 481 527 421.5 570.5 c 128,-1,23
 362 614 362 614 267 614 c 2,24,-1
 56 614 l 1,25,-1
 56 543 l 1,8,-1
EndSplineSet
Validated: 5
EndChar

StartChar: S
Encoding: 83 83 54
Width: 512
GlyphClass: 2
Flags: W
LayerCount: 2
Fore
SplineSet
392 494 m 1,0,-1
 431 554 l 1,1,2
 337 617 337 617 228 617 c 0,3,4
 140 617 140 617 84 579.5 c 128,-1,5
 28 542 28 542 28 465 c 0,6,7
 28 448 28 448 34 432.5 c 128,-1,8
 40 417 40 417 48 405.5 c 128,-1,9
 56 394 56 394 72.5 381.5 c 128,-1,10
 89 369 89 369 100.5 361.5 c 128,-1,11
 112 354 112 354 134.5 343.5 c 128,-1,12
 157 333 157 333 168.5 328.5 c 128,-1,13
 180 324 180 324 205.5 314.5 c 128,-1,14
 231 305 231 305 239 302 c 128,-1,15
 247 299 247 299 275 288.5 c 128,-1,16
 303 278 303 278 316 273 c 128,-1,17
 329 268 329 268 351 256.5 c 128,-1,18
 373 245 373 245 384 235 c 128,-1,19
 395 225 395 225 403.5 209.5 c 128,-1,20
 412 194 412 194 412 177 c 0,21,22
 411 123 411 123 362.5 96 c 128,-1,23
 314 69 314 69 228 69 c 0,24,25
 149 69 149 69 60 193 c 1,26,-1
 15 129 l 1,27,28
 43 99 43 99 59.5 82.5 c 128,-1,29
 76 66 76 66 105 42.5 c 128,-1,30
 134 19 134 19 164.5 8 c 128,-1,31
 195 -3 195 -3 228 -3 c 0,32,33
 343 -3 343 -3 412.5 43 c 128,-1,34
 482 89 482 89 483 176 c 0,35,36
 484 212 484 212 468.5 242.5 c 128,-1,37
 453 273 453 273 434.5 290.5 c 128,-1,38
 416 308 416 308 381 325 c 128,-1,39
 346 342 346 342 328 348.5 c 128,-1,40
 310 355 310 355 273 366 c 0,41,42
 269 367 269 367 251.5 372.5 c 128,-1,43
 234 378 234 378 221.5 382 c 128,-1,44
 209 386 209 386 190 393 c 128,-1,45
 171 400 171 400 157.5 407 c 128,-1,46
 144 414 144 414 131 423 c 128,-1,47
 118 432 118 432 111 442.5 c 128,-1,48
 104 453 104 453 104 465 c 0,49,50
 104 496 104 496 146 521 c 128,-1,51
 188 546 188 546 226 546 c 0,52,53
 267 546 267 546 300 537 c 128,-1,54
 333 528 333 528 347.5 520.5 c 128,-1,55
 362 513 362 513 392 494 c 1,0,-1
EndSplineSet
Validated: 41
EndChar

StartChar: T
Encoding: 84 84 55
Width: 512
GlyphClass: 2
Flags: W
LayerCount: 2
Fore
SplineSet
224 594 m 1,0,-1
 296 594 l 1,1,-1
 296 0 l 1,2,-1
 224 0 l 1,3,-1
 224 594 l 1,0,-1
31 614 m 1,4,-1
 481 614 l 1,5,-1
 481 541 l 1,6,-1
 31 541 l 1,7,-1
 31 614 l 1,4,-1
EndSplineSet
Validated: 5
EndChar

StartChar: U
Encoding: 85 85 56
Width: 512
GlyphClass: 2
Flags: W
LayerCount: 2
Fore
SplineSet
31 614 m 1,0,-1
 102 614 l 1,1,-1
 102 191 l 2,2,3
 103 186 103 186 105 178 c 128,-1,4
 107 170 107 170 117.5 150 c 128,-1,5
 128 130 128 130 143 114.5 c 128,-1,6
 158 99 158 99 187.5 86 c 128,-1,7
 217 73 217 73 255 73 c 0,8,9
 289 73 289 73 328 105.5 c 128,-1,10
 367 138 367 138 388 170 c 2,11,-1
 410 203 l 1,12,-1
 410 614 l 1,13,-1
 481 614 l 1,14,-1
 481 0 l 1,15,-1
 410 0 l 1,16,-1
 410 98 l 1,17,18
 410 75 410 75 359.5 37.5 c 128,-1,19
 309 0 309 0 252 0 c 0,20,21
 95 0 95 0 46 121 c 0,22,23
 31 158 31 158 31 191 c 2,24,-1
 31 614 l 1,0,-1
EndSplineSet
Validated: 1
EndChar

StartChar: V
Encoding: 86 86 57
Width: 512
GlyphClass: 2
Flags: W
LayerCount: 2
Fore
SplineSet
29 605 m 1,0,-1
 98 637 l 1,1,-1
 258.838669339 134.773370741 l 1,2,-1
 407 636 l 1,3,-1
 481 601 l 1,4,-1
 302 0 l 1,5,-1
 219 0 l 1,6,-1
 29 605 l 1,0,-1
EndSplineSet
Validated: 1
EndChar

StartChar: W
Encoding: 87 87 58
Width: 716
GlyphClass: 2
Flags: W
LayerCount: 2
Fore
SplineSet
29 605 m 1,0,-1
 98 637 l 1,1,-1
 192.155544185 172.061382592 l 1,2,-1
 322 636 l 1,3,-1
 399 636 l 1,4,-1
 528.930220531 172.48488743 l 1,5,-1
 623 637 l 1,6,-1
 693 606 l 1,7,-1
 577 1 l 1,8,-1
 494 0 l 1,9,-1
 494.202511774 1 l 1,10,-1
 494 1 l 1,11,-1
 360.635433071 493.363372093 l 1,12,-1
 227 0 l 1,13,-1
 144 0 l 1,14,-1
 29 605 l 1,0,-1
EndSplineSet
Validated: 1
EndChar

StartChar: X
Encoding: 88 88 59
Width: 512
GlyphClass: 2
Flags: W
LayerCount: 2
Fore
SplineSet
32 569 m 1,0,-1
 82 616 l 1,1,-1
 262 364 l 1,2,-1
 433 614 l 1,3,-1
 481 571 l 1,4,-1
 305 308 l 1,5,-1
 482 45 l 1,6,-1
 430 -4 l 1,7,-1
 257 255 l 1,8,-1
 86 -4 l 1,9,-1
 32 43 l 1,10,-1
 214 311 l 1,11,-1
 32 569 l 1,0,-1
EndSplineSet
Validated: 1
EndChar

StartChar: Y
Encoding: 89 89 60
Width: 512
GlyphClass: 2
Flags: W
LayerCount: 2
Fore
SplineSet
224 330 m 1,0,-1
 296 330 l 1,1,-1
 296 0 l 1,2,-1
 224 0 l 1,3,-1
 224 330 l 1,0,-1
490 583 m 1,4,-1
 297 330 l 1,5,-1
 224 330 l 1,6,-1
 436 614 l 1,7,-1
 490 583 l 1,4,-1
20 573 m 1,8,-1
 78 614 l 1,9,-1
 296 329 l 1,10,-1
 224 330 l 1,11,-1
 20 573 l 1,8,-1
EndSplineSet
Validated: 5
EndChar

StartChar: Z
Encoding: 90 90 61
Width: 512
GlyphClass: 2
Flags: W
LayerCount: 2
Fore
SplineSet
31 614 m 1,0,-1
 31 543 l 1,1,-1
 412 543 l 1,2,-1
 31 111 l 1,3,-1
 31 0 l 1,4,-1
 481 0 l 1,5,-1
 481 72 l 1,6,-1
 96 72 l 1,7,-1
 481 515 l 1,8,-1
 481 614 l 1,9,-1
 31 614 l 1,0,-1
EndSplineSet
Validated: 9
EndChar

StartChar: bracketleft
Encoding: 91 91 62
Width: 409
GlyphClass: 2
Flags: W
LayerCount: 2
Fore
SplineSet
59 614 m 1,0,-1
 336 614 l 1,1,-1
 336 543 l 1,2,-1
 131 543 l 1,3,-1
 131 72 l 1,4,-1
 336 72 l 1,5,-1
 336 0 l 1,6,-1
 59 0 l 1,7,-1
 59 614 l 1,0,-1
EndSplineSet
Validated: 1
EndChar

StartChar: backslash
Encoding: 92 92 63
Width: 409
GlyphClass: 2
Flags: W
LayerCount: 2
Fore
SplineSet
304 -15 m 1,0,-1
 378 15 l 1,1,-1
 116 597 l 1,2,-1
 42 567 l 1,3,-1
 304 -15 l 1,0,-1
EndSplineSet
Validated: 9
EndChar

StartChar: bracketright
Encoding: 93 93 64
Width: 409
GlyphClass: 2
Flags: W
LayerCount: 2
Fore
SplineSet
340 614 m 1,0,-1
 63 614 l 1,1,-1
 63 543 l 1,2,-1
 268 543 l 1,3,-1
 268 72 l 1,4,-1
 63 72 l 1,5,-1
 63 0 l 1,6,-1
 340 0 l 1,7,-1
 340 614 l 1,0,-1
EndSplineSet
Validated: 9
EndChar

StartChar: asciicircum
Encoding: 94 94 65
Width: 409
GlyphClass: 2
Flags: W
LayerCount: 2
Fore
SplineSet
43 535 m 1,0,-1
 105 507 l 1,1,-1
 198 698 l 1,2,-1
 311 508 l 1,3,-1
 371 545 l 1,4,-1
 223 784 l 1,5,-1
 166 784 l 1,6,-1
 43 535 l 1,0,-1
EndSplineSet
Validated: 9
EndChar

StartChar: underscore
Encoding: 95 95 66
Width: 409
GlyphClass: 2
Flags: W
LayerCount: 2
Fore
SplineSet
37 0 m 1,0,-1
 369 0 l 1,1,-1
 369 -72 l 1,2,-1
 37 -72 l 1,3,-1
 37 0 l 1,0,-1
EndSplineSet
Validated: 1
EndChar

StartChar: grave
Encoding: 96 96 67
Width: 204
GlyphClass: 2
Flags: W
LayerCount: 2
Fore
SplineSet
30 702 m 1,0,-1
 95 732 l 1,1,-1
 162 549 l 1,2,-1
 115 529 l 1,3,-1
 30 702 l 1,0,-1
EndSplineSet
Validated: 1
EndChar

StartChar: a
Encoding: 97 97 68
Width: 409
GlyphClass: 2
Flags: W
LayerCount: 2
Fore
SplineSet
100 207 m 128,-1,1
 100 143 100 143 127.5 104 c 128,-1,2
 155 65 155 65 205 65 c 128,-1,3
 255 65 255 65 280.5 103.5 c 128,-1,4
 306 142 306 142 306 207 c 128,-1,5
 306 272 306 272 280.5 310 c 128,-1,6
 255 348 255 348 205 348 c 128,-1,7
 155 348 155 348 127.5 309.5 c 128,-1,0
 100 271 100 271 100 207 c 128,-1,1
28 206 m 128,-1,9
 28 295 28 295 78.5 357.5 c 128,-1,10
 129 420 129 420 205 420 c 0,11,12
 263.169770256 420 263.169770256 420 306 382.703862286 c 1,13,-1
 306 414 l 1,14,-1
 378 414 l 1,15,-1
 378 231.018429397 l 2,16,17
 379 218.792042981 379 218.792042981 379 206 c 128,-1,18
 379 193.207957019 379 193.207957019 378 180.981570603 c 2,19,-1
 378 0 l 1,20,-1
 306 0 l 1,21,-1
 306 29.2961377135 l 1,22,23
 263.169770256 -8 263.169770256 -8 205 -8 c 0,24,25
 129 -8 129 -8 78.5 54.5 c 128,-1,8
 28 117 28 117 28 206 c 128,-1,9
EndSplineSet
Validated: 1
EndChar

StartChar: b
Encoding: 98 98 69
Width: 409
GlyphClass: 2
Flags: W
LayerCount: 2
Fore
SplineSet
102 819 m 1,0,-1
 31 819 l 1,1,-1
 31 240.88 l 2,2,3
 29 224 29 224 29 206 c 128,-1,4
 29 188 29 188 31 171.12 c 2,5,-1
 31 0 l 1,6,-1
 102 0 l 1,7,-1
 102 29.9455233615 l 1,8,9
 145.543680586 -8 145.543680586 -8 205 -8 c 0,10,11
 281 -8 281 -8 331.5 54.5 c 128,-1,12
 382 117 382 117 382 206 c 128,-1,13
 382 295 382 295 331.5 357.5 c 128,-1,14
 281 420 281 420 205 420 c 0,15,16
 145.543680586 420 145.543680586 420 102 382.054476639 c 1,17,-1
 102 819 l 1,0,-1
309 207 m 128,-1,19
 309 143 309 143 282 104 c 128,-1,20
 255 65 255 65 205 65 c 128,-1,21
 155 65 155 65 127.5 104 c 0,22,23
 107.416198487 132.482482146 107.416198487 132.482482146 102 174.29914886 c 1,24,-1
 102 239.664487504 l 1,25,26
 107.416198487 281.382677882 107.416198487 281.382677882 127.5 309.5 c 0,27,28
 155 348 155 348 205 348 c 128,-1,29
 255 348 255 348 282 309.5 c 128,-1,18
 309 271 309 271 309 207 c 128,-1,19
EndSplineSet
Validated: 9
EndChar

StartChar: c
Encoding: 99 99 70
Width: 409
GlyphClass: 2
Flags: W
LayerCount: 2
Fore
SplineSet
325 303 m 1,0,1
 296 320 296 320 281.5 327.5 c 128,-1,2
 267 335 267 335 246 341.5 c 128,-1,3
 225 348 225 348 205 348 c 0,4,5
 155 348 155 348 127.5 309.5 c 128,-1,6
 100 271 100 271 100 207 c 128,-1,7
 100 143 100 143 127.5 104 c 128,-1,8
 155 65 155 65 205 65 c 0,9,10
 237 65 237 65 273 79 c 128,-1,11
 309 93 309 93 330 109 c 1,12,-1
 378 55 l 1,13,14
 302 -8 302 -8 205 -8 c 0,15,16
 129 -8 129 -8 78.5 54.5 c 128,-1,17
 28 117 28 117 28 206 c 128,-1,18
 28 295 28 295 78.5 357.5 c 128,-1,19
 129 420 129 420 205 420 c 0,20,21
 243 420 243 420 294 399 c 128,-1,22
 345 378 345 378 380 348 c 1,23,-1
 325 303 l 1,0,1
EndSplineSet
Validated: 1
EndChar

StartChar: d
Encoding: 100 100 71
Width: 409
GlyphClass: 2
Flags: W
LayerCount: 2
Fore
SplineSet
307 819 m 1,0,-1
 379 819 l 1,1,-1
 379 240.88 l 2,2,3
 381 224 381 224 381 206 c 128,-1,4
 381 188 381 188 379 171.12 c 2,5,-1
 379 0 l 1,6,-1
 307 0 l 1,7,-1
 307 29.080890627 l 1,8,9
 263.775025454 -8 263.775025454 -8 205 -8 c 0,10,11
 129 -8 129 -8 78.5 54.5 c 128,-1,12
 28 117 28 117 28 206 c 128,-1,13
 28 295 28 295 78.5 357.5 c 128,-1,14
 129 420 129 420 205 420 c 0,15,16
 263.775025454 420 263.775025454 420 307 382.919109373 c 1,17,-1
 307 819 l 1,0,-1
100 207 m 128,-1,19
 100 143 100 143 127.5 104 c 128,-1,20
 155 65 155 65 205 65 c 128,-1,21
 255 65 255 65 282 104 c 0,22,23
 301.651530772 132.385544448 301.651530772 132.385544448 307 174.014664399 c 1,24,-1
 307 239.948298564 l 1,25,26
 301.651530772 281.478372789 301.651530772 281.478372789 282 309.5 c 0,27,28
 255 348 255 348 205 348 c 128,-1,29
 155 348 155 348 127.5 309.5 c 128,-1,18
 100 271 100 271 100 207 c 128,-1,19
EndSplineSet
Validated: 1
EndChar

StartChar: e
Encoding: 101 101 72
Width: 399
GlyphClass: 2
Flags: W
LayerCount: 2
Fore
SplineSet
300 206 m 1024,0,-1
94.5535947095 170 m 1,1,2
 100.303436467 131.006147326 100.303436467 131.006147326 119 104 c 0,3,4
 146 65 146 65 196 65 c 0,5,6
 242 65 242 65 268 96 c 1,7,-1
 315 42 l 1,8,9
 268 -8 268 -8 196 -8 c 0,10,11
 120 -8 120 -8 70 54 c 128,-1,12
 20 116 20 116 20 206 c 128,-1,13
 20 296 20 296 70 358 c 128,-1,14
 120 420 120 420 196 420 c 128,-1,15
 272 420 272 420 322.5 357.5 c 0,16,17
 362.458948158 308.04585624 362.458948158 308.04585624 370.799727249 242 c 1,18,-1
 371 242 l 1,19,-1
 371 240.373819021 l 2,20,21
 373 223.711661986 373 223.711661986 373 206 c 2,22,-1
 373 205 l 1,23,-1
 374 170 l 1,24,-1
 371 170 l 1,25,-1
 94.5535947095 170 l 1,1,2
298.683789722 242 m 1,26,27
 293.019036234 282.173349273 293.019036234 282.173349273 273.5 309.5 c 0,28,29
 246 348 246 348 196 348 c 128,-1,30
 146 348 146 348 119 309.5 c 0,31,32
 99.8358553342 282.173349273 99.8358553342 282.173349273 94.2740973636 242 c 1,33,-1
 298.683789722 242 l 1,26,27
EndSplineSet
Validated: 1
EndChar

StartChar: f
Encoding: 102 102 73
Width: 409
GlyphClass: 2
Flags: W
LayerCount: 2
Fore
SplineSet
100 0 m 1,0,-1
 172 0 l 1,1,-1
 172 392 l 1,2,-1
 377 392 l 1,3,-1
 377 464 l 1,4,-1
 172 464 l 1,5,-1
 172 621 l 2,6,7
 173 663 173 663 194 704.5 c 128,-1,8
 215 746 215 746 238 746 c 0,9,10
 270 746 270 746 297.5 717.5 c 128,-1,11
 325 689 325 689 339 647 c 1,12,-1
 410 687 l 1,13,14
 316 817 316 817 238 818 c 0,15,16
 187 819 187 819 142.5 763 c 128,-1,17
 98 707 98 707 98 623 c 2,18,-1
 98.5104333868 464 l 1,19,-1
 30 464 l 1,20,-1
 30 392 l 1,21,-1
 98.7415730337 392 l 1,22,-1
 100 0 l 1,0,-1
EndSplineSet
Validated: 41
EndChar

StartChar: g
Encoding: 103 103 74
Width: 409
GlyphClass: 2
Flags: W
LayerCount: 2
Fore
SplineSet
100 207 m 128,-1,1
 100 143 100 143 127.5 104 c 128,-1,2
 155 65 155 65 205 65 c 128,-1,3
 255 65 255 65 280.5 103.5 c 128,-1,4
 306 142 306 142 306 207 c 128,-1,5
 306 272 306 272 280.5 310 c 128,-1,6
 255 348 255 348 205 348 c 128,-1,7
 155 348 155 348 127.5 309.5 c 128,-1,0
 100 271 100 271 100 207 c 128,-1,1
28 206 m 128,-1,9
 28 295 28 295 78.5 357.5 c 128,-1,10
 129 420 129 420 205 420 c 0,11,12
 263.169770256 420 263.169770256 420 306 382.703862286 c 1,13,-1
 306 410 l 1,14,-1
 378 410 l 1,15,-1
 378.93352983 212.558441029 l 2,16,17
 379 209.298020159 379 209.298020159 379 206 c 0,18,19
 379 204.241980181 379 204.241980181 378.981112794 202.494644035 c 2,20,-1
 380 -13 l 2,21,22
 380 -96 380 -96 325 -153 c 128,-1,23
 270 -210 270 -210 217 -209 c 0,24,25
 165 -208 165 -208 112.5 -186 c 128,-1,26
 60 -164 60 -164 32 -125 c 1,27,-1
 91 -74 l 1,28,29
 112 -137 112 -137 217 -137 c 0,30,31
 241 -137 241 -137 273 -94 c 128,-1,32
 305 -51 305 -51 306 -11 c 2,33,-1
 306 29.2961377135 l 1,34,35
 263.169770256 -8 263.169770256 -8 205 -8 c 0,36,37
 129 -8 129 -8 78.5 54.5 c 128,-1,8
 28 117 28 117 28 206 c 128,-1,9
EndSplineSet
Validated: 33
EndChar

StartChar: h
Encoding: 104 104 75
Width: 382
GlyphClass: 2
Flags: W
LayerCount: 2
Fore
SplineSet
31 820 m 1,0,-1
 103 820 l 1,1,-1
 103 388.62754045 l 1,2,3
 155.912024841 424 155.912024841 424 205 424 c 0,4,5
 238 424 238 424 275 411 c 128,-1,6
 312 398 312 398 342.5 367.5 c 128,-1,7
 373 337 373 337 374 296 c 0,8,9
 374 293 374 293 375.5 245.5 c 128,-1,10
 377 198 377 198 378.5 128.5 c 128,-1,11
 380 59 380 59 380 0 c 1,12,-1
 308 0 l 1,13,-1
 309 284 l 2,14,15
 309 319 309 319 277 335.5 c 128,-1,16
 245 352 245 352 207 352 c 0,17,18
 173 352 173 352 151.5 339.5 c 128,-1,19
 130 327 130 327 103 297 c 1,20,-1
 103 0 l 1,21,-1
 31 0 l 1,22,-1
 31 820 l 1,0,-1
EndSplineSet
Validated: 1
EndChar

StartChar: i
Encoding: 105 105 76
Width: 133
GlyphClass: 2
Flags: W
LayerCount: 2
Fore
SplineSet
31 612 m 1,0,-1
 102 612 l 1,1,-1
 102 541 l 1,2,-1
 31 541 l 1,3,-1
 31 612 l 1,0,-1
31 414 m 1,4,-1
 102 414 l 1,5,-1
 102 0 l 1,6,-1
 31 0 l 1,7,-1
 31 414 l 1,4,-1
EndSplineSet
Validated: 1
EndChar

StartChar: j
Encoding: 106 106 77
Width: 133
GlyphClass: 2
Flags: W
LayerCount: 2
Fore
SplineSet
31 617 m 1,0,-1
 102 617 l 1,1,-1
 102 546 l 1,2,-1
 31 546 l 1,3,-1
 31 617 l 1,0,-1
102 410 m 5,4,-1
 31 410 l 5,5,-1
 31 -11 l 6,6,7
 30 -51 30 -51 -2 -94 c 132,-1,8
 -34 -137 -34 -137 -58 -137 c 4,9,10
 -163 -137 -163 -137 -184 -74 c 5,11,-1
 -244 -125 l 5,12,13
 -216 -164 -216 -164 -163 -186 c 132,-1,14
 -110 -208 -110 -208 -58 -209 c 4,15,16
 -5 -210 -5 -210 49.5 -153 c 132,-1,17
 104 -96 104 -96 104 -13 c 6,18,-1
 102 410 l 5,4,-1
EndSplineSet
Validated: 41
EndChar

StartChar: k
Encoding: 107 107 78
Width: 409
GlyphClass: 2
Flags: W
LayerCount: 2
Fore
SplineSet
31 0 m 1,0,-1
 102 0 l 1,1,-1
 102 165.747440273 l 1,2,-1
 330 0 l 1,3,-1
 376 62 l 1,4,-1
 141.791540523 230.211573989 l 1,5,-1
 386 354 l 1,6,-1
 346 418 l 1,7,-1
 102 295.580756014 l 1,8,-1
 102 819 l 1,9,-1
 31 819 l 1,10,-1
 31 0 l 1,0,-1
EndSplineSet
Validated: 9
EndChar

StartChar: l
Encoding: 108 108 79
Width: 204
GlyphClass: 2
Flags: W
LayerCount: 2
Fore
SplineSet
31 819 m 1,0,-1
 103 819 l 1,1,-1
 103 194 l 2,2,3
 104 154 104 154 136 111 c 128,-1,4
 168 68 168 68 192 68 c 0,5,6
 244 68 244 68 272 90 c 1,7,-1
 295 27 l 1,8,9
 256 7 256 7 239 1.5 c 128,-1,10
 222 -4 222 -4 192 -4 c 0,11,12
 138 -4 138 -4 83.5 52.5 c 128,-1,13
 29 109 29 109 29 191 c 2,14,-1
 31 819 l 1,0,-1
EndSplineSet
Validated: 1
EndChar

StartChar: m
Encoding: 109 109 80
Width: 614
GlyphClass: 2
Flags: W
LayerCount: 2
Fore
SplineSet
31 414 m 1,0,-1
 102 414 l 1,1,-1
 102 393.043102525 l 1,2,3
 102.84601382 393.626293611 102.84601382 393.626293611 103.5 394 c 0,4,5
 107 396 107 396 115 402 c 128,-1,6
 123 408 123 408 128 410 c 128,-1,7
 133 412 133 412 141 415.5 c 128,-1,8
 149 419 149 419 156 420.5 c 128,-1,9
 163 422 163 422 171.5 423 c 128,-1,10
 180 424 180 424 189 424 c 0,11,12
 241 424 241 424 285 400.5 c 0,13,14
 303.977770379 390.364145366 303.977770379 390.364145366 317.374614592 375.298472618 c 1,15,16
 320.483445169 378.207506817 320.483445169 378.207506817 327 384 c 0,17,18
 336 392 336 392 339.5 394 c 128,-1,19
 343 396 343 396 351 402 c 128,-1,20
 359 408 359 408 364 410 c 128,-1,21
 369 412 369 412 377 415.5 c 128,-1,22
 385 419 385 419 392 420.5 c 128,-1,23
 399 422 399 422 407.5 423 c 128,-1,24
 416 424 416 424 425 424 c 0,25,26
 477 424 477 424 521 400.5 c 128,-1,27
 565 377 565 377 579 327 c 0,28,29
 584 308 584 308 584 0 c 1,30,-1
 512 0 l 1,31,-1
 512 301 l 2,32,33
 512 323 512 323 498 335 c 128,-1,34
 484 347 484 347 468.5 349.5 c 128,-1,35
 453 352 453 352 427 352 c 0,36,37
 413 352 413 352 403 350.5 c 128,-1,38
 393 349 393 349 383 342 c 128,-1,39
 373 335 373 335 369.5 332 c 128,-1,40
 366 329 366 329 354 315.5 c 0,41,42
 348.679694245 309.514656025 348.679694245 309.514656025 344.931924786 305.200131865 c 0,43,44
 348 241.267439613 348 241.267439613 348 0 c 1,45,-1
 276 0 l 1,46,-1
 276 301 l 2,47,48
 276 323 276 323 262 335 c 128,-1,49
 248 347 248 347 232.5 349.5 c 128,-1,50
 217 352 217 352 191 352 c 0,51,52
 177 352 177 352 167 350.5 c 128,-1,53
 157 349 157 349 147 342 c 128,-1,54
 137 335 137 335 133.5 332 c 128,-1,55
 130 329 130 329 118 315.5 c 128,-1,56
 106 302 106 302 102 297 c 1,57,-1
 102 0 l 1,58,-1
 31 0 l 1,59,-1
 31 414 l 1,0,-1
EndSplineSet
Validated: 1
EndChar

StartChar: n
Encoding: 110 110 81
Width: 409
GlyphClass: 2
Flags: W
LayerCount: 2
Fore
SplineSet
31 414 m 1,0,-1
 102 414 l 1,1,-1
 102 388.564095987 l 1,2,3
 155.176022487 424 155.176022487 424 205 424 c 0,4,5
 259 424 259 424 309.5 400.5 c 128,-1,6
 360 377 360 377 374 327 c 0,7,8
 379 308 379 308 379 0 c 1,9,-1
 307 0 l 1,10,-1
 307 301 l 2,11,12
 306 352 306 352 207 352 c 0,13,14
 173 352 173 352 151 339 c 128,-1,15
 129 326 129 326 102 297 c 1,16,-1
 102 0 l 1,17,-1
 31 0 l 1,18,-1
 31 414 l 1,0,-1
EndSplineSet
Validated: 1
EndChar

StartChar: o
Encoding: 111 111 82
Width: 409
GlyphClass: 2
Flags: W
LayerCount: 2
Fore
SplineSet
28 206 m 128,-1,1
 28 295 28 295 78.5 357.5 c 128,-1,2
 129 420 129 420 205 420 c 128,-1,3
 281 420 281 420 331.5 357.5 c 128,-1,4
 382 295 382 295 382 206 c 128,-1,5
 382 117 382 117 331.5 54.5 c 128,-1,6
 281 -8 281 -8 205 -8 c 128,-1,7
 129 -8 129 -8 78.5 54.5 c 128,-1,0
 28 117 28 117 28 206 c 128,-1,1
100 207 m 128,-1,9
 100 143 100 143 127.5 104 c 128,-1,10
 155 65 155 65 205 65 c 128,-1,11
 255 65 255 65 282 104 c 128,-1,12
 309 143 309 143 309 207 c 128,-1,13
 309 271 309 271 282 309.5 c 128,-1,14
 255 348 255 348 205 348 c 128,-1,15
 155 348 155 348 127.5 309.5 c 128,-1,8
 100 271 100 271 100 207 c 128,-1,9
EndSplineSet
Validated: 1
EndChar

StartChar: p
Encoding: 112 112 83
Width: 409
GlyphClass: 2
Flags: W
LayerCount: 2
Fore
SplineSet
102 -205 m 1,0,-1
 31 -205 l 1,1,-1
 31 175.12 l 2,2,3
 29 192 29 192 29 210 c 128,-1,4
 29 227.8 29 227.8 31 244.52 c 2,5,-1
 31 416 l 1,6,-1
 102 416 l 1,7,-1
 102 385.054476639 l 1,8,9
 145.543680586 423 145.543680586 423 205 423 c 0,10,11
 281 423 281 423 331.5 361 c 128,-1,12
 382 299 382 299 382 210 c 128,-1,13
 382 121 382 121 331.5 58.5 c 128,-1,14
 281 -4 281 -4 205 -4 c 0,15,16
 145.543680586 -4 145.543680586 -4 102 33.9455233615 c 1,17,-1
 102 -205 l 1,0,-1
309 209 m 128,-1,19
 309 273 309 273 282 312 c 128,-1,20
 255 351 255 351 205 351 c 128,-1,21
 155 351 155 351 127.5 312 c 0,22,23
 107.416198487 283.517517854 107.416198487 283.517517854 102 241.70085114 c 1,24,-1
 102 176.335512496 l 1,25,26
 107.416198487 134.617322118 107.416198487 134.617322118 127.5 106.5 c 0,27,28
 155 68 155 68 205 68 c 128,-1,29
 255 68 255 68 282 106.5 c 128,-1,18
 309 145 309 145 309 209 c 128,-1,19
EndSplineSet
Validated: 1
EndChar

StartChar: q
Encoding: 113 113 84
Width: 409
GlyphClass: 2
Flags: W
LayerCount: 2
Fore
SplineSet
307 -205 m 1,0,-1
 379 -205 l 1,1,-1
 379 175.12 l 2,2,3
 381 192 381 192 381 210 c 128,-1,4
 381 227.8 381 227.8 379 244.52 c 2,5,-1
 379 416 l 1,6,-1
 307 416 l 1,7,-1
 307 385.919109373 l 1,8,9
 263.775025454 423 263.775025454 423 205 423 c 0,10,11
 129 423 129 423 78.5 361 c 128,-1,12
 28 299 28 299 28 210 c 128,-1,13
 28 121 28 121 78.5 58.5 c 128,-1,14
 129 -4 129 -4 205 -4 c 0,15,16
 263.775025454 -4 263.775025454 -4 307 33.080890627 c 1,17,-1
 307 -205 l 1,0,-1
100 209 m 128,-1,19
 100 273 100 273 127.5 312 c 128,-1,20
 155 351 155 351 205 351 c 128,-1,21
 255 351 255 351 282 312 c 0,22,23
 301.651530772 283.614455552 301.651530772 283.614455552 307 241.985335601 c 1,24,-1
 307 176.051701436 l 1,25,26
 301.651530772 134.521627211 301.651530772 134.521627211 282 106.5 c 0,27,28
 255 68 255 68 205 68 c 128,-1,29
 155 68 155 68 127.5 106.5 c 128,-1,18
 100 145 100 145 100 209 c 128,-1,19
EndSplineSet
Validated: 9
EndChar

StartChar: r
Encoding: 114 114 85
Width: 409
GlyphClass: 2
Flags: W
LayerCount: 2
Fore
SplineSet
31 414 m 1,0,-1
 102 414 l 1,1,-1
 102 388.564095987 l 1,2,3
 155.176022487 424 155.176022487 424 205 424 c 0,4,5
 248 424 248 424 296 399 c 128,-1,6
 344 374 344 374 377 336 c 1,7,-1
 323 298 l 1,8,9
 269 352 269 352 207 352 c 0,10,11
 173 352 173 352 151 339 c 128,-1,12
 129 326 129 326 102 297 c 1,13,-1
 102 0 l 1,14,-1
 31 0 l 1,15,-1
 31 414 l 1,0,-1
EndSplineSet
Validated: 1
EndChar

StartChar: s
Encoding: 115 115 86
Width: 409
GlyphClass: 2
Flags: W
LayerCount: 2
Fore
SplineSet
310 124 m 0,0,1
 310 94 310 94 282.5 75 c 128,-1,2
 255 56 255 56 213 56 c 0,3,4
 188 56 188 56 163 61.5 c 128,-1,5
 138 67 138 67 96.5 80.5 c 128,-1,6
 55 94 55 94 52 95 c 1,7,-1
 31 29 l 1,8,9
 42 26 42 26 66.5 19 c 128,-1,10
 91 12 91 12 104 8.5 c 128,-1,11
 117 5 117 5 137.5 0.5 c 128,-1,12
 158 -4 158 -4 177 -6 c 128,-1,13
 196 -8 196 -8 216 -8 c 0,14,15
 281 -8 281 -8 330 24 c 128,-1,16
 379 56 379 56 382 124 c 0,17,18
 383 141 383 141 378 155.5 c 128,-1,19
 373 170 373 170 366.5 180 c 128,-1,20
 360 190 360 190 345.5 199.5 c 128,-1,21
 331 209 331 209 321.5 214.5 c 128,-1,22
 312 220 312 220 292 226.5 c 128,-1,23
 272 233 272 233 263 235 c 128,-1,24
 254 237 254 237 232 242.5 c 128,-1,25
 210 248 210 248 205 249 c 0,26,27
 192 252 192 252 171 256 c 128,-1,28
 150 260 150 260 140.5 262.5 c 128,-1,29
 131 265 131 265 119.5 271 c 128,-1,30
 108 277 108 277 103 286.5 c 128,-1,31
 98 296 98 296 98 311 c 0,32,33
 98 327 98 327 107 336.5 c 128,-1,34
 116 346 116 346 135 349.5 c 128,-1,35
 154 353 154 353 167 354 c 128,-1,36
 180 355 180 355 203 355 c 0,37,38
 260 355 260 355 342 313 c 1,39,-1
 374 376 l 1,40,41
 364 380 364 380 339 392 c 128,-1,42
 314 404 314 404 299 410 c 128,-1,43
 284 416 284 416 257 421.5 c 128,-1,44
 230 427 230 427 202 427 c 0,45,46
 135 427 135 427 81 397.5 c 128,-1,47
 27 368 27 368 27 313 c 0,48,49
 27 256 27 256 69 227.5 c 128,-1,50
 111 199 111 199 185 182 c 0,51,52
 193 180 193 180 208 177 c 0,53,54
 237 171 237 171 250.5 167.5 c 128,-1,55
 264 164 264 164 280.5 157.5 c 128,-1,56
 297 151 297 151 303.5 143 c 128,-1,57
 310 135 310 135 310 124 c 0,0,1
EndSplineSet
Validated: 9
EndChar

StartChar: t
Encoding: 116 116 87
Width: 409
GlyphClass: 2
Flags: W
LayerCount: 2
Fore
SplineSet
100 614 m 1,0,-1
 172 614 l 1,1,-1
 172 442 l 1,2,-1
 377 442 l 1,3,-1
 377 371 l 1,4,-1
 172 371 l 1,5,-1
 172 196 l 2,6,7
 173 154 173 154 194 112 c 128,-1,8
 215 70 215 70 238 70 c 0,9,10
 270 70 270 70 288 84.5 c 128,-1,11
 306 99 306 99 331 136 c 1,12,-1
 380 82 l 1,13,14
 349 50 349 50 335 37 c 128,-1,15
 321 24 321 24 294.5 11 c 128,-1,16
 268 -2 268 -2 238 -2 c 0,17,18
 187 -3 187 -3 142.5 53.5 c 128,-1,19
 98 110 98 110 98 194 c 2,20,-1
 98.8428571429 371 l 1,21,-1
 27 371 l 1,22,-1
 27 442 l 1,23,-1
 99.180952381 442 l 1,24,-1
 100 614 l 1,0,-1
EndSplineSet
Validated: 33
EndChar

StartChar: u
Encoding: 117 117 88
Width: 409
GlyphClass: 2
Flags: W
LayerCount: 2
Fore
SplineSet
379 0 m 1,0,-1
 307 0 l 1,1,-1
 307 24.6121491324 l 1,2,3
 254.577582912 -10 254.577582912 -10 205 -10 c 0,4,5
 151 -10 151 -10 100.5 13.5 c 128,-1,6
 50 37 50 37 36 87 c 0,7,8
 31 106 31 106 31 414 c 1,9,-1
 102 414 l 1,10,-1
 102 113 l 2,11,12
 103 61 103 61 203 61 c 0,13,14
 237 61 237 61 258 74 c 128,-1,15
 279 87 279 87 307 117 c 1,16,-1
 307 414 l 1,17,-1
 379 414 l 1,18,-1
 379 0 l 1,0,-1
EndSplineSet
Validated: 1
EndChar

StartChar: v
Encoding: 118 118 89
Width: 409
GlyphClass: 2
Flags: W
LayerCount: 2
Fore
SplineSet
29 398 m 1,0,-1
 99 423 l 1,1,-1
 194 123 l 1,2,-1
 311 420 l 1,3,-1
 379 391 l 1,4,-1
 224 0 l 1,5,-1
 158 0 l 1,6,-1
 29 398 l 1,0,-1
EndSplineSet
Validated: 1
EndChar

StartChar: w
Encoding: 119 119 90
Width: 614
GlyphClass: 2
Flags: W
LayerCount: 2
Fore
SplineSet
29 398 m 1,0,-1
 99 423 l 1,1,-1
 178 123 l 1,2,-1
 275 420 l 1,3,-1
 347 420 l 1,4,-1
 450 123 l 1,5,-1
 521 423 l 1,6,-1
 583 398 l 1,7,-1
 485 0 l 1,8,-1
 419 0 l 1,9,-1
 311.765957447 312.765957447 l 1,10,-1
 209 0 l 1,11,-1
 142 0 l 1,12,-1
 29 398 l 1,0,-1
EndSplineSet
Validated: 1
EndChar

StartChar: x
Encoding: 120 120 91
Width: 409
GlyphClass: 2
Flags: W
LayerCount: 2
Fore
SplineSet
32 383 m 1,0,-1
 82 430 l 1,1,-1
 211 266 l 1,2,-1
 331 430 l 1,3,-1
 377 385 l 1,4,-1
 254 211 l 1,5,-1
 377 49 l 1,6,-1
 325 0 l 1,7,-1
 206 158 l 1,8,-1
 86 0 l 1,9,-1
 32 47 l 1,10,-1
 163 214 l 1,11,-1
 32 383 l 1,0,-1
EndSplineSet
Validated: 1
EndChar

StartChar: y
Encoding: 121 121 92
Width: 409
GlyphClass: 2
Flags: W
LayerCount: 2
Fore
SplineSet
31 410 m 1,0,-1
 101 410 l 5,1,-1
 101 119 l 6,2,3
 101 90 101 90 133.5 72 c 0,4,5
 161 57 161 57 200 57 c 0,6,7
 238 57 238 57 260.5 74.5 c 128,-1,8
 283 92 283 92 307 127 c 1,9,-1
 307 410 l 1,10,-1
 379 410 l 1,11,-1
 379 -51 l 2,12,13
 379 -124 379 -124 332.5 -165.5 c 128,-1,14
 286 -207 286 -207 215 -207 c 0,15,16
 195 -207 195 -207 175.5 -202.5 c 128,-1,17
 156 -198 156 -198 143 -193.5 c 128,-1,18
 130 -189 130 -189 110 -176.5 c 128,-1,19
 90 -164 90 -164 83 -159 c 128,-1,20
 76 -154 76 -154 52.5 -136 c 128,-1,21
 29 -118 29 -118 25 -115 c 1,22,-1
 68 -58 l 1,23,24
 94 -86 94 -86 109 -99 c 128,-1,25
 124 -112 124 -112 149 -122.5 c 128,-1,26
 174 -133 174 -133 203 -133 c 0,27,28
 255 -133 255 -133 279.5 -120.5 c 0,29,30
 307 -106 307 -106 307 -66 c 2,31,-1
 307 44 l 1,32,33
 268 11 268 11 252 3.5 c 128,-1,34
 236 -4 236 -4 197 -4 c 0,35,36
 140 -4 140 -4 86 32 c 0,37,38
 31 69 31 69 31 118 c 2,39,-1
 31 410 l 1,0,-1
EndSplineSet
EndChar

StartChar: z
Encoding: 122 122 93
Width: 409
GlyphClass: 2
Flags: W
LayerCount: 2
Fore
SplineSet
31 410 m 1,0,-1
 31 338 l 1,1,-1
 293 338 l 1,2,-1
 27 90 l 1,3,-1
 31 0 l 1,4,-1
 379 0 l 1,5,-1
 379 72 l 1,6,-1
 90 65 l 1,7,-1
 379 338 l 1,8,-1
 379 411 l 1,9,-1
 31 410 l 1,0,-1
EndSplineSet
Validated: 9
EndChar

StartChar: braceleft
Encoding: 123 123 94
Width: 409
GlyphClass: 2
Flags: W
LayerCount: 2
Fore
SplineSet
298 616 m 1,0,-1
 331 554 l 1,1,2
 285 540 285 540 242 511 c 0,3,4
 199 484 199 484 201 438 c 2,5,-1
 203 360 l 1,6,-1
 91 302 l 1,7,-1
 210 229 l 1,8,-1
 216 127 l 2,9,10
 217 93 217 93 250 70 c 0,11,12
 267 58 267 58 336 58 c 1,13,-1
 313 -10 l 2,14,15
 311 -10 311 -10 301.5 -10 c 128,-1,16
 292 -10 292 -10 289.5 -9.5 c 128,-1,17
 287 -9 287 -9 278.5 -9 c 128,-1,18
 270 -9 270 -9 267 -8.5 c 128,-1,19
 264 -8 264 -8 256.5 -7 c 128,-1,20
 249 -6 249 -6 245.5 -5 c 128,-1,21
 242 -4 242 -4 235.5 -2.5 c 128,-1,22
 229 -1 229 -1 224.5 1 c 128,-1,23
 220 3 220 3 214.5 6 c 128,-1,24
 209 9 209 9 204 12 c 0,25,26
 149 46 149 46 144 117 c 1,27,-1
 144 193 l 1,28,-1
 23 270 l 1,29,-1
 23 342 l 1,30,-1
 129 397 l 1,31,-1
 129 438 l 1,32,33
 134 476 134 476 140.5 492.5 c 128,-1,34
 147 509 147 509 167 539 c 0,35,36
 179 556 179 556 196 569 c 128,-1,37
 213 582 213 582 223 587 c 128,-1,38
 233 592 233 592 261 602 c 128,-1,39
 289 612 289 612 298 616 c 1,0,-1
EndSplineSet
Validated: 33
EndChar

StartChar: bar
Encoding: 124 124 95
Width: 133
GlyphClass: 2
Flags: W
LayerCount: 2
Fore
SplineSet
31 820 m 1,0,-1
 103 820 l 1,1,-1
 103 0 l 1,2,-1
 31 0 l 1,3,-1
 31 820 l 1,0,-1
EndSplineSet
Validated: 1
EndChar

StartChar: braceright
Encoding: 125 125 96
Width: 409
GlyphClass: 2
Flags: W
LayerCount: 2
Fore
SplineSet
116 616 m 1,0,-1
 83 554 l 1,1,2
 129 540 129 540 172 511 c 0,3,4
 215 484 215 484 213 438 c 2,5,-1
 211 360 l 1,6,-1
 323 302 l 1,7,-1
 204 229 l 1,8,-1
 198 127 l 2,9,10
 197 93 197 93 164 70 c 0,11,12
 147 58 147 58 78 58 c 1,13,-1
 100 -10 l 2,14,15
 102 -10 102 -10 111.5 -10 c 128,-1,16
 121 -10 121 -10 123.5 -9.5 c 128,-1,17
 126 -9 126 -9 134.5 -9 c 128,-1,18
 143 -9 143 -9 146 -8.5 c 128,-1,19
 149 -8 149 -8 156.5 -7 c 128,-1,20
 164 -6 164 -6 168 -5 c 128,-1,21
 172 -4 172 -4 178.5 -2.5 c 128,-1,22
 185 -1 185 -1 189.5 1 c 128,-1,23
 194 3 194 3 199.5 6 c 128,-1,24
 205 9 205 9 210 12 c 0,25,26
 264 45 264 45 269 117 c 1,27,-1
 269 193 l 1,28,-1
 391 270 l 1,29,-1
 391 342 l 1,30,-1
 285 397 l 1,31,-1
 285 438 l 1,32,33
 280 476 280 476 273.5 492.5 c 128,-1,34
 267 509 267 509 247 539 c 0,35,36
 235 556 235 556 218 569 c 128,-1,37
 201 582 201 582 191 587 c 128,-1,38
 181 592 181 592 153 602 c 128,-1,39
 125 612 125 612 116 616 c 1,0,-1
EndSplineSet
Validated: 41
EndChar

StartChar: asciitilde
Encoding: 126 126 97
Width: 409
GlyphClass: 2
Flags: W
LayerCount: 2
Fore
SplineSet
31 295 m 5,0,-1
 57 228 l 5,1,2
 65 233 65 233 80 242.5 c 132,-1,3
 95 252 95 252 103 257 c 132,-1,4
 111 262 111 262 124 266 c 132,-1,5
 137 270 137 270 150 270 c 4,6,7
 168 270 168 270 208 236.5 c 132,-1,8
 248 203 248 203 271 203 c 4,9,10
 308 203 308 203 386 272 c 5,11,-1
 371 343 l 5,12,13
 367 340 367 340 343 319.5 c 132,-1,14
 319 299 319 299 300 286.5 c 132,-1,15
 281 274 281 274 269 274 c 4,16,17
 253 274 253 274 214 308 c 132,-1,18
 175 342 175 342 150 342 c 4,19,20
 99 342 99 342 31 295 c 5,0,-1
EndSplineSet
Validated: 9
EndChar

StartChar: uniFB00
Encoding: 64256 64256 98
Width: 614
GlyphClass: 3
LigCaretCntFixed: 1
Flags: W
LayerCount: 2
Fore
SplineSet
324 0 m 1,0,-1
 395 0 l 1,1,-1
 395 392 l 1,2,-1
 600 392 l 1,3,-1
 600 464 l 1,4,-1
 395 464 l 1,5,-1
 395 621 l 2,6,7
 395 650 395 650 409 687 c 1,8,-1
 410 687 l 1,9,10
 410 687 410 687 409 688 c 0,11,12
 432 746 432 746 461 746 c 0,13,14
 493 746 493 746 520.5 717.5 c 128,-1,15
 548 689 548 689 562 647 c 1,16,-1
 633 687 l 1,17,18
 539 817 539 817 461 818 c 0,19,20
 434 819 434 819 406 801 c 128,-1,21
 378 783 378 783 357 750 c 1,22,23
 292 817 292 817 238 818 c 0,24,25
 187 819 187 819 142.5 763 c 128,-1,26
 98 707 98 707 98 623 c 2,27,-1
 99 464 l 1,28,-1
 30 464 l 1,29,-1
 30 392 l 1,30,-1
 99 392 l 1,31,-1
 100 0 l 1,32,-1
 172 0 l 1,33,-1
 172 392 l 1,34,-1
 253 392 l 1,35,-1
 322 392 l 1,36,-1
 324 0 l 1,0,-1
327 676 m 1,37,38
 322 648 322 648 322 623 c 2,39,-1
 322 464 l 1,40,-1
 253 464 l 1,41,-1
 172 464 l 1,42,-1
 172 621 l 2,43,44
 173 663 173 663 194 704.5 c 128,-1,45
 215 746 215 746 238 746 c 0,46,47
 290 746 290 746 327 676 c 1,37,38
EndSplineSet
Validated: 41
Ligature2: "Ligature Substitution lookup 0 subtable" f f
LCarets2: 1 309
EndChar

StartChar: uniFB01
Encoding: 64257 64257 99
Width: 440
GlyphClass: 3
LigCaretCntFixed: 1
Flags: W
LayerCount: 2
Fore
SplineSet
100 0 m 1,0,-1
 172 0 l 1,1,-1
 172 392 l 1,2,-1
 348 392 l 1,3,-1
 348 0 l 1,4,-1
 420 0 l 1,5,-1
 420 464 l 1,6,-1
 377 464 l 1,7,-1
 348 464 l 1,8,-1
 172 464 l 1,9,-1
 172 621 l 2,10,11
 173 663 173 663 194 704.5 c 128,-1,12
 215 746 215 746 238 746 c 0,13,14
 270 746 270 746 297.5 717.5 c 128,-1,15
 325 689 325 689 339 647 c 1,16,-1
 410 687 l 1,17,18
 316 817 316 817 238 818 c 0,19,20
 187 819 187 819 142.5 763 c 128,-1,21
 98 707 98 707 98 623 c 2,22,-1
 99 464 l 1,23,-1
 30 464 l 1,24,-1
 30 392 l 1,25,-1
 99 392 l 1,26,-1
 100 0 l 1,0,-1
EndSplineSet
Validated: 41
Ligature2: "Ligature Substitution lookup 0 subtable" f i
LCarets2: 1 330
EndChar

StartChar: uniFB02
Encoding: 64258 64258 100
Width: 512
GlyphClass: 3
LigCaretCntFixed: 1
Flags: W
LayerCount: 2
Fore
SplineSet
100 0 m 1,0,-1
 172 0 l 1,1,-1
 172 392 l 1,2,-1
 337 392 l 1,3,-1
 336 188 l 2,4,5
 336 106 336 106 390.5 49.5 c 128,-1,6
 445 -7 445 -7 499 -7 c 0,7,8
 529 -7 529 -7 546 -1.5 c 128,-1,9
 563 4 563 4 602 24 c 1,10,-1
 580 87 l 1,11,12
 552 65 552 65 499 65 c 0,13,14
 475 65 475 65 443 107.5 c 128,-1,15
 411 150 411 150 410 190 c 2,16,-1
 410 688 l 1,17,-1
 409 688 l 1,18,19
 315 817 315 817 238 818 c 0,20,21
 187 819 187 819 142.5 763 c 128,-1,22
 98 707 98 707 98 623 c 2,23,-1
 99 464 l 1,24,-1
 30 464 l 1,25,-1
 30 392 l 1,26,-1
 99 392 l 1,27,-1
 100 0 l 1,0,-1
338 649 m 1,28,-1
 338 464 l 1,29,-1
 172 464 l 1,30,-1
 172 621 l 2,31,32
 173 663 173 663 194 704.5 c 128,-1,33
 215 746 215 746 238 746 c 0,34,35
 270 746 270 746 296.5 718.5 c 128,-1,36
 323 691 323 691 338 649 c 1,28,-1
EndSplineSet
Validated: 41
Ligature2: "Ligature Substitution lookup 0 subtable" f l
LCarets2: 1 324
EndChar

StartChar: gravecomb
Encoding: 768 768 101
Width: 409
Flags: W
LayerCount: 2
Fore
SplineSet
63.232421875 670.318359375 m 5,0,-1
 378.595703125 560.30859375 l 5,1,-1
 352 495 l 1,2,-1
 36.63671875 605.010742188 l 1,3,-1
 63.232421875 670.318359375 l 5,0,-1
EndSplineSet
Validated: 1
EndChar

StartChar: acutecomb
Encoding: 769 769 102
Width: 409
Flags: W
LayerCount: 2
Fore
SplineSet
63.232421875 471.681640625 m 5,0,-1
 378.595703125 581.69140625 l 5,1,-1
 352 647 l 5,2,-1
 36.63671875 536.989257812 l 5,3,-1
 63.232421875 471.681640625 l 5,0,-1
EndSplineSet
Validated: 9
EndChar

StartChar: uni0302
Encoding: 770 770 103
Width: 409
Flags: W
LayerCount: 2
Fore
SplineSet
43 535 m 5,0,-1
 105 507 l 5,1,-1
 198 698 l 5,2,-1
 311 508 l 5,3,-1
 371 545 l 5,4,-1
 223 784 l 5,5,-1
 166 784 l 5,6,-1
 43 535 l 5,0,-1
EndSplineSet
Validated: 9
EndChar

StartChar: uni0304
Encoding: 772 772 104
Width: 409
Flags: W
LayerCount: 2
Fore
SplineSet
30 609 m 1,0,-1
 370 609 l 5,1,-1
 370 539 l 5,2,-1
 30 539 l 1,3,-1
 30 609 l 1,0,-1
EndSplineSet
Validated: 1
EndChar

StartChar: uni0305
Encoding: 773 773 105
Width: 409
Flags: W
LayerCount: 2
Fore
SplineSet
0 609 m 1,0,-1
 409 609 l 5,1,-1
 409 539 l 5,2,-1
 0 539 l 1,3,-1
 0 609 l 1,0,-1
EndSplineSet
Validated: 1
EndChar

StartChar: uni030C
Encoding: 780 780 106
Width: 409
Flags: W
LayerCount: 2
Fore
SplineSet
43 733 m 5,0,-1
 105 761 l 5,1,-1
 198 570 l 5,2,-1
 311 760 l 5,3,-1
 371 723 l 5,4,-1
 223 484 l 5,5,-1
 166 484 l 5,6,-1
 43 733 l 5,0,-1
EndSplineSet
Validated: 1
EndChar

StartChar: dotlessi
Encoding: 305 305 107
Width: 133
Flags: W
LayerCount: 2
Fore
SplineSet
31 414 m 1,0,-1
 102 414 l 1,1,-1
 102 0 l 1,2,-1
 31 0 l 1,3,-1
 31 414 l 1,0,-1
EndSplineSet
Validated: 1
EndChar

StartChar: uni0237
Encoding: 567 567 159
Width: 133
Flags: W
LayerCount: 2
Fore
SplineSet
102 410 m 1,0,-1
 31 410 l 1,1,-1
 31 -11 l 2,2,3
 30 -51 30 -51 -2 -94 c 128,-1,4
 -34 -137 -34 -137 -58 -137 c 0,5,6
 -163 -137 -163 -137 -184 -74 c 1,7,-1
 -244 -125 l 1,8,9
 -216 -164 -216 -164 -163 -186 c 128,-1,10
 -110 -208 -110 -208 -58 -209 c 0,11,12
 -5 -210 -5 -210 49.5 -153 c 128,-1,13
 104 -96 104 -96 104 -13 c 2,14,-1
 102 410 l 1,0,-1
EndSplineSet
Validated: 41
EndChar

StartChar: uni0308
Encoding: 776 776 216
Width: 409
Flags: W
LayerCount: 2
Fore
SplineSet
254 538 m 5,0,-1
 325 538 l 5,1,-1
 325 467 l 5,2,-1
 254 467 l 5,3,-1
 254 538 l 5,0,-1
85 538 m 5,4,-1
 156 538 l 5,5,-1
 156 467 l 5,6,-1
 85 467 l 5,7,-1
 85 538 l 5,4,-1
85 538 m 5,8,-1
 156 538 l 5,9,-1
 156 467 l 5,10,-1
 85 467 l 5,11,-1
 85 538 l 5,8,-1
EndSplineSet
Validated: 5
EndChar

StartChar: tildecomb
Encoding: 771 771 234
Width: 409
Flags: W
LayerCount: 2
Fore
SplineSet
31 564 m 5,0,-1
 57 497 l 5,1,2
 65 502 65 502 80 511.5 c 132,-1,3
 95 521 95 521 103 526 c 132,-1,4
 111 531 111 531 124 535 c 132,-1,5
 137 539 137 539 150 539 c 4,6,7
 168 539 168 539 208 505.5 c 132,-1,8
 248 472 248 472 271 472 c 4,9,10
 308 472 308 472 386 541 c 5,11,-1
 371 612 l 5,12,13
 367 609 367 609 343 588.5 c 132,-1,14
 319 568 319 568 300 555.5 c 132,-1,15
 281 543 281 543 269 543 c 4,16,17
 253 543 253 543 214 577 c 132,-1,18
 175 611 175 611 150 611 c 4,19,20
 99 611 99 611 31 564 c 5,0,-1
EndSplineSet
Validated: 9
EndChar

StartChar: uni0307
Encoding: 775 775 258
Width: 409
Flags: W
LayerCount: 2
Fore
SplineSet
162 538 m 5,0,-1
 233 538 l 5,1,-1
 233 467 l 5,2,-1
 162 467 l 5,3,-1
 162 538 l 5,0,-1
162 538 m 5,4,-1
 233 538 l 5,5,-1
 233 467 l 5,6,-1
 162 467 l 5,7,-1
 162 538 l 5,4,-1
EndSplineSet
Validated: 5
EndChar

StartChar: dotbelowcomb
Encoding: 803 803 268
Width: 409
Flags: W
LayerCount: 2
Fore
SplineSet
162 -61 m 5,0,-1
 233 -61 l 5,1,-1
 233 -132 l 5,2,-1
 162 -132 l 5,3,-1
 162 -61 l 5,0,-1
162 -61 m 5,4,-1
 233 -61 l 5,5,-1
 233 -132 l 5,6,-1
 162 -132 l 5,7,-1
 162 -61 l 5,4,-1
EndSplineSet
Validated: 5
EndChar

StartChar: uni0261
Encoding: 609 609 276
Width: 409
Flags: W
LayerCount: 2
Fore
SplineSet
100 207 m 128,-1,1
 100 143 100 143 127.5 104 c 128,-1,2
 155 65 155 65 205 65 c 128,-1,3
 255 65 255 65 280.5 103.5 c 128,-1,4
 306 142 306 142 306 207 c 128,-1,5
 306 272 306 272 280.5 310 c 128,-1,6
 255 348 255 348 205 348 c 128,-1,7
 155 348 155 348 127.5 309.5 c 128,-1,0
 100 271 100 271 100 207 c 128,-1,1
28 206 m 128,-1,9
 28 295 28 295 78.5 357.5 c 128,-1,10
 129 420 129 420 205 420 c 0,11,12
 263.169770256 420 263.169770256 420 306 382.703862286 c 1,13,-1
 306 410 l 1,14,-1
 378 410 l 1,15,-1
 378.93352983 212.558441029 l 2,16,17
 379 209.298020159 379 209.298020159 379 206 c 0,18,19
 379 204.241980181 379 204.241980181 378.981112794 202.494644035 c 2,20,-1
 380 -13 l 2,21,22
 380 -96 380 -96 325 -153 c 128,-1,23
 270 -210 270 -210 217 -209 c 0,24,25
 165 -208 165 -208 112.5 -186 c 128,-1,26
 60 -164 60 -164 32 -125 c 1,27,-1
 91 -74 l 1,28,29
 112 -137 112 -137 217 -137 c 0,30,31
 241 -137 241 -137 273 -94 c 128,-1,32
 305 -51 305 -51 306 -11 c 2,33,-1
 306 29.2961377135 l 1,34,35
 263.169770256 -8 263.169770256 -8 205 -8 c 0,36,37
 129 -8 129 -8 78.5 54.5 c 128,-1,8
 28 117 28 117 28 206 c 128,-1,9
EndSplineSet
Validated: 33
EndChar

StartChar: uni030F
Encoding: 783 783 278
Width: 409
Flags: W
LayerCount: 2
Fore
SplineSet
220.232421875 681.318359375 m 1,0,-1
 397.595703125 555.30859375 l 1,1,-1
 352 497 l 5,2,-1
 178.63671875 623.010742188 l 5,3,-1
 220.232421875 681.318359375 l 1,0,-1
59.232421875 681.318359375 m 1,4,-1
 236.595703125 555.30859375 l 1,5,-1
 191 497 l 1,6,-1
 17.63671875 623.010742188 l 1,7,-1
 59.232421875 681.318359375 l 1,4,-1
EndSplineSet
Validated: 1
EndChar

StartChar: uni030B
Encoding: 779 779 289
Width: 409
Flags: W
LayerCount: 2
Fore
SplineSet
217.232421875 478.681640625 m 5,0,-1
 394.595703125 604.69140625 l 5,1,-1
 351 661 l 1,2,-1
 177.63671875 534.989257812 l 1,3,-1
 217.232421875 478.681640625 l 5,0,-1
56.232421875 477.681640625 m 1,4,-1
 233.595703125 603.69140625 l 1,5,-1
 190 661 l 1,6,-1
 16.63671875 534.989257812 l 1,7,-1
 56.232421875 477.681640625 l 1,4,-1
EndSplineSet
Validated: 9
EndChar

StartChar: exclamdown
Encoding: 161 161 294
Width: 133
Flags: W
LayerCount: 2
Fore
SplineSet
31 1 m 5,0,-1
 102 1 l 5,1,-1
 102 459 l 5,2,-1
 31 459 l 5,3,-1
 31 1 l 5,0,-1
31 513 m 5,4,-1
 102 513 l 5,5,-1
 102 584 l 5,6,-1
 31 584 l 5,7,-1
 31 513 l 5,4,-1
EndSplineSet
Validated: 9
EndChar

StartChar: dieresis
Encoding: 168 168 295
Width: 409
Flags: W
LayerCount: 2
Fore
SplineSet
254 538 m 5,0,-1
 325 538 l 5,1,-1
 325 467 l 5,2,-1
 254 467 l 5,3,-1
 254 538 l 5,0,-1
85 538 m 5,4,-1
 156 538 l 5,5,-1
 156 467 l 5,6,-1
 85 467 l 5,7,-1
 85 538 l 5,4,-1
85 538 m 5,8,-1
 156 538 l 5,9,-1
 156 467 l 5,10,-1
 85 467 l 5,11,-1
 85 538 l 5,8,-1
EndSplineSet
Validated: 5
EndChar

StartChar: questiondown
Encoding: 191 191 296
Width: 409
Flags: W
LayerCount: 2
Fore
SplineSet
246 509 m 5,0,-1
 175 509 l 5,1,-1
 175 580 l 5,2,-1
 246 580 l 5,3,-1
 246 509 l 5,0,-1
377 95 m 5,4,-1
 343 141 l 5,5,6
 331 132 331 132 314 116 c 132,-1,7
 297 100 297 100 288.5 93.5 c 132,-1,8
 280 87 280 87 266.5 79 c 132,-1,9
 253 71 253 71 239.5 68 c 132,-1,10
 226 65 226 65 208 65 c 4,11,12
 171 65 171 65 134 104 c 132,-1,13
 97 143 97 143 97 186 c 4,14,15
 97 203 97 203 104 217.5 c 132,-1,16
 111 232 111 232 119 242 c 132,-1,17
 127 252 127 252 146 263.5 c 132,-1,18
 165 275 165 275 175.5 280 c 132,-1,19
 186 285 186 285 212 296 c 132,-1,20
 238 307 238 307 246 311 c 5,21,-1
 246 475 l 5,22,-1
 176 475 l 5,23,-1
 176 352 l 5,24,25
 25 278 25 278 25 186 c 4,26,27
 25 116 25 116 83 55.5 c 132,-1,28
 141 -5 141 -5 205 -5 c 4,29,30
 237 -5 237 -5 271.5 12.5 c 132,-1,31
 306 30 306 30 327 48 c 132,-1,32
 348 66 348 66 377 95 c 5,4,-1
EndSplineSet
Validated: 9
EndChar

StartChar: uni026F
Encoding: 623 623 297
Width: 614
Flags: W
LayerCount: 2
Fore
SplineSet
584 1 m 5,0,-1
 513 1 l 5,1,-1
 513 21.95703125 l 5,2,3
 512.154296875 21.3740234375 512.154296875 21.3740234375 511.5 21 c 4,4,5
 508 19 508 19 500 13 c 132,-1,6
 492 7 492 7 487 5 c 132,-1,7
 482 3 482 3 474 -0.5 c 132,-1,8
 466 -4 466 -4 459 -5.5 c 132,-1,9
 452 -7 452 -7 443.5 -8 c 132,-1,10
 435 -9 435 -9 426 -9 c 4,11,12
 374 -9 374 -9 330 14.5 c 4,13,14
 311.022460938 24.6357421875 311.022460938 24.6357421875 297.625 39.701171875 c 5,15,16
 294.516601562 36.79296875 294.516601562 36.79296875 288 31 c 4,17,18
 279 23 279 23 275.5 21 c 132,-1,19
 272 19 272 19 264 13 c 132,-1,20
 256 7 256 7 251 5 c 132,-1,21
 246 3 246 3 238 -0.5 c 132,-1,22
 230 -4 230 -4 223 -5.5 c 132,-1,23
 216 -7 216 -7 207.5 -8 c 132,-1,24
 199 -9 199 -9 190 -9 c 4,25,26
 138 -9 138 -9 94 14.5 c 132,-1,27
 50 38 50 38 36 88 c 4,28,29
 31 107 31 107 31 415 c 5,30,-1
 103 415 l 5,31,-1
 103 114 l 6,32,33
 103 92 103 92 117 80 c 132,-1,34
 131 68 131 68 146.5 65.5 c 132,-1,35
 162 63 162 63 188 63 c 4,36,37
 202 63 202 63 212 64.5 c 132,-1,38
 222 66 222 66 232 73 c 132,-1,39
 242 80 242 80 245.5 83 c 132,-1,40
 249 86 249 86 261 99.5 c 4,41,42
 266.3203125 105.485351562 266.3203125 105.485351562 270.068359375 109.799804688 c 4,43,44
 267 173.732421875 267 173.732421875 267 415 c 5,45,-1
 339 415 l 5,46,-1
 339 114 l 6,47,48
 339 92 339 92 353 80 c 132,-1,49
 367 68 367 68 382.5 65.5 c 132,-1,50
 398 63 398 63 424 63 c 4,51,52
 438 63 438 63 448 64.5 c 132,-1,53
 458 66 458 66 468 73 c 132,-1,54
 478 80 478 80 481.5 83 c 132,-1,55
 485 86 485 86 497 99.5 c 132,-1,56
 509 113 509 113 513 118 c 5,57,-1
 513 415 l 5,58,-1
 584 415 l 5,59,-1
 584 1 l 5,0,-1
EndSplineSet
Validated: 1
EndChar

StartChar: uni028C
Encoding: 652 652 298
Width: 409
Flags: W
LayerCount: 2
Fore
SplineSet
29 9 m 5,0,-1
 99 -16 l 5,1,-1
 194 284 l 5,2,-1
 311 -13 l 5,3,-1
 379 16 l 5,4,-1
 224 407 l 5,5,-1
 158 407 l 5,6,-1
 29 9 l 5,0,-1
EndSplineSet
Validated: 9
EndChar

StartChar: uni030A
Encoding: 778 778 301
Width: 409
Flags: W
LayerCount: 2
Fore
SplineSet
158 596.5 m 128,-1,1
 158 582 158 582 166 570.5 c 128,-1,2
 174 559 174 559 193 559 c 0,3,4
 206 559 206 559 217.25 571.25 c 0,5,6
 225 580 225 580 225 594 c 4,7,8
 225 610.777777778 225 610.777777778 220 618 c 4,9,10
 211 631 211 631 188 631 c 0,11,12
 175 630 175 630 166.5 621 c 0,13,0
 158 611 158 611 158 596.5 c 128,-1,1
104 597 m 128,-1,15
 104 633 104 633 129 658 c 128,-1,16
 154 683 154 683 190 683 c 128,-1,17
 226 683 226 683 251 658 c 128,-1,18
 276 633 276 633 276 597 c 128,-1,19
 276 561 276 561 251 536 c 128,-1,20
 226 511 226 511 190 511 c 128,-1,21
 154 511 154 511 129 536 c 128,-1,14
 104 561 104 561 104 597 c 128,-1,15
EndSplineSet
Validated: 1
EndChar

StartChar: uni0306
Encoding: 774 774 307
Width: 409
Flags: W
LayerCount: 2
Fore
SplineSet
94 634 m 5,0,-1
 58 573 l 5,1,2
 81 536 81 536 120 513.5 c 4,3,4
 162 489 162 489 202 489 c 4,5,6
 205 489 205 489 208.509765625 488.877929688 c 4,7,8
 250 489 250 489 287.724609375 507.551757812 c 4,9,10
 328 528 328 528 354 565 c 5,11,-1
 310 620 l 5,12,13
 299.663085938 603.821289062 299.663085938 603.821289062 260.23046875 577.736328125 c 4,14,15
 242.98828125 566.331054688 242.98828125 566.331054688 219 561 c 4,16,17
 206.931640625 558.318359375 206.931640625 558.318359375 196 560 c 4,18,19
 164 563 164 563 136.189453125 586.784179688 c 4,20,21
 105.668945312 611.440429688 105.668945312 611.440429688 94 634 c 5,0,-1
EndSplineSet
Validated: 9
EndChar

StartChar: degree
Encoding: 176 176 308
Width: 409
Flags: W
LayerCount: 2
Fore
SplineSet
158 596.5 m 128,-1,1
 158 582 158 582 166 570.5 c 128,-1,2
 174 559 174 559 193 559 c 0,3,4
 206 559 206 559 217.25 571.25 c 0,5,6
 225 580 225 580 225 594 c 4,7,8
 225 610.777777778 225 610.777777778 220 618 c 4,9,10
 211 631 211 631 188 631 c 0,11,12
 175 630 175 630 166.5 621 c 0,13,0
 158 611 158 611 158 596.5 c 128,-1,1
104 597 m 128,-1,15
 104 633 104 633 129 658 c 128,-1,16
 154 683 154 683 190 683 c 128,-1,17
 226 683 226 683 251 658 c 128,-1,18
 276 633 276 633 276 597 c 128,-1,19
 276 561 276 561 251 536 c 128,-1,20
 226 511 226 511 190 511 c 128,-1,21
 154 511 154 511 129 536 c 128,-1,14
 104 561 104 561 104 597 c 128,-1,15
EndSplineSet
Validated: 1
EndChar

StartChar: uni01DD
Encoding: 477 477 309
Width: 399
Flags: W
LayerCount: 2
Fore
SplineSet
92 211 m 1028,0,-1
297.446289062 247 m 5,1,2
 291.696289062 285.994140625 291.696289062 285.994140625 273 313 c 4,3,4
 246 352 246 352 196 352 c 4,5,6
 150 352 150 352 124 321 c 5,7,-1
 77 375 l 5,8,9
 124 425 124 425 196 425 c 4,10,11
 272 425 272 425 322 363 c 132,-1,12
 372 301 372 301 372 211 c 132,-1,13
 372 121 372 121 322 59 c 132,-1,14
 272 -3 272 -3 196 -3 c 132,-1,15
 120 -3 120 -3 69.5 59.5 c 4,16,17
 29.541015625 108.954101562 29.541015625 108.954101562 21.2001953125 175 c 5,18,-1
 21 175 l 5,19,-1
 21 176.625976562 l 6,20,21
 19 193.288085938 19 193.288085938 19 211 c 6,22,-1
 19 212 l 5,23,-1
 18 247 l 5,24,-1
 21 247 l 5,25,-1
 297.446289062 247 l 5,1,2
93.31640625 175 m 5,26,27
 98.9814453125 134.826171875 98.9814453125 134.826171875 118.5 107.5 c 4,28,29
 146 69 146 69 196 69 c 132,-1,30
 246 69 246 69 273 107.5 c 4,31,32
 292.1640625 134.826171875 292.1640625 134.826171875 297.725585938 175 c 5,33,-1
 93.31640625 175 l 5,26,27
EndSplineSet
Validated: 1
EndChar

StartChar: uni01B7
Encoding: 439 439 310
Width: 409
Flags: W
LayerCount: 2
Fore
SplineSet
317 530 m 1,0,-1
 53 227 l 5,1,-1
 88 172 l 5,2,3
 144 182 144 182 201 182 c 4,4,5
 250 182 250 182 280 149 c 132,-1,6
 310 116 310 116 310 43 c 128,-1,7
 310 -30 310 -30 280.5 -81.5 c 128,-1,8
 251 -133 251 -133 190 -133 c 0,9,10
 148 -133 148 -133 123 -120 c 128,-1,11
 98 -107 98 -107 70 -78 c 1,12,-1
 25 -135 l 1,13,14
 74 -175 74 -175 108.5 -192 c 128,-1,15
 143 -209 143 -209 193 -209 c 0,16,17
 278 -209 278 -209 330 -132 c 128,-1,18
 382 -55 382 -55 382 46 c 128,-1,19
 382 147 382 147 329.5 199 c 132,-1,20
 277 251 277 251 205 251 c 4,21,22
 192 251 192 251 186 250 c 132,-1,23
 180 249 180 249 173 244.5 c 132,-1,24
 166 240 166 240 159 229 c 5,25,-1
 379 507 l 1,26,-1
 379 600 l 1,27,-1
 31 600 l 1,28,-1
 31 528 l 1,29,-1
 317 530 l 1,0,-1
EndSplineSet
Validated: 5
EndChar

StartChar: uni0292
Encoding: 658 658 311
Width: 409
Flags: W
LayerCount: 2
Fore
SplineSet
317 340 m 1,0,-1
 53 132 l 1,1,-1
 88 77 l 1,2,3
 144 87 144 87 201 87 c 0,4,5
 250 87 250 87 280 61.5 c 128,-1,6
 310 36 310 36 310 0 c 0,7,8
 310 -70 310 -70 280.5 -101.5 c 128,-1,9
 251 -133 251 -133 190 -133 c 0,10,11
 148 -133 148 -133 123 -120 c 128,-1,12
 98 -107 98 -107 70 -78 c 1,13,-1
 25 -135 l 1,14,15
 74 -175 74 -175 108.5 -192 c 128,-1,16
 143 -209 143 -209 193 -209 c 0,17,18
 278 -209 278 -209 330 -152 c 128,-1,19
 382 -95 382 -95 382 0 c 0,20,21
 382 67 382 67 329.5 111.5 c 128,-1,22
 277 156 277 156 205 156 c 0,23,24
 192 156 192 156 186 155 c 128,-1,25
 180 154 180 154 173 149.5 c 128,-1,26
 166 145 166 145 159 134 c 1,27,-1
 379 317 l 1,28,-1
 379 410 l 1,29,-1
 31 410 l 1,30,-1
 31 338 l 1,31,-1
 317 340 l 1,0,-1
EndSplineSet
Validated: 5
EndChar

StartChar: uni0324
Encoding: 804 804 312
Width: 409
Flags: W
LayerCount: 2
Fore
SplineSet
243 -61 m 5,0,-1
 314 -61 l 5,1,-1
 314 -132 l 5,2,-1
 243 -132 l 5,3,-1
 243 -61 l 5,0,-1
243 -61 m 5,4,-1
 314 -61 l 5,5,-1
 314 -132 l 5,6,-1
 243 -132 l 5,7,-1
 243 -61 l 5,4,-1
99 -61 m 5,8,-1
 170 -61 l 5,9,-1
 170 -132 l 5,10,-1
 99 -132 l 5,11,-1
 99 -61 l 5,8,-1
99 -61 m 5,12,-1
 170 -61 l 5,13,-1
 170 -132 l 5,14,-1
 99 -132 l 5,15,-1
 99 -61 l 5,12,-1
EndSplineSet
Validated: 5
EndChar

StartChar: uni028D
Encoding: 653 653 313
Width: 614
Flags: W
LayerCount: 2
Fore
SplineSet
29 23 m 5,0,-1
 99 -2 l 5,1,-1
 178 298 l 5,2,-1
 275 1 l 5,3,-1
 347 1 l 5,4,-1
 450 298 l 5,5,-1
 521 -2 l 5,6,-1
 583 23 l 5,7,-1
 485 421 l 5,8,-1
 419 421 l 5,9,-1
 311.765625 108.234375 l 5,10,-1
 209 421 l 5,11,-1
 142 421 l 5,12,-1
 29 23 l 5,0,-1
EndSplineSet
Validated: 9
EndChar

StartChar: uni028E
Encoding: 654 654 314
Width: 409
Flags: W
LayerCount: 2
Fore
SplineSet
378 -1 m 5,0,-1
 317 1 l 5,1,-1
 307 290 l 6,2,3
 303 322 303 322 275.5 337 c 132,-1,4
 248 352 248 352 209 352 c 4,5,6
 171 352 171 352 148.5 334.5 c 132,-1,7
 126 317 126 317 102 282 c 5,8,-1
 102 -1 l 5,9,-1
 30 -1 l 5,10,-1
 30 460 l 6,11,12
 30 533 30 533 76.5 574.5 c 132,-1,13
 123 616 123 616 194 616 c 4,14,15
 214 616 214 616 233.5 611.5 c 132,-1,16
 253 607 253 607 266 602.5 c 132,-1,17
 279 598 279 598 299 585.5 c 132,-1,18
 319 573 319 573 326 568 c 132,-1,19
 333 563 333 563 356.5 545 c 132,-1,20
 380 527 380 527 384 524 c 5,21,-1
 341 467 l 5,22,23
 315 495 315 495 300 508 c 132,-1,24
 285 521 285 521 260 531.5 c 132,-1,25
 235 542 235 542 206 542 c 4,26,27
 154 542 154 542 129.5 529.5 c 132,-1,28
 105 517 105 517 102 475 c 6,29,-1
 102 365 l 5,30,31
 141 398 141 398 157 405.5 c 132,-1,32
 173 413 173 413 212 413 c 4,33,34
 269 413 269 413 323 377 c 132,-1,35
 377 341 377 341 378 291 c 6,36,-1
 378 -1 l 5,0,-1
EndSplineSet
Validated: 1
EndChar

StartChar: uni01C0
Encoding: 448 448 315
Width: 133
Flags: W
LayerCount: 2
Fore
SplineSet
31 820 m 1,0,-1
 103 820 l 1,1,-1
 103 0 l 1,2,-1
 31 0 l 1,3,-1
 31 820 l 1,0,-1
EndSplineSet
Validated: 1
EndChar

StartChar: hookabovecomb
Encoding: 777 777 316
Width: 409
Flags: W
LayerCount: 2
Fore
SplineSet
42 719 m 1,0,-1
 70 657 l 1,1,2
 70 663 70 663 73 668 c 0,3,4
 80 678 80 678 101.189453125 685.278320312 c 0,5,6
 128 695 128 695 176 695 c 3,7,8
 274 695 274 695 274 639 c 3,9,10
 274 571 274 571 126 571 c 25,11,-1
 126 483 l 1,12,-1
 196 483 l 25,13,-1
 196 519 l 21,14,15
 344 554 344 554 344 639 c 0,16,17
 344 765 344 765 176 765 c 27,18,19
 102 765 102 765 42 719 c 1,0,-1
EndSplineSet
Validated: 9
EndChar

StartChar: uni0258
Encoding: 600 600 317
Width: 399
Flags: W
LayerCount: 2
Fore
SplineSet
98 206 m 1028,0,-1
303.446289062 170 m 5,1,2
 297.696289062 131.005859375 297.696289062 131.005859375 279 104 c 4,3,4
 252 65 252 65 202 65 c 4,5,6
 156 65 156 65 130 96 c 5,7,-1
 83 42 l 5,8,9
 130 -8 130 -8 202 -8 c 4,10,11
 278 -8 278 -8 328 54 c 132,-1,12
 378 116 378 116 378 206 c 132,-1,13
 378 296 378 296 328 358 c 132,-1,14
 278 420 278 420 202 420 c 132,-1,15
 126 420 126 420 75.5 357.5 c 4,16,17
 35.541015625 308.045898438 35.541015625 308.045898438 27.2001953125 242 c 5,18,-1
 27 242 l 5,19,-1
 27 240.374023438 l 6,20,21
 25 223.711914062 25 223.711914062 25 206 c 6,22,-1
 25 205 l 5,23,-1
 24 170 l 5,24,-1
 27 170 l 5,25,-1
 303.446289062 170 l 5,1,2
99.31640625 242 m 5,26,27
 104.981445312 282.173828125 104.981445312 282.173828125 124.5 309.5 c 4,28,29
 152 348 152 348 202 348 c 132,-1,30
 252 348 252 348 279 309.5 c 4,31,32
 298.1640625 282.173828125 298.1640625 282.173828125 303.725585938 242 c 5,33,-1
 99.31640625 242 l 5,26,27
EndSplineSet
Validated: 9
EndChar

StartChar: uni037E
Encoding: 894 894 318
Width: 133
Flags: W
LayerCount: 2
Fore
SplineSet
31 410 m 1,0,-1
 102 410 l 1,1,-1
 102 338 l 1,2,-1
 31 338 l 1,3,-1
 31 410 l 1,0,-1
102 31 m 1,4,5
 102 0 102 0 89 -20 c 0,6,7
 78 -37 78 -37 49 -52 c 1,8,-1
 38 -34 l 1,9,10
 64 -19 64 -19 70 -8 c 0,11,12
 77 4 77 4 77 31 c 1,13,-1
 102 31 l 1,4,5
31 102 m 1,14,-1
 102 102 l 1,15,-1
 102 31 l 1,16,-1
 77 31 l 1,17,-1
 31 31 l 1,18,-1
 31 102 l 1,14,-1
EndSplineSet
Validated: 5
EndChar

StartChar: uni01B9
Encoding: 441 441 319
Width: 409
Flags: W
LayerCount: 2
Fore
SplineSet
92 340 m 5,0,-1
 356 132 l 5,1,-1
 321 77 l 5,2,3
 265 87 265 87 208 87 c 4,4,5
 159 87 159 87 129 61.5 c 132,-1,6
 99 36 99 36 99 0 c 4,7,8
 99 -70 99 -70 128.5 -101.5 c 132,-1,9
 158 -133 158 -133 219 -133 c 4,10,11
 261 -133 261 -133 286 -120 c 132,-1,12
 311 -107 311 -107 339 -78 c 5,13,-1
 384 -135 l 5,14,15
 335 -175 335 -175 300.5 -192 c 132,-1,16
 266 -209 266 -209 216 -209 c 4,17,18
 131 -209 131 -209 79 -152 c 132,-1,19
 27 -95 27 -95 27 0 c 4,20,21
 27 67 27 67 79.5 111.5 c 132,-1,22
 132 156 132 156 204 156 c 4,23,24
 217 156 217 156 223 155 c 132,-1,25
 229 154 229 154 236 149.5 c 132,-1,26
 243 145 243 145 250 134 c 5,27,-1
 30 317 l 5,28,-1
 30 410 l 5,29,-1
 378 410 l 5,30,-1
 378 338 l 5,31,-1
 92 340 l 5,0,-1
EndSplineSet
Validated: 5
EndChar

StartChar: uni0311
Encoding: 785 785 331
Width: 409
Flags: W
LayerCount: 2
Fore
SplineSet
94 534 m 5,0,-1
 58 595 l 5,1,2
 81 632 81 632 120 654.5 c 4,3,4
 162 679 162 679 202 679 c 4,5,6
 205 679 205 679 208.509765625 679.122070312 c 4,7,8
 250 679 250 679 287.724609375 660.448242188 c 4,9,10
 328 640 328 640 354 603 c 5,11,-1
 310 548 l 5,12,13
 299.663085938 564.178710938 299.663085938 564.178710938 260.23046875 590.263671875 c 4,14,15
 242.98828125 601.668945312 242.98828125 601.668945312 219 607 c 4,16,17
 206.931640625 609.681640625 206.931640625 609.681640625 196 608 c 4,18,19
 164 605 164 605 136.189453125 581.215820312 c 4,20,21
 105.668945312 556.559570312 105.668945312 556.559570312 94 534 c 5,0,-1
EndSplineSet
Validated: 1
EndChar

StartChar: uni0336
Encoding: 822 822 346
Width: 409
Flags: W
LayerCount: 2
Fore
SplineSet
0 242 m 5,0,-1
 409 242 l 1,1,-1
 409 172 l 1,2,-1
 0 172 l 5,3,-1
 0 242 l 5,0,-1
EndSplineSet
Validated: 1
EndChar

StartChar: uni0335
Encoding: 821 821 347
Width: 409
Flags: W
LayerCount: 2
Fore
SplineSet
30 242 m 5,0,-1
 378 242 l 5,1,-1
 378 172 l 5,2,-1
 30 172 l 5,3,-1
 30 242 l 5,0,-1
EndSplineSet
Validated: 1
EndChar

StartChar: uni032E
Encoding: 814 814 348
Width: 409
Flags: W
LayerCount: 2
Fore
SplineSet
94 -29 m 5,0,-1
 58 -90 l 5,1,2
 81 -127 81 -127 120 -149.5 c 4,3,4
 162 -174 162 -174 202 -174 c 4,5,6
 205 -174 205 -174 208.509765625 -174.122070312 c 4,7,8
 250 -174 250 -174 287.724609375 -155.448242188 c 4,9,10
 328 -135 328 -135 354 -98 c 5,11,-1
 310 -43 l 5,12,13
 299.663085938 -59.1787109375 299.663085938 -59.1787109375 260.23046875 -85.263671875 c 4,14,15
 242.98828125 -96.6689453125 242.98828125 -96.6689453125 219 -102 c 4,16,17
 206.931640625 -104.681640625 206.931640625 -104.681640625 196 -103 c 4,18,19
 164 -100 164 -100 136.189453125 -76.2158203125 c 4,20,21
 105.668945312 -51.5595703125 105.668945312 -51.5595703125 94 -29 c 5,0,-1
EndSplineSet
Validated: 9
EndChar

StartChar: uni032F
Encoding: 815 815 349
Width: 409
Flags: W
LayerCount: 2
Fore
SplineSet
94 -185 m 5,0,-1
 58 -124 l 5,1,2
 81 -87 81 -87 120 -64.5 c 4,3,4
 162 -40 162 -40 202 -40 c 4,5,6
 205 -40 205 -40 208.509765625 -39.8779296875 c 4,7,8
 250 -40 250 -40 287.724609375 -58.5517578125 c 4,9,10
 328 -79 328 -79 354 -116 c 5,11,-1
 310 -171 l 5,12,13
 299.663085938 -154.821289062 299.663085938 -154.821289062 260.23046875 -128.736328125 c 4,14,15
 242.98828125 -117.331054688 242.98828125 -117.331054688 219 -112 c 4,16,17
 206.931640625 -109.318359375 206.931640625 -109.318359375 196 -111 c 4,18,19
 164 -114 164 -114 136.189453125 -137.784179688 c 4,20,21
 105.668945312 -162.440429688 105.668945312 -162.440429688 94 -185 c 5,0,-1
EndSplineSet
Validated: 1
EndChar

StartChar: uni018E
Encoding: 398 398 355
Width: 512
Flags: W
LayerCount: 2
Fore
SplineSet
466 71 m 5,0,-1
 31 71 l 5,1,-1
 31 0 l 5,2,-1
 466 0 l 5,3,-1
 466 71 l 5,0,-1
466 341 m 5,4,-1
 31 341 l 5,5,-1
 31 270 l 5,6,-1
 466 270 l 5,7,-1
 466 341 l 5,4,-1
466 592 m 5,8,-1
 31 592 l 5,9,-1
 31 521 l 5,10,-1
 466 521 l 5,11,-1
 466 592 l 5,8,-1
482 592 m 5,12,-1
 410 592 l 5,13,-1
 410 0 l 5,14,-1
 482 0 l 5,15,-1
 482 592 l 5,12,-1
EndSplineSet
Validated: 5
EndChar

StartChar: uni029E
Encoding: 670 670 356
Width: 409
Flags: W
LayerCount: 2
Fore
SplineSet
377 409 m 1,0,-1
 306 409 l 1,1,-1
 306 243.252929688 l 1,2,-1
 78 409 l 1,3,-1
 32 347 l 1,4,-1
 266.208007812 178.788085938 l 1,5,-1
 22 55 l 1,6,-1
 62 -9 l 1,7,-1
 306 113.418945312 l 1,8,-1
 306 -204 l 5,9,-1
 377 -204 l 5,10,-1
 377 409 l 1,0,-1
EndSplineSet
Validated: 9
EndChar

StartChar: uni01C3
Encoding: 451 451 357
Width: 133
Flags: W
LayerCount: 2
Fore
SplineSet
31 614 m 1,0,-1
 102 614 l 1,1,-1
 102 156 l 1,2,-1
 31 156 l 1,3,-1
 31 614 l 1,0,-1
31 102 m 1,4,-1
 102 102 l 1,5,-1
 102 31 l 1,6,-1
 31 31 l 1,7,-1
 31 102 l 1,4,-1
EndSplineSet
Validated: 1
EndChar

StartChar: uni00AD
Encoding: 173 173 358
Width: 409
Flags: W
LayerCount: 2
Fore
SplineSet
37 241 m 1,0,-1
 369 241 l 1,1,-1
 369 169 l 1,2,-1
 37 169 l 1,3,-1
 37 241 l 1,0,-1
EndSplineSet
Validated: 1
EndChar

StartChar: plusminus
Encoding: 177 177 359
Width: 409
Flags: W
LayerCount: 2
Fore
SplineSet
37 99 m 5,0,-1
 369 99 l 5,1,-1
 369 27 l 5,2,-1
 37 27 l 5,3,-1
 37 99 l 5,0,-1
243 30 m 1,4,-1
 171 30 l 1,5,-1
 171 361 l 1,6,-1
 243 361 l 1,7,-1
 243 30 l 1,4,-1
37 241 m 1,8,-1
 369 241 l 1,9,-1
 369 169 l 1,10,-1
 37 169 l 1,11,-1
 37 241 l 1,8,-1
EndSplineSet
Validated: 5
EndChar

StartChar: mu
Encoding: 181 181 360
Width: 409
Flags: W
LayerCount: 2
Fore
SplineSet
31 414 m 25,0,-1
 102 414 l 25,1,-1
 101 -90 l 26,2,3
 101 -146 101 -146 62 -176 c 0,4,5
 16 -213 16 -213 -25 -213 c 25,6,-1
 -42 -145 l 1,7,8
 -7.14270787725 -142.248108517 -7.14270787725 -142.248108517 10 -129 c 4,9,10
 32 -112 32 -112 32 -90 c 2,11,-1
 31 414 l 25,0,-1
379 0 m 1,12,-1
 307 0 l 1,13,-1
 307 24.6121491324 l 1,14,15
 254.577582912 -10 254.577582912 -10 205 -10 c 0,16,17
 151 -10 151 -10 100.5 13.5 c 128,-1,18
 50 37 50 37 36 87 c 0,19,20
 31 106 31 106 31 414 c 1,21,-1
 102 414 l 1,22,-1
 102 113 l 2,23,24
 103 61 103 61 203 61 c 0,25,26
 237 61 237 61 258 74 c 128,-1,27
 279 87 279 87 307 117 c 1,28,-1
 307 414 l 1,29,-1
 379 414 l 1,30,-1
 379 0 l 1,12,-1
  Spiro
    379 0 v
    307 0 v
    307 24.6121 v
    255.289 -1.34696 o
    205 -10 o
    151.875 -4.125 o
    100.5 13.5 o
    59.125 43.625 o
    36 87 o
    32.25 178.25 o
    31 414 v
    102 414 v
    102 113 ]
    127.75 74 o
    203 61 o
    233.75 64.25 o
    258 74 o
    280.75 91.25 o
    307 117 v
    307 414 v
    379 414 v
    0 0 z
  EndSpiro
EndSplineSet
Validated: 5
EndChar

StartChar: uni032C
Encoding: 812 812 361
Width: 409
Flags: W
LayerCount: 2
Fore
SplineSet
43 -13 m 1,0,-1
 105 15 l 1,1,-1
 198 -126 l 5,2,-1
 311 14 l 1,3,-1
 371 -23 l 1,4,-1
 223 -212 l 5,5,-1
 166 -212 l 5,6,-1
 43 -13 l 1,0,-1
EndSplineSet
Validated: 1
EndChar

StartChar: uni032D
Encoding: 813 813 362
Width: 409
Flags: W
LayerCount: 2
Fore
SplineSet
43 -191 m 5,0,-1
 105 -219 l 5,1,-1
 198 -78 l 5,2,-1
 311 -218 l 5,3,-1
 371 -181 l 5,4,-1
 223 8 l 5,5,-1
 166 8 l 5,6,-1
 43 -191 l 5,0,-1
EndSplineSet
Validated: 9
EndChar

StartChar: uni0330
Encoding: 816 816 363
Width: 409
Flags: W
LayerCount: 2
Fore
SplineSet
31 -83 m 5,0,-1
 57 -150 l 5,1,2
 65 -145 65 -145 80 -135.5 c 132,-1,3
 95 -126 95 -126 103 -121 c 132,-1,4
 111 -116 111 -116 124 -112 c 132,-1,5
 137 -108 137 -108 150 -108 c 4,6,7
 168 -108 168 -108 208 -141.5 c 132,-1,8
 248 -175 248 -175 271 -175 c 4,9,10
 308 -175 308 -175 386 -106 c 5,11,-1
 371 -35 l 5,12,13
 367 -38 367 -38 343 -58.5 c 132,-1,14
 319 -79 319 -79 300 -91.5 c 132,-1,15
 281 -104 281 -104 269 -104 c 4,16,17
 253 -104 253 -104 214 -70 c 132,-1,18
 175 -36 175 -36 150 -36 c 4,19,20
 99 -36 99 -36 31 -83 c 5,0,-1
EndSplineSet
Validated: 9
EndChar

StartChar: uni0331
Encoding: 817 817 364
Width: 409
Flags: W
LayerCount: 2
Fore
SplineSet
39 -69 m 5,0,-1
 379 -69 l 5,1,-1
 379 -139 l 5,2,-1
 39 -139 l 5,3,-1
 39 -69 l 5,0,-1
EndSplineSet
Validated: 1
EndChar

StartChar: uni0325
Encoding: 805 805 365
Width: 409
Flags: W
LayerCount: 2
Fore
SplineSet
167 -104.5 m 132,-1,1
 167 -119 167 -119 175 -130.5 c 132,-1,2
 183 -142 183 -142 202 -142 c 4,3,4
 215 -142 215 -142 226.25 -129.75 c 4,5,6
 234 -121 234 -121 234 -107 c 4,7,8
 234 -90.22265625 234 -90.22265625 229 -83 c 4,9,10
 220 -70 220 -70 197 -70 c 4,11,12
 184 -71 184 -71 175.5 -80 c 4,13,0
 167 -90 167 -90 167 -104.5 c 132,-1,1
113 -104 m 132,-1,15
 113 -68 113 -68 138 -43 c 132,-1,16
 163 -18 163 -18 199 -18 c 132,-1,17
 235 -18 235 -18 260 -43 c 132,-1,18
 285 -68 285 -68 285 -104 c 132,-1,19
 285 -140 285 -140 260 -165 c 132,-1,20
 235 -190 235 -190 199 -190 c 132,-1,21
 163 -190 163 -190 138 -165 c 132,-1,14
 113 -140 113 -140 113 -104 c 132,-1,15
EndSplineSet
Validated: 1
EndChar

StartChar: uni02C0
Encoding: 704 704 366
Width: 409
Flags: W
LayerCount: 2
Fore
SplineSet
42 719 m 1,0,-1
 70 657 l 1,1,2
 70 663 70 663 73 668 c 0,3,4
 80 678 80 678 101.189453125 685.278320312 c 0,5,6
 128 695 128 695 176 695 c 3,7,8
 274 695 274 695 274 639 c 3,9,10
 274 571 274 571 126 571 c 25,11,-1
 126 483 l 1,12,-1
 196 483 l 25,13,-1
 196 519 l 21,14,15
 344 554 344 554 344 639 c 0,16,17
 344 765 344 765 176 765 c 27,18,19
 102 765 102 765 42 719 c 1,0,-1
EndSplineSet
Validated: 9
EndChar

StartChar: uni02C1
Encoding: 705 705 367
Width: 409
Flags: W
LayerCount: 2
Fore
SplineSet
361 719 m 5,0,-1
 333 657 l 5,1,2
 333 663 333 663 330 668 c 4,3,4
 323 678 323 678 301.810546875 685.278320312 c 4,5,6
 275 695 275 695 227 695 c 7,7,8
 129 695 129 695 129 639 c 7,9,10
 129 571 129 571 277 571 c 29,11,-1
 277 483 l 5,12,-1
 207 483 l 29,13,-1
 207 519 l 21,14,15
 59 554 59 554 59 639 c 4,16,17
 59 765 59 765 227 765 c 31,18,19
 301 765 301 765 361 719 c 5,0,-1
EndSplineSet
Validated: 1
EndChar

StartChar: uni0327
Encoding: 807 807 368
Width: 409
Flags: W
LayerCount: 2
Fore
SplineSet
41 -174 m 5,0,-1
 69 -112 l 5,1,2
 69 -118 69 -118 72 -123 c 4,3,4
 79 -133 79 -133 100.189453125 -140.278320312 c 4,5,6
 127 -150 127 -150 175 -150 c 7,7,8
 273 -150 273 -150 273 -122 c 7,9,10
 273 -88 273 -88 125 -88 c 29,11,-1
 125 0 l 5,12,-1
 195 0 l 29,13,-1
 195 -36 l 21,14,15
 343 -36 343 -36 343 -122 c 4,16,17
 343 -220 343 -220 175 -220 c 31,18,19
 101 -220 101 -220 41 -174 c 5,0,-1
EndSplineSet
Validated: 1
EndChar

StartChar: uni01B8
Encoding: 440 440 379
Width: 409
Flags: W
LayerCount: 2
Fore
SplineSet
92 530 m 5,0,-1
 356 227 l 5,1,-1
 321 172 l 5,2,3
 265 182 265 182 208 182 c 4,4,5
 159 182 159 182 129 149 c 132,-1,6
 99 116 99 116 99 43 c 132,-1,7
 99 -30 99 -30 128.5 -81.5 c 132,-1,8
 158 -133 158 -133 219 -133 c 4,9,10
 261 -133 261 -133 286 -120 c 132,-1,11
 311 -107 311 -107 339 -78 c 5,12,-1
 384 -135 l 5,13,14
 335 -175 335 -175 300.5 -192 c 132,-1,15
 266 -209 266 -209 216 -209 c 4,16,17
 131 -209 131 -209 79 -132 c 132,-1,18
 27 -55 27 -55 27 46 c 132,-1,19
 27 147 27 147 79.5 199 c 132,-1,20
 132 251 132 251 204 251 c 4,21,22
 217 251 217 251 223 250 c 132,-1,23
 229 249 229 249 236 244.5 c 132,-1,24
 243 240 243 240 250 229 c 5,25,-1
 30 507 l 5,26,-1
 30 600 l 5,27,-1
 378 600 l 5,28,-1
 378 528 l 5,29,-1
 92 530 l 5,0,-1
EndSplineSet
Validated: 5
EndChar

StartChar: uni0186
Encoding: 390 390 381
Width: 512
Flags: W
LayerCount: 2
Fore
SplineSet
77 490 m 5,0,1
 89 495 89 495 115 507.5 c 132,-1,2
 141 520 141 520 152 524 c 132,-1,3
 163 528 163 528 182 535 c 132,-1,4
 201 542 201 542 218.5 544 c 132,-1,5
 236 546 236 546 257 546 c 4,6,7
 327 546 327 546 370 472.5 c 132,-1,8
 413 399 413 399 413 309 c 4,9,10
 413 186 413 186 371 125.5 c 132,-1,11
 329 65 329 65 257 65 c 4,12,13
 183 65 183 65 84 138 c 5,14,15
 84 138 84 138 31 90 c 5,16,17
 32 89 32 89 42.5 80 c 132,-1,18
 53 71 53 71 57 68 c 132,-1,19
 61 65 61 65 73 56 c 132,-1,20
 85 47 85 47 92 42.5 c 132,-1,21
 99 38 99 38 112.5 30 c 132,-1,22
 126 22 126 22 136.5 17.5 c 132,-1,23
 147 13 147 13 162.5 7.5 c 132,-1,24
 178 2 178 2 191.5 -1 c 132,-1,25
 205 -4 205 -4 222.5 -6 c 132,-1,26
 240 -8 240 -8 257 -8 c 4,27,28
 485 -8 485 -8 485 308 c 4,29,30
 485 454 485 454 427 535.5 c 132,-1,31
 369 617 369 617 257 617 c 4,32,33
 141 617 141 617 32 546 c 5,34,35
 77 490 77 490 77 490 c 5,0,1
EndSplineSet
Validated: 9
EndChar

StartChar: brokenbar
Encoding: 166 166 382
Width: 133
Flags: W
LayerCount: 2
Fore
SplineSet
31 366 m 5,0,-1
 103 366 l 5,1,-1
 103 0 l 5,2,-1
 31 0 l 5,3,-1
 31 366 l 5,0,-1
31 820 m 1,4,-1
 103 820 l 1,5,-1
 103 454 l 1,6,-1
 31 454 l 1,7,-1
 31 820 l 1,4,-1
EndSplineSet
Validated: 1
EndChar

StartChar: macron
Encoding: 175 175 383
Width: 409
Flags: W
LayerCount: 2
Fore
SplineSet
30 609 m 1,0,-1
 370 609 l 5,1,-1
 370 539 l 5,2,-1
 30 539 l 1,3,-1
 30 609 l 1,0,-1
EndSplineSet
Validated: 1
EndChar

StartChar: cedilla
Encoding: 184 184 384
Width: 409
Flags: W
LayerCount: 2
Fore
SplineSet
41 -174 m 5,0,-1
 69 -112 l 5,1,2
 69 -118 69 -118 72 -123 c 4,3,4
 79 -133 79 -133 100.189453125 -140.278320312 c 4,5,6
 127 -150 127 -150 175 -150 c 7,7,8
 273 -150 273 -150 273 -122 c 7,9,10
 273 -88 273 -88 125 -88 c 29,11,-1
 125 0 l 5,12,-1
 195 0 l 29,13,-1
 195 -36 l 21,14,15
 343 -36 343 -36 343 -122 c 4,16,17
 343 -220 343 -220 175 -220 c 31,18,19
 101 -220 101 -220 41 -174 c 5,0,-1
EndSplineSet
Validated: 1
EndChar

StartChar: acute
Encoding: 180 180 385
Width: 409
Flags: W
LayerCount: 2
Fore
SplineSet
63.232421875 471.681640625 m 5,0,-1
 378.595703125 581.69140625 l 5,1,-1
 352 647 l 5,2,-1
 36.63671875 536.989257812 l 5,3,-1
 63.232421875 471.681640625 l 5,0,-1
EndSplineSet
Validated: 9
EndChar

StartChar: uni030E
Encoding: 782 782 386
Width: 409
Flags: W
LayerCount: 2
Fore
SplineSet
231 741 m 1,0,-1
 303 743 l 1,1,-1
 293 549 l 1,2,-1
 242 549 l 1,3,-1
 231 741 l 1,0,-1
90 741 m 1,4,-1
 162 743 l 1,5,-1
 152 549 l 1,6,-1
 100 549 l 1,7,-1
 90 741 l 1,4,-1
EndSplineSet
Validated: 1
EndChar

StartChar: yen
Encoding: 165 165 387
Width: 512
Flags: W
LayerCount: 2
Fore
SplineSet
91 195 m 5,0,-1
 429 195 l 5,1,-1
 429 124 l 1,2,-1
 91 124 l 1,3,-1
 91 195 l 5,0,-1
92 327 m 5,4,-1
 430 327 l 5,5,-1
 430 256 l 1,6,-1
 92 256 l 1,7,-1
 92 327 l 5,4,-1
224 330 m 1,8,-1
 296 330 l 1,9,-1
 296 0 l 1,10,-1
 224 0 l 1,11,-1
 224 330 l 1,8,-1
490 583 m 1,12,-1
 297 330 l 1,13,-1
 224 330 l 1,14,-1
 436 614 l 1,15,-1
 490 583 l 1,12,-1
20 573 m 1,16,-1
 78 614 l 1,17,-1
 296 329 l 1,18,-1
 224 330 l 1,19,-1
 20 573 l 1,16,-1
EndSplineSet
Validated: 5
EndChar

StartChar: AE
Encoding: 198 198 388
Width: 758
Flags: W
LayerCount: 2
Fore
SplineSet
452 270 m 1,0,-1
 256 270 l 1,1,-1
 256 341 l 1,2,-1
 452 341 l 1,3,-1
 452 270 l 1,0,-1
379.9140625 591.897460938 m 1,4,-1
 447.08203125 551.122070312 l 1,5,-1
 78.3203125 -17.8232421875 l 1,6,-1
 11.1533203125 22.951171875 l 1,7,-1
 379.9140625 591.897460938 l 1,4,-1
452 521 m 1,8,-1
 452 341 l 1,9,-1
 731 341 l 1,10,-1
 731 270 l 1,11,-1
 452 270 l 1,12,-1
 452 71 l 1,13,-1
 731 71 l 1,14,-1
 731 0 l 1,15,-1
 452 0 l 1,16,-1
 396 0 l 1,17,-1
 380 0 l 1,18,-1
 380 592 l 1,19,-1
 396 592 l 1,20,-1
 452 592 l 1,21,-1
 731 592 l 1,22,-1
 731 521 l 1,23,-1
 452 521 l 1,8,-1
EndSplineSet
Validated: 5
EndChar

StartChar: uni0279
Encoding: 633 633 391
Width: 409
Flags: W
LayerCount: 2
Fore
SplineSet
372 1 m 5,0,-1
 301 1 l 5,1,-1
 301 26.435546875 l 5,2,3
 247.82421875 -9 247.82421875 -9 198 -9 c 4,4,5
 155 -9 155 -9 107 16 c 132,-1,6
 59 41 59 41 26 79 c 5,7,-1
 80 117 l 5,8,9
 134 63 134 63 196 63 c 4,10,11
 230 63 230 63 252 76 c 132,-1,12
 274 89 274 89 301 118 c 5,13,-1
 301 415 l 5,14,-1
 372 415 l 5,15,-1
 372 1 l 5,0,-1
EndSplineSet
Validated: 1
EndChar

StartChar: uni030D
Encoding: 781 781 392
Width: 133
Flags: W
LayerCount: 2
Fore
SplineSet
31 741 m 1,0,-1
 102 743 l 1,1,-1
 92 549 l 1,2,-1
 41 549 l 1,3,-1
 31 741 l 1,0,-1
EndSplineSet
Validated: 1
EndChar

StartChar: uni0310
Encoding: 784 784 393
Width: 409
Flags: W
LayerCount: 2
Fore
SplineSet
166 668 m 5,0,-1
 237 668 l 5,1,-1
 237 597 l 5,2,-1
 166 597 l 5,3,-1
 166 668 l 5,0,-1
166 668 m 5,4,-1
 237 668 l 5,5,-1
 237 597 l 5,6,-1
 166 597 l 5,7,-1
 166 668 l 5,4,-1
94 634 m 1,8,-1
 58 573 l 1,9,10
 81 536 81 536 120 513.5 c 0,11,12
 162 489 162 489 202 489 c 0,13,14
 205 489 205 489 208.509765625 488.877929688 c 0,15,16
 250 489 250 489 287.724609375 507.551757812 c 0,17,18
 328 528 328 528 354 565 c 1,19,-1
 310 620 l 1,20,21
 299.663085938 603.821289062 299.663085938 603.821289062 260.23046875 577.736328125 c 0,22,23
 242.98828125 566.331054688 242.98828125 566.331054688 219 561 c 0,24,25
 206.931640625 558.318359375 206.931640625 558.318359375 196 560 c 0,26,27
 164 563 164 563 136.189453125 586.784179688 c 0,28,29
 105.668945312 611.440429688 105.668945312 611.440429688 94 634 c 1,8,-1
EndSplineSet
Validated: 5
EndChar

StartChar: uni0245
Encoding: 581 581 394
Width: 512
Flags: W
LayerCount: 2
Fore
SplineSet
481 23 m 5,0,-1
 302 624 l 5,1,-1
 219 624 l 5,2,-1
 407 -12 l 5,3,-1
 481 23 l 5,0,-1
29 19 m 5,4,-1
 98 -13 l 5,5,-1
 302 624 l 5,6,-1
 219 624 l 5,7,-1
 29 19 l 5,4,-1
EndSplineSet
Validated: 5
EndChar

StartChar: uni0313
Encoding: 787 787 395
Width: 133
Flags: W
LayerCount: 2
Fore
SplineSet
102 540 m 5,0,1
 102 509 102 509 89 489 c 4,2,3
 78 472 78 472 49 457 c 5,4,-1
 38 475 l 5,5,6
 64 490 64 490 70 501 c 4,7,8
 77 513 77 513 77 540 c 5,9,-1
 102 540 l 5,0,1
31 611 m 5,10,-1
 102 611 l 5,11,-1
 102 540 l 5,12,-1
 77 540 l 5,13,-1
 31 540 l 5,14,-1
 31 611 l 5,10,-1
EndSplineSet
Validated: 5
EndChar

StartChar: uni0312
Encoding: 786 786 396
Width: 133
Flags: W
LayerCount: 2
Fore
SplineSet
29 588 m 5,0,1
 29 619 29 619 42 639 c 4,2,3
 53 656 53 656 82 671 c 5,4,-1
 93 653 l 5,5,6
 67 638 67 638 61 627 c 4,7,8
 54 615 54 615 54 588 c 5,9,-1
 29 588 l 5,0,1
100 517 m 5,10,-1
 29 517 l 5,11,-1
 29 588 l 5,12,-1
 54 588 l 5,13,-1
 100 588 l 5,14,-1
 100 517 l 5,10,-1
EndSplineSet
Validated: 5
EndChar

StartChar: periodcentered
Encoding: 183 183 397
Width: 133
Flags: W
LayerCount: 2
Fore
SplineSet
31 443 m 5,0,-1
 102 443 l 5,1,-1
 102 372 l 5,2,-1
 31 372 l 5,3,-1
 31 443 l 5,0,-1
EndSplineSet
Validated: 1
EndChar

StartChar: uni0250
Encoding: 592 592 398
Width: 409
Flags: W
LayerCount: 2
Fore
SplineSet
313 207 m 132,-1,1
 313 143 313 143 285.5 104 c 132,-1,2
 258 65 258 65 208 65 c 132,-1,3
 158 65 158 65 132.5 103.5 c 132,-1,4
 107 142 107 142 107 207 c 132,-1,5
 107 272 107 272 132.5 310 c 132,-1,6
 158 348 158 348 208 348 c 132,-1,7
 258 348 258 348 285.5 309.5 c 132,-1,0
 313 271 313 271 313 207 c 132,-1,1
385 206 m 132,-1,9
 385 295 385 295 334.5 357.5 c 132,-1,10
 284 420 284 420 208 420 c 4,11,12
 149.830078125 420 149.830078125 420 107 382.704101562 c 5,13,-1
 107 414 l 5,14,-1
 35 414 l 5,15,-1
 35 231.018554688 l 6,16,17
 34 218.791992188 34 218.791992188 34 206 c 132,-1,18
 34 193.208007812 34 193.208007812 35 180.981445312 c 6,19,-1
 35 0 l 5,20,-1
 107 0 l 5,21,-1
 107 29.2958984375 l 5,22,23
 149.830078125 -8 149.830078125 -8 208 -8 c 4,24,25
 284 -8 284 -8 334.5 54.5 c 132,-1,8
 385 117 385 117 385 206 c 132,-1,9
EndSplineSet
Validated: 9
EndChar

StartChar: uni0338
Encoding: 824 824 399
Width: 409
Flags: W
LayerCount: 2
Fore
SplineSet
304 605 m 1,0,-1
 378 575 l 1,1,-1
 116 -7 l 1,2,-1
 42 23 l 1,3,-1
 304 605 l 1,0,-1
EndSplineSet
Validated: 1
EndChar

StartChar: thorn
Encoding: 254 254 400
Width: 409
Flags: W
LayerCount: 2
Fore
SplineSet
102 819 m 1,0,-1
 31 819 l 1,1,-1
 31 240.88 l 2,2,3
 29 224 29 224 29 206 c 128,-1,4
 29 188 29 188 31 171.12 c 2,5,-1
 31 -204 l 5,6,-1
 102 -204 l 5,7,-1
 102 29.9455233615 l 1,8,9
 146 -8 146 -8 205 -8 c 0,10,11
 281 -8 281 -8 331.5 54.5 c 128,-1,12
 382 117 382 117 382 206 c 128,-1,13
 382 295 382 295 331.5 357.5 c 128,-1,14
 281 420 281 420 205 420 c 0,15,16
 146 420 146 420 102 382.054476639 c 1,17,-1
 102 819 l 1,0,-1
309 207 m 128,-1,19
 309 143 309 143 282 104 c 128,-1,20
 255 65 255 65 205 65 c 128,-1,21
 155 65 155 65 127.5 104 c 0,22,23
 107.416198487 132.482482146 107.416198487 132.482482146 102 174.29914886 c 1,24,-1
 102 239.664487504 l 1,25,26
 107.416198487 281.382677882 107.416198487 281.382677882 127.5 309.5 c 0,27,28
 155 348 155 348 205 348 c 128,-1,29
 255 348 255 348 282 309.5 c 128,-1,18
 309 271 309 271 309 207 c 128,-1,19
EndSplineSet
Validated: 9
EndChar

StartChar: uni0265
Encoding: 613 613 401
Width: 382
Flags: W
LayerCount: 2
Fore
SplineSet
359 -204 m 5,0,-1
 287 -204 l 5,1,-1
 287 23.3720703125 l 1,2,3
 234 -12 234 -12 185 -12 c 0,4,5
 152 -12 152 -12 115 1 c 128,-1,6
 78 14 78 14 47.5 44.5 c 128,-1,7
 17 75 17 75 16 116 c 0,8,9
 16 119 16 119 14.5 166.5 c 128,-1,10
 13 214 13 214 11.5 283.5 c 128,-1,11
 10 353 10 353 10 412 c 1,12,-1
 82 412 l 1,13,-1
 81 128 l 2,14,15
 81 93 81 93 113 76.5 c 128,-1,16
 145 60 145 60 183 60 c 0,17,18
 217 60 217 60 238.5 72.5 c 128,-1,19
 260 85 260 85 287 115 c 1,20,-1
 287 412 l 1,21,-1
 359 412 l 1,22,-1
 359 -204 l 5,0,-1
EndSplineSet
Validated: 1
EndChar

StartChar: uni0270
Encoding: 624 624 402
Width: 614
Flags: W
LayerCount: 2
Fore
SplineSet
584 -205 m 5,0,-1
 513 -205 l 5,1,-1
 513 21.95703125 l 1,2,3
 512 21 512 21 511.5 21 c 0,4,5
 508 19 508 19 500 13 c 128,-1,6
 492 7 492 7 487 5 c 128,-1,7
 482 3 482 3 474 -0.5 c 128,-1,8
 466 -4 466 -4 459 -5.5 c 128,-1,9
 452 -7 452 -7 443.5 -8 c 128,-1,10
 435 -9 435 -9 426 -9 c 0,11,12
 374 -9 374 -9 330 14.5 c 0,13,14
 311 25 311 25 297.625 39.701171875 c 1,15,16
 295 37 295 37 288 31 c 0,17,18
 279 23 279 23 275.5 21 c 128,-1,19
 272 19 272 19 264 13 c 128,-1,20
 256 7 256 7 251 5 c 128,-1,21
 246 3 246 3 238 -0.5 c 128,-1,22
 230 -4 230 -4 223 -5.5 c 128,-1,23
 216 -7 216 -7 207.5 -8 c 128,-1,24
 199 -9 199 -9 190 -9 c 0,25,26
 138 -9 138 -9 94 14.5 c 128,-1,27
 50 38 50 38 36 88 c 0,28,29
 31 107 31 107 31 415 c 1,30,-1
 103 415 l 1,31,-1
 103 114 l 2,32,33
 103 92 103 92 117 80 c 128,-1,34
 131 68 131 68 146.5 65.5 c 128,-1,35
 162 63 162 63 188 63 c 0,36,37
 202 63 202 63 212 64.5 c 128,-1,38
 222 66 222 66 232 73 c 128,-1,39
 242 80 242 80 245.5 83 c 128,-1,40
 249 86 249 86 261 99.5 c 0,41,42
 270 109 270 109 270.068359375 109.799804688 c 0,43,44
 271 174 271 174 267 415 c 1,45,-1
 339 415 l 1,46,-1
 339 114 l 2,47,48
 339 92 339 92 353 80 c 128,-1,49
 367 68 367 68 382.5 65.5 c 128,-1,50
 398 63 398 63 424 63 c 0,51,52
 438 63 438 63 448 64.5 c 128,-1,53
 458 66 458 66 468 73 c 128,-1,54
 478 80 478 80 481.5 83 c 128,-1,55
 485 86 485 86 497 99.5 c 128,-1,56
 509 113 509 113 513 118 c 1,57,-1
 513 415 l 1,58,-1
 584 415 l 1,59,-1
 584 -205 l 5,0,-1
EndSplineSet
Validated: 33
EndChar

StartChar: uni0287
Encoding: 647 647 403
Width: 409
Flags: W
LayerCount: 2
Fore
SplineSet
310 -197 m 5,0,-1
 238 -197 l 5,1,-1
 238 -25 l 5,2,-1
 33 -25 l 5,3,-1
 33 46 l 5,4,-1
 238 46 l 5,5,-1
 238 221 l 6,6,7
 237 263 237 263 216 305 c 132,-1,8
 195 347 195 347 172 347 c 4,9,10
 140 347 140 347 122 332.5 c 132,-1,11
 104 318 104 318 79 281 c 5,12,-1
 30 335 l 5,13,14
 61 367 61 367 75 380 c 132,-1,15
 89 393 89 393 115.5 406 c 132,-1,16
 142 419 142 419 172 419 c 4,17,18
 223 420 223 420 267.5 363.5 c 132,-1,19
 312 307 312 307 312 223 c 6,20,-1
 311.157226562 46 l 5,21,-1
 383 46 l 5,22,-1
 383 -25 l 5,23,-1
 310.819335938 -25 l 5,24,-1
 310 -197 l 5,0,-1
EndSplineSet
Validated: 33
EndChar

StartChar: divide
Encoding: 247 247 404
Width: 409
Flags: W
LayerCount: 2
Fore
SplineSet
42 256 m 5,0,-1
 374 256 l 5,1,-1
 374 184 l 5,2,-1
 42 184 l 5,3,-1
 42 256 l 5,0,-1
166 410 m 5,4,-1
 237 410 l 5,5,-1
 237 338 l 5,6,-1
 166 338 l 5,7,-1
 166 410 l 5,4,-1
166 102 m 5,8,-1
 237 102 l 5,9,-1
 237 31 l 5,10,-1
 166 31 l 5,11,-1
 166 102 l 5,8,-1
EndSplineSet
Validated: 1
EndChar

StartChar: uni01C1
Encoding: 449 449 405
Width: 235
Flags: W
LayerCount: 2
Fore
SplineSet
131 820 m 1,0,-1
 203 820 l 1,1,-1
 203 0 l 1,2,-1
 131 0 l 1,3,-1
 131 820 l 1,0,-1
31 820 m 1,4,-1
 103 820 l 1,5,-1
 103 0 l 1,6,-1
 31 0 l 1,7,-1
 31 820 l 1,4,-1
EndSplineSet
Validated: 1
EndChar

StartChar: multiply
Encoding: 215 215 406
Width: 409
Flags: W
LayerCount: 2
Fore
SplineSet
32 375 m 5,0,-1
 82 422 l 5,1,-1
 211 258 l 5,2,-1
 331 422 l 5,3,-1
 377 377 l 5,4,-1
 254 203 l 5,5,-1
 377 41 l 5,6,-1
 325 -8 l 5,7,-1
 206 150 l 5,8,-1
 86 -8 l 5,9,-1
 32 39 l 5,10,-1
 163 206 l 5,11,-1
 32 375 l 5,0,-1
EndSplineSet
Validated: 1
EndChar

StartChar: uni0334
Encoding: 820 820 407
Width: 409
Flags: W
LayerCount: 2
Fore
SplineSet
31 264 m 5,0,-1
 57 197 l 5,1,2
 65 202 65 202 80 211.5 c 132,-1,3
 95 221 95 221 103 226 c 132,-1,4
 111 231 111 231 124 235 c 132,-1,5
 137 239 137 239 150 239 c 4,6,7
 168 239 168 239 208 205.5 c 132,-1,8
 248 172 248 172 271 172 c 4,9,10
 308 172 308 172 386 241 c 5,11,-1
 371 312 l 5,12,13
 367 309 367 309 343 288.5 c 132,-1,14
 319 268 319 268 300 255.5 c 132,-1,15
 281 243 281 243 269 243 c 4,16,17
 253 243 253 243 214 277 c 132,-1,18
 175 311 175 311 150 311 c 4,19,20
 99 311 99 311 31 264 c 5,0,-1
EndSplineSet
Validated: 9
EndChar

StartChar: uni0316
Encoding: 790 790 408
Width: 409
Flags: W
LayerCount: 2
Fore
SplineSet
63.232421875 -17.681640625 m 5,0,-1
 378.595703125 -127.69140625 l 5,1,-1
 352 -193 l 5,2,-1
 36.63671875 -82.9892578125 l 5,3,-1
 63.232421875 -17.681640625 l 5,0,-1
EndSplineSet
Validated: 1
EndChar

StartChar: uni0317
Encoding: 791 791 409
Width: 409
Flags: W
LayerCount: 2
Fore
SplineSet
63.232421875 -178.318359375 m 5,0,-1
 378.595703125 -68.30859375 l 5,1,-1
 352 -3 l 5,2,-1
 36.63671875 -113.010742188 l 5,3,-1
 63.232421875 -178.318359375 l 5,0,-1
EndSplineSet
Validated: 9
EndChar

StartChar: rho
Encoding: 961 961 651
Width: 409
Flags: W
LayerCount: 2
Fore
SplineSet
28 206 m 1,0,-1
 98 206 l 1,1,-1
 98 -205 l 5,2,-1
 28 -205 l 5,3,-1
 28 206 l 1,0,-1
28 206 m 128,-1,5
 28 295 28 295 78.5 357.5 c 128,-1,6
 129 420 129 420 205 420 c 128,-1,7
 281 420 281 420 331.5 357.5 c 128,-1,8
 382 295 382 295 382 206 c 128,-1,9
 382 117 382 117 331.5 54.5 c 128,-1,10
 281 -8 281 -8 205 -8 c 128,-1,11
 129 -8 129 -8 78.5 54.5 c 128,-1,4
 28 117 28 117 28 206 c 128,-1,5
100 207 m 128,-1,13
 100 143 100 143 127.5 104 c 128,-1,14
 155 65 155 65 205 65 c 128,-1,15
 255 65 255 65 282 104 c 128,-1,16
 309 143 309 143 309 207 c 128,-1,17
 309 271 309 271 282 309.5 c 128,-1,18
 255 348 255 348 205 348 c 128,-1,19
 155 348 155 348 127.5 309.5 c 128,-1,12
 100 271 100 271 100 207 c 128,-1,13
EndSplineSet
EndChar

StartChar: uni0314
Encoding: 788 788 808
Width: 133
Flags: W
LayerCount: 2
Fore
SplineSet
29 540 m 5,0,1
 29 509 29 509 42 489 c 4,2,3
 53 472 53 472 82 457 c 5,4,-1
 93 475 l 5,5,6
 67 490 67 490 61 501 c 4,7,8
 54 513 54 513 54 540 c 5,9,-1
 29 540 l 5,0,1
100 611 m 5,10,-1
 29 611 l 5,11,-1
 29 540 l 5,12,-1
 54 540 l 5,13,-1
 100 540 l 5,14,-1
 100 611 l 5,10,-1
EndSplineSet
Validated: 5
EndChar

StartChar: uni0315
Encoding: 789 789 809
Width: 133
Flags: W
LayerCount: 2
Fore
SplineSet
102 540 m 5,0,1
 102 509 102 509 89 489 c 4,2,3
 78 472 78 472 49 457 c 5,4,-1
 38 475 l 5,5,6
 64 490 64 490 70 501 c 4,7,8
 77 513 77 513 77 540 c 5,9,-1
 102 540 l 5,0,1
31 611 m 5,10,-1
 102 611 l 5,11,-1
 102 540 l 5,12,-1
 77 540 l 5,13,-1
 31 540 l 5,14,-1
 31 611 l 5,10,-1
EndSplineSet
Validated: 5
EndChar

StartChar: uni0318
Encoding: 792 792 810
Width: 409
Flags: W
LayerCount: 2
Fore
SplineSet
107 -70 m 5,0,-1
 254 -70 l 5,1,-1
 254 -140 l 5,2,-1
 107 -140 l 5,3,-1
 107 -70 l 5,0,-1
242 0 m 5,4,-1
 312 0 l 5,5,-1
 312 -199 l 5,6,-1
 242 -199 l 5,7,-1
 242 0 l 5,4,-1
EndSplineSet
Validated: 5
EndChar

StartChar: uni0319
Encoding: 793 793 811
Width: 409
Flags: W
LayerCount: 2
Fore
SplineSet
310 -70 m 5,0,-1
 163 -70 l 5,1,-1
 163 -140 l 5,2,-1
 310 -140 l 5,3,-1
 310 -70 l 5,0,-1
175 0 m 5,4,-1
 105 0 l 5,5,-1
 105 -199 l 5,6,-1
 175 -199 l 5,7,-1
 175 0 l 5,4,-1
EndSplineSet
Validated: 5
EndChar

StartChar: eth
Encoding: 240 240 857
Width: 409
Flags: W
LayerCount: 2
Fore
SplineSet
51.0634765625 497.641601562 m 1,0,-1
 77.4638671875 432.810546875 l 1,1,-1
 331.229492188 536.1484375 l 1,2,-1
 304.830078125 600.979492188 l 1,3,-1
 51.0634765625 497.641601562 l 1,0,-1
99 210 m 128,-1,5
 99 274 99 274 126 313 c 128,-1,6
 153 352 153 352 203 352 c 128,-1,7
 253 352 253 352 280.5 313 c 128,-1,8
 308 274 308 274 308 210 c 128,-1,9
 308 146 308 146 280.5 107.5 c 128,-1,10
 253 69 253 69 203 69 c 128,-1,11
 153 69 153 69 126 107.5 c 128,-1,4
 99 146 99 146 99 210 c 128,-1,5
26 211 m 128,-1,13
 26 122 26 122 76.5 59.5 c 128,-1,14
 127 -3 127 -3 203 -3 c 128,-1,15
 279 -3 279 -3 329.5 59.5 c 128,-1,16
 380 122 380 122 380 211 c 0,17,18
 380 234 380 234 379.5 272.5 c 128,-1,19
 379 311 379 311 378.5 326.5 c 128,-1,20
 378 342 378 342 375.5 368.5 c 128,-1,21
 373 395 373 395 368 411 c 128,-1,22
 363 427 363 427 354 449 c 128,-1,23
 345 471 345 471 331 494 c 0,24,25
 305 537 305 537 249.5 574 c 128,-1,26
 194 611 194 611 156 621 c 5,27,-1
 138 551 l 1,28,29
 165 542 165 542 204.5 517.5 c 128,-1,30
 244 493 244 493 269 457 c 0,31,32
 288.302734375 429.530273438 288.302734375 429.530273438 297.409179688 393.2421875 c 1,33,34
 256.529296875 424 256.529296875 424 203 424 c 0,35,36
 127 424 127 424 76.5 362 c 128,-1,12
 26 300 26 300 26 211 c 128,-1,13
EndSplineSet
Validated: 5
EndChar

StartChar: uni031E
Encoding: 798 798 1002
Width: 409
Flags: W
LayerCount: 2
Fore
SplineSet
167 -205 m 5,0,-1
 167 -58 l 5,1,-1
 237 -58 l 5,2,-1
 237 -205 l 5,3,-1
 167 -205 l 5,0,-1
97 -70 m 5,4,-1
 97 0 l 5,5,-1
 296 0 l 5,6,-1
 296 -70 l 5,7,-1
 97 -70 l 5,4,-1
EndSplineSet
Validated: 5
EndChar

StartChar: uni0326
Encoding: 806 806 1003
Width: 133
Flags: W
LayerCount: 2
Fore
SplineSet
102 -85 m 5,0,1
 102 -116 102 -116 89 -136 c 4,2,3
 78 -153 78 -153 49 -168 c 5,4,-1
 38 -150 l 5,5,6
 64 -135 64 -135 70 -124 c 4,7,8
 77 -112 77 -112 77 -85 c 5,9,-1
 102 -85 l 5,0,1
31 -14 m 5,10,-1
 102 -14 l 5,11,-1
 102 -85 l 5,12,-1
 77 -85 l 5,13,-1
 31 -85 l 5,14,-1
 31 -14 l 5,10,-1
EndSplineSet
Validated: 5
EndChar

StartChar: uni031F
Encoding: 799 799 1011
Width: 409
Flags: W
LayerCount: 2
Fore
SplineSet
243 -204 m 5,0,-1
 171 -204 l 5,1,-1
 171 0 l 1,2,-1
 243 0 l 1,3,-1
 243 -204 l 5,0,-1
73 -60 m 1,4,-1
 339 -60 l 1,5,-1
 339 -132 l 1,6,-1
 73 -132 l 1,7,-1
 73 -60 l 1,4,-1
EndSplineSet
Validated: 5
EndChar

StartChar: uni031A
Encoding: 794 794 1020
Width: 409
Flags: W
LayerCount: 2
Fore
SplineSet
373 739 m 1,0,-1
 373 590 l 1,1,-1
 303 590 l 1,2,-1
 303 739 l 1,3,-1
 373 739 l 1,0,-1
30 739 m 1,4,-1
 373 739 l 1,5,-1
 373 669 l 5,6,-1
 30 669 l 5,7,-1
 30 739 l 1,4,-1
EndSplineSet
Validated: 5
EndChar

StartChar: Lambda
Encoding: 923 923 1021
Width: 512
Flags: W
LayerCount: 2
Fore
SplineSet
481 23 m 5,0,-1
 302 624 l 5,1,-1
 219 624 l 5,2,-1
 407 -12 l 5,3,-1
 481 23 l 5,0,-1
29 19 m 5,4,-1
 98 -13 l 5,5,-1
 302 624 l 5,6,-1
 219 624 l 5,7,-1
 29 19 l 5,4,-1
EndSplineSet
Validated: 5
EndChar

StartChar: uni031B
Encoding: 795 795 1022
Width: 409
Flags: W
LayerCount: 2
Fore
SplineSet
202 715 m 5,0,-1
 272 715 l 1,1,2
 272 632 272 632 233 586 c 24,3,4
 196 543 196 543 96 537 c 1,5,-1
 96 607 l 1,6,7
 152.655737705 609.655737705 152.655737705 609.655737705 181 638 c 4,8,9
 200 657 200 657 202 715 c 5,0,-1
EndSplineSet
Validated: 1
EndChar

StartChar: uni0352
Encoding: 850 850 1023
Width: 409
Flags: W
LayerCount: 2
Fore
SplineSet
166 509 m 5,0,-1
 237 509 l 5,1,-1
 237 580 l 5,2,-1
 166 580 l 5,3,-1
 166 509 l 5,0,-1
166 509 m 5,4,-1
 237 509 l 5,5,-1
 237 580 l 5,6,-1
 166 580 l 5,7,-1
 166 509 l 5,4,-1
94 543 m 5,8,-1
 58 604 l 5,9,10
 81 641 81 641 120 663.5 c 4,11,12
 162 688 162 688 202 688 c 4,13,14
 205 688 205 688 208.509765625 688.122070312 c 4,15,16
 250 688 250 688 287.724609375 669.448242188 c 4,17,18
 328 649 328 649 354 612 c 5,19,-1
 310 557 l 5,20,21
 299.663085938 573.178710938 299.663085938 573.178710938 260.23046875 599.263671875 c 4,22,23
 242.98828125 610.668945312 242.98828125 610.668945312 219 616 c 4,24,25
 206.931640625 618.681640625 206.931640625 618.681640625 196 617 c 4,26,27
 164 614 164 614 136.189453125 590.215820312 c 4,28,29
 105.668945312 565.559570312 105.668945312 565.559570312 94 543 c 5,8,-1
EndSplineSet
Validated: 5
EndChar

StartChar: uni031C
Encoding: 796 796 1048
Width: 409
Flags: W
LayerCount: 2
Fore
SplineSet
188 2 m 5,0,-1
 127 38 l 5,1,2
 90 15 90 15 67.5 -24 c 4,3,4
 43 -66 43 -66 43 -106 c 4,5,6
 43 -109 43 -109 42.8779296875 -112.509765625 c 4,7,8
 43 -154 43 -154 61.5517578125 -191.724609375 c 4,9,10
 82 -232 82 -232 119 -258 c 5,11,-1
 174 -214 l 5,12,13
 157.821289062 -203.663085938 157.821289062 -203.663085938 131.736328125 -164.23046875 c 4,14,15
 120.331054688 -146.98828125 120.331054688 -146.98828125 115 -123 c 4,16,17
 112.318359375 -110.931640625 112.318359375 -110.931640625 114 -100 c 4,18,19
 117 -68 117 -68 140.784179688 -40.189453125 c 4,20,21
 165.440429688 -9.6689453125 165.440429688 -9.6689453125 188 2 c 5,0,-1
EndSplineSet
Validated: 9
EndChar

StartChar: uni031D
Encoding: 797 797 1049
Width: 409
Flags: W
LayerCount: 2
Fore
SplineSet
167 0 m 5,0,-1
 167 -147 l 5,1,-1
 237 -147 l 5,2,-1
 237 0 l 5,3,-1
 167 0 l 5,0,-1
97 -135 m 5,4,-1
 97 -205 l 5,5,-1
 296 -205 l 5,6,-1
 296 -135 l 5,7,-1
 97 -135 l 5,4,-1
EndSplineSet
Validated: 5
EndChar

StartChar: uni0320
Encoding: 800 800 1050
Width: 409
Flags: W
LayerCount: 2
Fore
SplineSet
39 -69 m 5,0,-1
 379 -69 l 5,1,-1
 379 -139 l 5,2,-1
 39 -139 l 5,3,-1
 39 -69 l 5,0,-1
EndSplineSet
Validated: 1
EndChar

StartChar: uni0339
Encoding: 825 825 1051
Width: 409
Flags: W
LayerCount: 2
Fore
SplineSet
180 2 m 5,0,-1
 241 38 l 5,1,2
 278 15 278 15 300.5 -24 c 4,3,4
 325 -66 325 -66 325 -106 c 4,5,6
 325 -109 325 -109 325.122070312 -112.509765625 c 4,7,8
 325 -154 325 -154 306.448242188 -191.724609375 c 4,9,10
 286 -232 286 -232 249 -258 c 5,11,-1
 194 -214 l 5,12,13
 210.178710938 -203.663085938 210.178710938 -203.663085938 236.263671875 -164.23046875 c 4,14,15
 247.668945312 -146.98828125 247.668945312 -146.98828125 253 -123 c 4,16,17
 255.681640625 -110.931640625 255.681640625 -110.931640625 254 -100 c 4,18,19
 251 -68 251 -68 227.215820312 -40.189453125 c 4,20,21
 202.559570312 -9.6689453125 202.559570312 -9.6689453125 180 2 c 5,0,-1
EndSplineSet
Validated: 1
EndChar

StartChar: uni0337
Encoding: 823 823 1052
Width: 409
Flags: W
LayerCount: 2
Fore
SplineSet
304 406 m 1,0,-1
 365 374 l 5,1,-1
 105 -10 l 5,2,-1
 42 23 l 1,3,-1
 304 406 l 1,0,-1
EndSplineSet
Validated: 1
EndChar

StartChar: uni0345
Encoding: 837 837 1053
Width: 409
Flags: W
LayerCount: 2
Fore
SplineSet
196 1 m 5,0,-1
 126 1 l 5,1,2
 126 -82 126 -82 165 -128 c 28,3,4
 202 -171 202 -171 302 -177 c 5,5,-1
 302 -107 l 5,6,7
 245.344726562 -104.344726562 245.344726562 -104.344726562 217 -76 c 4,8,9
 198 -57 198 -57 196 1 c 5,0,-1
EndSplineSet
Validated: 9
EndChar

StartChar: Eth
Encoding: 208 208 1058
Width: 512
Flags: W
LayerCount: 2
Fore
SplineSet
0 340 m 1,0,-1
 0 270 l 1,1,-1
 191 270 l 5,2,-1
 191 340 l 5,3,-1
 0 340 l 1,0,-1
31 614 m 1,4,-1
 31 543 l 1,5,-1
 242 543 l 2,6,7
 333 541 333 541 371.5 487 c 128,-1,8
 410 433 410 433 410 304 c 0,9,10
 410 199 410 199 365 137 c 128,-1,11
 320 75 320 75 248 73 c 2,12,-1
 31 72 l 1,13,-1
 31 0 l 1,14,-1
 248 0 l 2,15,16
 344 0 344 0 412.5 86 c 128,-1,17
 481 172 481 172 481 307 c 0,18,19
 481 456 481 456 421.5 535 c 128,-1,20
 362 614 362 614 250 614 c 2,21,-1
 31 614 l 1,4,-1
31 614 m 1,22,-1
 31 0 l 1,23,-1
 102 0 l 1,24,-1
 102 614 l 1,25,-1
 31 614 l 1,22,-1
EndSplineSet
Validated: 5
EndChar

StartChar: Dcroat
Encoding: 272 272 1059
Width: 512
Flags: W
LayerCount: 2
Fore
SplineSet
0 340 m 1,0,-1
 0 270 l 1,1,-1
 191 270 l 5,2,-1
 191 340 l 5,3,-1
 0 340 l 1,0,-1
31 614 m 1,4,-1
 31 543 l 1,5,-1
 242 543 l 2,6,7
 333 541 333 541 371.5 487 c 128,-1,8
 410 433 410 433 410 304 c 0,9,10
 410 199 410 199 365 137 c 128,-1,11
 320 75 320 75 248 73 c 2,12,-1
 31 72 l 1,13,-1
 31 0 l 1,14,-1
 248 0 l 2,15,16
 344 0 344 0 412.5 86 c 128,-1,17
 481 172 481 172 481 307 c 0,18,19
 481 456 481 456 421.5 535 c 128,-1,20
 362 614 362 614 250 614 c 2,21,-1
 31 614 l 1,4,-1
31 614 m 1,22,-1
 31 0 l 1,23,-1
 102 0 l 1,24,-1
 102 614 l 1,25,-1
 31 614 l 1,22,-1
EndSplineSet
Validated: 5
EndChar

StartChar: uni0189
Encoding: 393 393 1060
Width: 512
Flags: W
LayerCount: 2
Fore
SplineSet
0 340 m 1,0,-1
 0 270 l 1,1,-1
 191 270 l 5,2,-1
 191 340 l 5,3,-1
 0 340 l 1,0,-1
31 614 m 1,4,-1
 31 543 l 1,5,-1
 242 543 l 2,6,7
 333 541 333 541 371.5 487 c 128,-1,8
 410 433 410 433 410 304 c 0,9,10
 410 199 410 199 365 137 c 128,-1,11
 320 75 320 75 248 73 c 2,12,-1
 31 72 l 1,13,-1
 31 0 l 1,14,-1
 248 0 l 2,15,16
 344 0 344 0 412.5 86 c 128,-1,17
 481 172 481 172 481 307 c 0,18,19
 481 456 481 456 421.5 535 c 128,-1,20
 362 614 362 614 250 614 c 2,21,-1
 31 614 l 1,4,-1
31 614 m 1,22,-1
 31 0 l 1,23,-1
 102 0 l 1,24,-1
 102 614 l 1,25,-1
 31 614 l 1,22,-1
EndSplineSet
Validated: 5
EndChar

StartChar: uni0328
Encoding: 808 808 1062
Width: 409
Flags: W
LayerCount: 2
Fore
SplineSet
273.634765625 -161.0703125 m 5,0,-1
 240.716796875 -222.84765625 l 5,1,2
 167.466796875 -183.81640625 167.466796875 -183.81640625 145.209960938 -127.765625 c 28,3,4
 124.661132812 -74.8916015625 124.661132812 -74.8916015625 166.391601562 16.18359375 c 5,5,-1
 228.16796875 -16.734375 l 5,6,7
 203.869140625 -67.984375 203.869140625 -67.984375 215.5546875 -106.328125 c 4,8,9
 223.388671875 -132.030273438 223.388671875 -132.030273438 273.634765625 -161.0703125 c 5,0,-1
EndSplineSet
Validated: 33
EndChar

StartChar: uni0329
Encoding: 809 809 1075
Width: 133
Flags: W
LayerCount: 2
Fore
SplineSet
31 -9 m 5,0,-1
 102 -9 l 5,1,-1
 103 -201 l 5,2,-1
 30 -201 l 5,3,-1
 31 -9 l 5,0,-1
EndSplineSet
Validated: 1
EndChar

StartChar: uni0196
Encoding: 406 406 1076
Width: 133
Flags: W
LayerCount: 2
Fore
SplineSet
31 614 m 1,0,-1
 102 614 l 1,1,-1
 102 0 l 1,2,-1
 31 0 l 1,3,-1
 31 614 l 1,0,-1
EndSplineSet
Validated: 1
EndChar

StartChar: guillemotright
Encoding: 187 187 1077
Width: 659
Flags: W
LayerCount: 2
Fore
SplineSet
332 416 m 1,0,-1
 291 354 l 1,1,-1
 553 219 l 1,2,-1
 291 29 l 1,3,-1
 336 -27 l 1,4,-1
 639 197 l 1,5,-1
 639 248 l 1,6,-1
 332 416 l 1,0,-1
73 416 m 1,7,-1
 32 354 l 1,8,-1
 294 219 l 1,9,-1
 32 29 l 1,10,-1
 77 -27 l 1,11,-1
 380 197 l 1,12,-1
 380 248 l 1,13,-1
 73 416 l 1,7,-1
EndSplineSet
Validated: 9
EndChar

StartChar: guillemotleft
Encoding: 171 171 1078
Width: 659
Flags: W
LayerCount: 2
Fore
SplineSet
333 416 m 5,0,-1
 374 354 l 5,1,-1
 112 219 l 5,2,-1
 374 29 l 5,3,-1
 329 -27 l 5,4,-1
 26 197 l 5,5,-1
 26 248 l 5,6,-1
 333 416 l 5,0,-1
592 416 m 5,7,-1
 633 354 l 5,8,-1
 371 219 l 5,9,-1
 633 29 l 5,10,-1
 588 -27 l 5,11,-1
 285 197 l 5,12,-1
 285 248 l 5,13,-1
 592 416 l 5,7,-1
EndSplineSet
Validated: 1
EndChar

StartChar: Oslash
Encoding: 216 216 1079
Width: 512
Flags: W
LayerCount: 2
Fore
SplineSet
432.309570312 587.8203125 m 5,0,-1
 488.663085938 546.296875 l 5,1,-1
 91.47265625 17.966796875 l 5,2,-1
 35.119140625 59.4912109375 l 5,3,-1
 432.309570312 587.8203125 l 5,0,-1
99 306 m 128,-1,5
 99 198 99 198 142 133.5 c 128,-1,6
 185 69 185 69 256 69 c 0,7,8
 328 69 328 69 370.5 130.5 c 128,-1,9
 413 192 413 192 413 306 c 0,10,11
 413 410 413 410 369.5 476.5 c 128,-1,12
 326 543 326 543 256 543 c 0,13,14
 185 543 185 543 142 478.5 c 128,-1,4
 99 414 99 414 99 306 c 128,-1,5
28 306 m 0,15,16
 28 391 28 391 51.5 458.5 c 128,-1,17
 75 526 75 526 128 570 c 128,-1,18
 181 614 181 614 256 614 c 0,19,20
 369 614 369 614 426.5 528.5 c 128,-1,21
 484 443 484 443 484 306 c 0,22,23
 484 160 484 160 427 78 c 128,-1,24
 370 -4 370 -4 256 -4 c 0,25,26
 144 -4 144 -4 86 83 c 128,-1,27
 28 170 28 170 28 306 c 0,15,16
EndSplineSet
EndChar

StartChar: oslash
Encoding: 248 248 1081
Width: 409
Flags: W
LayerCount: 2
Fore
SplineSet
311.038085938 423.84375 m 5,0,-1
 369.141601562 384.805664062 l 5,1,-1
 100.892578125 -14.4482421875 l 5,2,-1
 42.7890625 24.58984375 l 5,3,-1
 311.038085938 423.84375 l 5,0,-1
28 206 m 128,-1,5
 28 295 28 295 78.5 357.5 c 128,-1,6
 129 420 129 420 205 420 c 128,-1,7
 281 420 281 420 331.5 357.5 c 128,-1,8
 382 295 382 295 382 206 c 128,-1,9
 382 117 382 117 331.5 54.5 c 128,-1,10
 281 -8 281 -8 205 -8 c 128,-1,11
 129 -8 129 -8 78.5 54.5 c 128,-1,4
 28 117 28 117 28 206 c 128,-1,5
100 207 m 128,-1,13
 100 143 100 143 127.5 104 c 128,-1,14
 155 65 155 65 205 65 c 128,-1,15
 255 65 255 65 282 104 c 128,-1,16
 309 143 309 143 309 207 c 128,-1,17
 309 271 309 271 282 309.5 c 128,-1,18
 255 348 255 348 205 348 c 128,-1,19
 155 348 155 348 127.5 309.5 c 128,-1,12
 100 271 100 271 100 207 c 128,-1,13
EndSplineSet
EndChar

StartChar: uni0321
Encoding: 801 801 1083
Width: 409
Flags: W
LayerCount: 2
Fore
SplineSet
202 1 m 5,0,-1
 272 1 l 5,1,2
 272 -82 272 -82 233 -128 c 28,3,4
 196 -171 196 -171 96 -177 c 5,5,-1
 96 -107 l 5,6,7
 152.655273438 -104.344726562 152.655273438 -104.344726562 181 -76 c 4,8,9
 200 -57 200 -57 202 1 c 5,0,-1
EndSplineSet
EndChar

StartChar: uni035E
Encoding: 862 862 1084
Width: 679
Flags: W
LayerCount: 2
Fore
SplineSet
339 609 m 1,0,-1
 679 609 l 1,1,-1
 679 539 l 1,2,-1
 339 539 l 1,3,-1
 339 609 l 1,0,-1
0 609 m 1,4,-1
 340 609 l 1,5,-1
 340 539 l 1,6,-1
 0 539 l 1,7,-1
 0 609 l 1,4,-1
EndSplineSet
EndChar

StartChar: uni035F
Encoding: 863 863 1085
Width: 679
Flags: W
LayerCount: 2
Fore
SplineSet
339 -61 m 5,0,-1
 679 -61 l 5,1,-1
 679 -131 l 5,2,-1
 339 -131 l 5,3,-1
 339 -61 l 5,0,-1
0 -61 m 5,4,-1
 340 -61 l 5,5,-1
 340 -131 l 5,6,-1
 0 -131 l 5,7,-1
 0 -61 l 5,4,-1
EndSplineSet
EndChar

StartChar: uni02C2
Encoding: 706 706 1086
Width: 409
Flags: W
LayerCount: 2
Fore
SplineSet
338 416 m 1,0,-1
 379 354 l 1,1,-1
 117 219 l 1,2,-1
 379 29 l 1,3,-1
 334 -27 l 1,4,-1
 31 197 l 1,5,-1
 31 248 l 1,6,-1
 338 416 l 1,0,-1
EndSplineSet
EndChar

StartChar: uni02C3
Encoding: 707 707 1087
Width: 409
Flags: W
LayerCount: 2
Fore
SplineSet
73 416 m 1,0,-1
 32 354 l 1,1,-1
 294 219 l 1,2,-1
 32 29 l 1,3,-1
 77 -27 l 1,4,-1
 380 197 l 1,5,-1
 380 248 l 1,6,-1
 73 416 l 1,0,-1
EndSplineSet
EndChar

StartChar: Thorn
Encoding: 222 222 1101
Width: 512
Flags: W
LayerCount: 2
Fore
SplineSet
31 614 m 1,0,-1
 31 0 l 1,1,-1
 94 0 l 1,2,-1
 94 614 l 1,3,-1
 31 614 l 1,0,-1
56 413 m 5,4,-1
 263 412 l 6,5,6
 346 412 346 412 378.5 385.5 c 4,7,8
 410 360 410 360 410 306 c 4,9,10
 410 268 410 268 376.5 241.5 c 4,11,12
 343.3522545 215.278649082 343.3522545 215.278649082 284 215 c 6,13,-1
 71 214 l 5,14,-1
 73 142 l 5,15,-1
 286 141 l 6,16,17
 360 141 360 141 420.5 188.5 c 132,-1,18
 481 236 481 236 481 305 c 4,19,20
 481 391 481 391 421 437.5 c 132,-1,21
 361 484 361 484 267 484 c 6,22,-1
 56 484 l 5,23,-1
 56 413 l 5,4,-1
EndSplineSet
EndChar

StartChar: dcroat
Encoding: 273 273 1102
Width: 409
Flags: W
LayerCount: 2
Fore
SplineSet
207 663 m 5,0,-1
 407 663 l 5,1,-1
 407 593 l 5,2,-1
 207 593 l 5,3,-1
 207 663 l 5,0,-1
307 819 m 1,4,-1
 379 819 l 1,5,-1
 379 240.88 l 2,6,7
 381 224 381 224 381 206 c 128,-1,8
 381 188 381 188 379 171.12 c 2,9,-1
 379 0 l 1,10,-1
 307 0 l 1,11,-1
 307 29.080890627 l 1,12,13
 263.775025454 -8 263.775025454 -8 205 -8 c 0,14,15
 129 -8 129 -8 78.5 54.5 c 128,-1,16
 28 117 28 117 28 206 c 128,-1,17
 28 295 28 295 78.5 357.5 c 128,-1,18
 129 420 129 420 205 420 c 0,19,20
 263.775025454 420 263.775025454 420 307 382.919109373 c 1,21,-1
 307 819 l 1,4,-1
100 207 m 128,-1,23
 100 143 100 143 127.5 104 c 128,-1,24
 155 65 155 65 205 65 c 128,-1,25
 255 65 255 65 282 104 c 0,26,27
 301.651530772 132.385544448 301.651530772 132.385544448 307 174.014664399 c 1,28,-1
 307 239.948298564 l 1,29,30
 301.651530772 281.478372789 301.651530772 281.478372789 282 309.5 c 0,31,32
 255 348 255 348 205 348 c 128,-1,33
 155 348 155 348 127.5 309.5 c 128,-1,22
 100 271 100 271 100 207 c 128,-1,23
EndSplineSet
EndChar

StartChar: Hbar
Encoding: 294 294 1103
Width: 512
Flags: W
LayerCount: 2
Fore
SplineSet
0 500 m 5,0,-1
 512 500 l 5,1,-1
 512 430 l 5,2,-1
 0 430 l 5,3,-1
 0 500 l 5,0,-1
31 614 m 1,4,-1
 102 614 l 1,5,-1
 102 343 l 1,6,-1
 410 343 l 1,7,-1
 410 614 l 1,8,-1
 481 614 l 1,9,-1
 481 2 l 1,10,-1
 410 0 l 1,11,-1
 410 257 l 1,12,-1
 102 257 l 1,13,-1
 102 0 l 1,14,-1
 31 0 l 1,15,-1
 31 614 l 1,4,-1
EndSplineSet
EndChar

StartChar: hbar
Encoding: 295 295 1104
Width: 382
Flags: W
LayerCount: 2
Fore
SplineSet
0 649 m 5,0,-1
 200 649 l 5,1,-1
 200 579 l 5,2,-1
 0 579 l 5,3,-1
 0 649 l 5,0,-1
31 820 m 1,4,-1
 103 820 l 1,5,-1
 103 388.62754045 l 1,6,7
 155.912024841 424 155.912024841 424 205 424 c 0,8,9
 238 424 238 424 275 411 c 128,-1,10
 312 398 312 398 342.5 367.5 c 128,-1,11
 373 337 373 337 374 296 c 0,12,13
 374 293 374 293 375.5 245.5 c 128,-1,14
 377 198 377 198 378.5 128.5 c 128,-1,15
 380 59 380 59 380 0 c 1,16,-1
 308 0 l 1,17,-1
 309 284 l 2,18,19
 309 319 309 319 277 335.5 c 128,-1,20
 245 352 245 352 207 352 c 0,21,22
 173 352 173 352 151.5 339.5 c 128,-1,23
 130 327 130 327 103 297 c 1,24,-1
 103 0 l 1,25,-1
 31 0 l 1,26,-1
 31 820 l 1,4,-1
EndSplineSet
EndChar

StartChar: kgreenlandic
Encoding: 312 312 1105
Width: 409
Flags: W
LayerCount: 2
Fore
SplineSet
31 0 m 1,0,-1
 102 0 l 1,1,-1
 102 165.747440273 l 1,2,-1
 330 0 l 1,3,-1
 376 62 l 1,4,-1
 141.791540523 230.211573989 l 1,5,-1
 386 354 l 1,6,-1
 346 418 l 1,7,-1
 102 295.580756014 l 1,8,-1
 102 400 l 5,9,-1
 31 400 l 5,10,-1
 31 0 l 1,0,-1
EndSplineSet
EndChar

StartChar: cent
Encoding: 162 162 1106
Width: 409
Flags: W
LayerCount: 2
Fore
SplineSet
171 60 m 5,0,-1
 241 60 l 5,1,-1
 241 -93 l 5,2,-1
 171 -93 l 5,3,-1
 171 60 l 5,0,-1
171 520 m 1,4,-1
 241 520 l 1,5,-1
 241 367 l 1,6,-1
 171 367 l 1,7,-1
 171 520 l 1,4,-1
325 303 m 1,8,9
 296 320 296 320 281.5 327.5 c 128,-1,10
 267 335 267 335 246 341.5 c 128,-1,11
 225 348 225 348 205 348 c 0,12,13
 155 348 155 348 127.5 309.5 c 128,-1,14
 100 271 100 271 100 207 c 128,-1,15
 100 143 100 143 127.5 104 c 128,-1,16
 155 65 155 65 205 65 c 0,17,18
 237 65 237 65 273 79 c 128,-1,19
 309 93 309 93 330 109 c 1,20,-1
 378 55 l 1,21,22
 302 -8 302 -8 205 -8 c 0,23,24
 129 -8 129 -8 78.5 54.5 c 128,-1,25
 28 117 28 117 28 206 c 128,-1,26
 28 295 28 295 78.5 357.5 c 128,-1,27
 129 420 129 420 205 420 c 0,28,29
 243 420 243 420 294 399 c 128,-1,30
 345 378 345 378 380 348 c 1,31,-1
 325 303 l 1,8,9
EndSplineSet
EndChar

StartChar: eng
Encoding: 331 331 1107
Width: 409
Flags: W
LayerCount: 2
Fore
SplineSet
30 414 m 1,0,-1
 101 414 l 1,1,-1
 101 388.564453125 l 1,2,3
 154.17578125 424 154.17578125 424 204 424 c 0,4,5
 258 424 258 424 308.5 400.5 c 128,-1,6
 359 377 359 377 373 327 c 0,7,8
 378 308 378 308 378 0 c 1,9,-1
 306 0 l 1,10,-1
 306 301 l 2,11,12
 305 352 305 352 206 352 c 0,13,14
 172 352 172 352 150 339 c 128,-1,15
 128 326 128 326 101 297 c 1,16,-1
 101 0 l 1,17,-1
 30 0 l 1,18,-1
 30 414 l 1,0,-1
377 184 m 5,19,-1
 379 -13 l 6,20,21
 379.82421875 -94.1865234375 379.82421875 -94.1865234375 324.5 -153 c 4,22,23
 270 -210 270 -210 217 -209 c 4,24,25
 165 -208 165 -208 112 -186 c 132,-1,26
 59 -164 59 -164 31 -125 c 5,27,-1
 91 -74 l 5,28,29
 112 -137 112 -137 217 -137 c 4,30,31
 241 -137 241 -137 273 -94 c 4,32,33
 306 -50 306 -50 306 -11 c 6,34,-1
 306 184 l 5,35,-1
 377 184 l 5,19,-1
EndSplineSet
EndChar

StartChar: Lslash
Encoding: 321 321 1108
Width: 512
Flags: W
LayerCount: 2
Fore
SplineSet
-15.1513671875 382.770507812 m 5,0,-1
 167.646484375 450.666015625 l 5,1,-1
 192.01953125 385.046875 l 5,2,-1
 9.2216796875 317.150390625 l 5,3,-1
 -15.1513671875 382.770507812 l 5,0,-1
47 66 m 1,4,-1
 481 66 l 1,5,-1
 481 0 l 1,6,-1
 47 0 l 1,7,-1
 47 66 l 1,4,-1
31 614 m 1,8,-1
 102 614 l 1,9,-1
 102 0 l 1,10,-1
 31 0 l 1,11,-1
 31 614 l 1,8,-1
EndSplineSet
EndChar

StartChar: lslash
Encoding: 322 322 1109
Width: 204
Flags: W
LayerCount: 2
Fore
SplineSet
-15.1513671875 434.770507812 m 5,0,-1
 167.646484375 502.666015625 l 5,1,-1
 192.01953125 437.046875 l 5,2,-1
 9.2216796875 369.150390625 l 5,3,-1
 -15.1513671875 434.770507812 l 5,0,-1
31 819 m 1,4,-1
 103 819 l 1,5,-1
 103 194 l 2,6,7
 104 154 104 154 136 111 c 128,-1,8
 168 68 168 68 192 68 c 0,9,10
 244 68 244 68 272 90 c 1,11,-1
 295 27 l 1,12,13
 256 7 256 7 239 1.5 c 128,-1,14
 222 -4 222 -4 192 -4 c 0,15,16
 138 -4 138 -4 83.5 52.5 c 128,-1,17
 29 109 29 109 29 191 c 2,18,-1
 31 819 l 1,4,-1
EndSplineSet
EndChar

StartChar: Tbar
Encoding: 358 358 1110
Width: 512
Flags: W
LayerCount: 2
Fore
SplineSet
167 374 m 5,0,-1
 353 374 l 5,1,-1
 353 304 l 5,2,-1
 167 304 l 5,3,-1
 167 374 l 5,0,-1
224 594 m 1,4,-1
 296 594 l 1,5,-1
 296 0 l 1,6,-1
 224 0 l 1,7,-1
 224 594 l 1,4,-1
31 614 m 1,8,-1
 481 614 l 1,9,-1
 481 541 l 1,10,-1
 31 541 l 1,11,-1
 31 614 l 1,8,-1
EndSplineSet
EndChar

StartChar: tbar
Encoding: 359 359 1111
Width: 409
Flags: W
LayerCount: 2
Fore
SplineSet
27 300 m 1,0,-1
 213 300 l 1,1,-1
 213 230 l 1,2,-1
 27 230 l 1,3,-1
 27 300 l 1,0,-1
100 614 m 1,4,-1
 172 614 l 1,5,-1
 172 442 l 1,6,-1
 377 442 l 1,7,-1
 377 371 l 1,8,-1
 172 371 l 1,9,-1
 172 196 l 2,10,11
 173 154 173 154 194 112 c 128,-1,12
 215 70 215 70 238 70 c 0,13,14
 270 70 270 70 288 84.5 c 128,-1,15
 306 99 306 99 331 136 c 1,16,-1
 380 82 l 1,17,18
 349 50 349 50 335 37 c 128,-1,19
 321 24 321 24 294.5 11 c 128,-1,20
 268 -2 268 -2 238 -2 c 0,21,22
 187 -3 187 -3 142.5 53.5 c 128,-1,23
 98 110 98 110 98 194 c 2,24,-1
 98.8428571429 371 l 1,25,-1
 27 371 l 1,26,-1
 27 442 l 1,27,-1
 99.180952381 442 l 1,28,-1
 100 614 l 1,4,-1
EndSplineSet
EndChar

StartChar: uni01B5
Encoding: 437 437 1112
Width: 512
Flags: W
LayerCount: 2
Fore
SplineSet
161 364 m 5,0,-1
 161 294 l 5,1,-1
 370 294 l 5,2,-1
 370 364 l 5,3,-1
 161 364 l 5,0,-1
31 614 m 1,4,-1
 31 543 l 1,5,-1
 412 543 l 1,6,-1
 31 111 l 1,7,-1
 31 0 l 1,8,-1
 481 0 l 1,9,-1
 481 72 l 1,10,-1
 96 72 l 1,11,-1
 481 515 l 1,12,-1
 481 614 l 1,13,-1
 31 614 l 1,4,-1
EndSplineSet
EndChar

StartChar: uni0197
Encoding: 407 407 1113
Width: 133
Flags: W
LayerCount: 2
Fore
SplineSet
-15 372 m 5,0,-1
 145 372 l 5,1,-1
 145 302 l 5,2,-1
 -15 302 l 5,3,-1
 -15 372 l 5,0,-1
31 614 m 1,4,-1
 102 614 l 1,5,-1
 102 0 l 1,6,-1
 31 0 l 1,7,-1
 31 614 l 1,4,-1
EndSplineSet
EndChar

StartChar: uni019A
Encoding: 410 410 1114
Width: 204
Flags: W
LayerCount: 2
Fore
SplineSet
0 451 m 5,0,-1
 160 451 l 5,1,-1
 160 381 l 5,2,-1
 0 381 l 5,3,-1
 0 451 l 5,0,-1
31 819 m 1,4,-1
 103 819 l 1,5,-1
 103 194 l 2,6,7
 104 154 104 154 136 111 c 128,-1,8
 168 68 168 68 192 68 c 0,9,10
 244 68 244 68 272 90 c 1,11,-1
 295 27 l 1,12,13
 256 7 256 7 239 1.5 c 128,-1,14
 222 -4 222 -4 192 -4 c 0,15,16
 138 -4 138 -4 83.5 52.5 c 128,-1,17
 29 109 29 109 29 191 c 2,18,-1
 31 819 l 1,4,-1
EndSplineSet
EndChar

StartChar: uni01E4
Encoding: 484 484 1115
Width: 512
Flags: W
LayerCount: 2
Fore
SplineSet
352 229 m 5,0,-1
 512 229 l 5,1,-1
 512 159 l 5,2,-1
 352 159 l 5,3,-1
 352 229 l 5,0,-1
436 490 m 1,4,5
 424 495 424 495 398 507.5 c 128,-1,6
 372 520 372 520 361 524 c 128,-1,7
 350 528 350 528 331 535 c 128,-1,8
 312 542 312 542 294.5 544 c 128,-1,9
 277 546 277 546 256 546 c 0,10,11
 186 546 186 546 143 472.5 c 128,-1,12
 100 399 100 399 100 309 c 0,13,14
 100 186 100 186 142 125.5 c 128,-1,15
 184 65 184 65 256 65 c 0,16,17
 322.810803042 65 322.810803042 65 410 124.504910232 c 1,18,-1
 410 253 l 1,19,-1
 314 253 l 1,20,-1
 314 325 l 1,21,-1
 531 325 l 1,22,-1
 531 253 l 1,23,-1
 481 253 l 1,24,-1
 481 90.9056603774 l 1,25,-1
 482 90 l 1,26,27
 481.764171542 89.7641715422 481.764171542 89.7641715422 481 89.0834225923 c 2,28,-1
 481 -40 l 1,29,-1
 410 -40 l 1,30,-1
 410 35.6826303574 l 1,31,32
 405.739559354 33.1049240615 405.739559354 33.1049240615 400.5 30 c 0,33,34
 387 22 387 22 376.5 17.5 c 128,-1,35
 366 13 366 13 350.5 7.5 c 128,-1,36
 335 2 335 2 321.5 -1 c 128,-1,37
 308 -4 308 -4 290.5 -6 c 128,-1,38
 273 -8 273 -8 256 -8 c 0,39,40
 28 -8 28 -8 28 308 c 0,41,42
 28 454 28 454 86 535.5 c 128,-1,43
 144 617 144 617 256 617 c 0,44,45
 372 617 372 617 481 546 c 1,46,-1
 436 490 l 1,4,5
EndSplineSet
EndChar

StartChar: OE
Encoding: 338 338 1116
Width: 669
Flags: W
LayerCount: 2
Fore
SplineSet
401 592 m 1,0,-1
 401 521 l 1,1,-1
 252 521 l 2,2,3
 147 521 147 521 122.5 486.5 c 0,4,5
 84 433 84 433 84 304 c 0,6,7
 84 199 84 199 129 137 c 0,8,9
 174.668945312 73.4599609375 174.668945312 73.4599609375 246 73 c 2,10,-1
 401 72 l 1,11,-1
 401 0 l 1,12,-1
 246 0 l 2,13,14
 150 0 150 0 81.5 86 c 128,-1,15
 13 172 13 172 13 307 c 0,16,17
 13 456 13 456 72.5 524 c 128,-1,18
 132 592 132 592 244 592 c 2,19,-1
 401 592 l 1,0,-1
402 521 m 1,20,-1
 402 341 l 1,21,-1
 661 341 l 1,22,-1
 661 270 l 1,23,-1
 402 270 l 1,24,-1
 402 71 l 1,25,-1
 661 71 l 1,26,-1
 661 0 l 1,27,-1
 402 0 l 1,28,-1
 346 0 l 1,29,-1
 330 0 l 1,30,-1
 330 592 l 1,31,-1
 346 592 l 1,32,-1
 402 592 l 1,33,-1
 661 592 l 1,34,-1
 661 521 l 1,35,-1
 402 521 l 1,20,-1
EndSplineSet
EndChar

StartChar: uni01B6
Encoding: 438 438 1117
Width: 409
Flags: W
LayerCount: 2
Fore
SplineSet
90 244 m 5,0,-1
 90 174 l 5,1,-1
 299 174 l 5,2,-1
 299 244 l 5,3,-1
 90 244 l 5,0,-1
31 410 m 1,4,-1
 31 338 l 1,5,-1
 293 338 l 1,6,-1
 27 90 l 1,7,-1
 31 0 l 1,8,-1
 379 0 l 1,9,-1
 379 72 l 1,10,-1
 90 65 l 1,11,-1
 379 338 l 1,12,-1
 379 411 l 1,13,-1
 31 410 l 1,4,-1
EndSplineSet
EndChar

StartChar: uni01E5
Encoding: 485 485 1118
Width: 409
Flags: W
LayerCount: 2
Fore
SplineSet
249 -31 m 5,0,-1
 409 -31 l 5,1,-1
 409 -101 l 5,2,-1
 249 -101 l 5,3,-1
 249 -31 l 5,0,-1
100 207 m 128,-1,5
 100 143 100 143 127.5 104 c 128,-1,6
 155 65 155 65 205 65 c 128,-1,7
 255 65 255 65 280.5 103.5 c 128,-1,8
 306 142 306 142 306 207 c 128,-1,9
 306 272 306 272 280.5 310 c 128,-1,10
 255 348 255 348 205 348 c 128,-1,11
 155 348 155 348 127.5 309.5 c 128,-1,4
 100 271 100 271 100 207 c 128,-1,5
28 206 m 128,-1,13
 28 295 28 295 78.5 357.5 c 128,-1,14
 129 420 129 420 205 420 c 0,15,16
 263.169770256 420 263.169770256 420 306 382.703862286 c 1,17,-1
 306 410 l 1,18,-1
 378 410 l 1,19,-1
 378.93352983 212.558441029 l 2,20,21
 379 209.298020159 379 209.298020159 379 206 c 0,22,23
 379 204.241980181 379 204.241980181 378.981112794 202.494644035 c 2,24,-1
 380 -13 l 2,25,26
 380 -96 380 -96 325 -153 c 128,-1,27
 270 -210 270 -210 217 -209 c 0,28,29
 165 -208 165 -208 112.5 -186 c 128,-1,30
 60 -164 60 -164 32 -125 c 1,31,-1
 91 -74 l 1,32,33
 112 -137 112 -137 217 -137 c 0,34,35
 241 -137 241 -137 273 -94 c 128,-1,36
 305 -51 305 -51 306 -11 c 2,37,-1
 306 29.2961377135 l 1,38,39
 263.169770256 -8 263.169770256 -8 205 -8 c 0,40,41
 129 -8 129 -8 78.5 54.5 c 128,-1,12
 28 117 28 117 28 206 c 128,-1,13
EndSplineSet
EndChar

StartChar: germandbls
Encoding: 223 223 1119
Width: 409
InSpiro: 1
Flags: W
LayerCount: 2
Fore
SplineSet
157 95 m 1,0,-1
 126 35 l 1,1,2
 171 -2 171 -2 230 8.881784197e-16 c 0,3,4
 293.862077725 2.24734999572 293.862077725 2.24734999572 337.478249937 48.6517393028 c 128,-1,5
 381.311008969 95.2865610059 381.311008969 95.2865610059 379 159 c 0,6,7
 376.858258686 218.046808737 376.858258686 218.046808737 335.441280559 260.060639271 c 128,-1,8
 293.97884501 302.120582306 293.97884501 302.120582306 235 305 c 1,9,10
 300 352 300 352 304 433 c 0,11,12
 307.055909393 496.139264057 307.055909393 496.139264057 268.082865377 545.238382329 c 128,-1,13
 227.338704143 596.568793947 227.338704143 596.568793947 166 603 c 0,14,15
 134.9312887 606.257474819 134.9312887 606.257474819 107.165551481 595.424943045 c 128,-1,16
 78.5283660376 584.25242424 78.5283660376 584.25242424 59.397554125 560.448830802 c 128,-1,17
 41.2316328225 537.845806576 41.2316328225 537.845806576 34.4776366596 506.593668663 c 128,-1,18
 30 485.874717241 30 485.874717241 30 447 c 2,19,-1
 30 0 l 1,20,-1
 100 0 l 1,21,-1
 100 451 l 2,22,23
 100 470.139075822 100 470.139075822 101.812024645 480.263819719 c 128,-1,24
 104.592501309 495.799819309 104.592501309 495.799819309 112.32167713 507.459085265 c 128,-1,25
 120.691277523 520.084415468 120.691277523 520.084415468 133.775191914 527.061585505 c 128,-1,26
 146.861026047 534.03977927 146.861026047 534.03977927 162 534 c 0,27,28
 179.322535982 533.954483187 179.322535982 533.954483187 194.913654012 524.846367274 c 128,-1,29
 209.699303155 516.208795165 209.699303155 516.208795165 219.685033028 501.17664171 c 0,30,31
 238.464414004 472.90684669 238.464414004 472.90684669 234 435 c 0,32,33
 229.481668443 396.635345317 229.481668443 396.635345317 202.764415324 364.388422983 c 128,-1,34
 177.409389941 333.785668623 177.409389941 333.785668623 140 319 c 1,35,-1
 136 249 l 1,36,37
 170 256 170 256 204 251 c 0,38,39
 246.618515084 244.811154965 246.618515084 244.811154965 274.547976596 221.667085302 c 0,40,41
 290.126591703 208.757686631 290.126591703 208.757686631 299.005910695 192.019381372 c 128,-1,42
 308.394205947 174.321610638 308.394205947 174.321610638 309 155 c 0,43,44
 310.107827174 119.666201006 310.107827174 119.666201006 284.531793995 94.7371321606 c 128,-1,45
 259.902386217 70.7307431391 259.902386217 70.7307431391 224 70 c 0,46,47
 186 69 186 69 157 95 c 1,0,-1
  Spiro
    157 95 v
    126 35 v
    230 0 o
    379 159 o
    235 305 v
    304 433 o
    166 603 o
    30 447 [
    30 0 v
    100 0 v
    100 451 ]
    162 534 o
    234 435 o
    140 319 v
    136 249 v
    204 251 o
    309 155 o
    224 70 o
    0 0 z
  EndSpiro
EndSplineSet
EndChar

StartChar: oe
Encoding: 339 339 1120
Width: 661
Flags: W
LayerCount: 2
Fore
SplineSet
578 206 m 1024,0,-1
381.553710938 170 m 1,1,2
 388 125 388 125 403 104 c 0,3,4
 430 65 430 65 477 65 c 0,5,6
 523 65 523 65 549 96 c 1,7,-1
 596 42 l 1,8,9
 549 -8 549 -8 477 -8 c 0,10,11
 401 -8 401 -8 354 54 c 128,-1,12
 307 116 307 116 307 206 c 128,-1,13
 307 296 307 296 354 358 c 128,-1,14
 401 420 401 420 475.5 420 c 128,-1,15
 550 420 550 420 600.5 357.5 c 0,16,17
 640 308 640 308 648.799804688 242 c 1,18,-1
 649 242 l 1,19,-1
 649 240.374023438 l 2,20,21
 651 224 651 224 651 206 c 2,22,-1
 651 205 l 1,23,-1
 652 170 l 1,24,-1
 649 170 l 1,25,-1
 381.553710938 170 l 1,1,2
576.68359375 242 m 1,26,27
 571 282 571 282 551.5 309.5 c 0,28,29
 524 348 524 348 477 348 c 0,30,31
 432 348 432 348 403 309.5 c 0,32,33
 387 288 387 288 381.274414062 242 c 1,34,-1
 576.68359375 242 l 1,26,27
28 206 m 128,-1,36
 28 295 28 295 77 357.5 c 128,-1,37
 126 420 126 420 200.5 420 c 128,-1,38
 275 420 275 420 327 357.5 c 128,-1,39
 379 295 379 295 379 206 c 128,-1,40
 379 117 379 117 327 54.5 c 128,-1,41
 275 -8 275 -8 200.5 -8 c 128,-1,42
 126 -8 126 -8 77 54.5 c 128,-1,35
 28 117 28 117 28 206 c 128,-1,36
100 207 m 128,-1,44
 100 143 100 143 126 104 c 128,-1,45
 152 65 152 65 202 65 c 128,-1,46
 252 65 252 65 279 104 c 128,-1,47
 306 143 306 143 306 207 c 128,-1,48
 306 271 306 271 279 309.5 c 128,-1,49
 252 348 252 348 202 348 c 128,-1,50
 152 348 152 348 126 309.5 c 128,-1,43
 100 271 100 271 100 207 c 128,-1,44
EndSplineSet
EndChar

StartChar: Eng
Encoding: 330 330 1121
Width: 409
Flags: W
LayerCount: 2
Fore
SplineSet
30 600 m 1,0,-1
 101 600 l 1,1,-1
 101 574.564453125 l 1,2,3
 154 610 154 610 204 610 c 0,4,5
 258 610 258 610 308.5 586.5 c 128,-1,6
 359 563 359 563 373 513 c 0,7,8
 378 494 378 494 378 192 c 1,9,-1
 306 192 l 1,10,-1
 306 487 l 2,11,12
 306 538 306 538 206 538 c 0,13,14
 172 538 172 538 150 525 c 128,-1,15
 128 512 128 512 101 483 c 1,16,-1
 101 0 l 1,17,-1
 30 0 l 1,18,-1
 30 600 l 1,0,-1
377 370 m 1,19,-1
 379 179 l 2,20,21
 380 66 380 66 354.5 39 c 0,22,23
 300 -17 300 -17 247 -17 c 0,24,25
 195 -16 195 -16 167 6 c 128,-1,26
 139 28 139 28 111 67 c 1,27,-1
 171 118 l 1,28,29
 192 55 192 55 247 55 c 0,30,31
 275 55 275 55 290 73 c 0,32,33
 306 92 306 92 306 181 c 2,34,-1
 306 370 l 1,35,-1
 377 370 l 1,19,-1
EndSplineSet
EndChar

StartChar: ordmasculine
Encoding: 186 186 1122
Width: 409
Flags: W
LayerCount: 2
Fore
SplineSet
167 615.5 m 132,-1,1
 167 601 167 601 175 589.5 c 132,-1,2
 183 578 183 578 202 578 c 4,3,4
 215 578 215 578 226.25 590.25 c 4,5,6
 234 599 234 599 234 613 c 4,7,8
 234 629.77734375 234 629.77734375 229 637 c 4,9,10
 220 650 220 650 197 650 c 4,11,12
 184 649 184 649 175.5 640 c 4,13,0
 167 630 167 630 167 615.5 c 132,-1,1
113 616 m 132,-1,15
 113 652 113 652 138 677 c 132,-1,16
 163 702 163 702 199 702 c 132,-1,17
 235 702 235 702 260 677 c 132,-1,18
 285 652 285 652 285 616 c 132,-1,19
 285 580 285 580 260 555 c 132,-1,20
 235 530 235 530 199 530 c 132,-1,21
 163 530 163 530 138 555 c 132,-1,14
 113 580 113 580 113 616 c 132,-1,15
EndSplineSet
EndChar

StartChar: uni0259
Encoding: 601 601 1123
Width: 399
Flags: W
LayerCount: 2
Fore
SplineSet
98 206 m 1028,0,-1
303.446289062 242 m 5,1,2
 297.696289062 280.994140625 297.696289062 280.994140625 279 308 c 4,3,4
 252 347 252 347 202 347 c 4,5,6
 156 347 156 347 130 316 c 5,7,-1
 83 370 l 5,8,9
 130 420 130 420 202 420 c 4,10,11
 278 420 278 420 328 358 c 132,-1,12
 378 296 378 296 378 206 c 132,-1,13
 378 116 378 116 328 54 c 132,-1,14
 278 -8 278 -8 202 -8 c 132,-1,15
 126 -8 126 -8 75.5 54.5 c 4,16,17
 35.541015625 103.954101562 35.541015625 103.954101562 27.2001953125 170 c 5,18,-1
 27 170 l 5,19,-1
 27 171.625976562 l 6,20,21
 25 188.288085938 25 188.288085938 25 206 c 6,22,-1
 25 207 l 5,23,-1
 24 242 l 5,24,-1
 27 242 l 5,25,-1
 303.446289062 242 l 5,1,2
99.31640625 170 m 5,26,27
 104.981445312 129.826171875 104.981445312 129.826171875 124.5 102.5 c 4,28,29
 152 64 152 64 202 64 c 132,-1,30
 252 64 252 64 279 102.5 c 4,31,32
 298.1640625 129.826171875 298.1640625 129.826171875 303.725585938 170 c 5,33,-1
 99.31640625 170 l 5,26,27
EndSplineSet
EndChar

StartChar: uni025F
Encoding: 607 607 1124
Width: 409
Flags: W
LayerCount: 2
Fore
SplineSet
322 434 m 1,0,-1
 250 434 l 1,1,-1
 250 72 l 5,2,-1
 45 72 l 5,3,-1
 45 0 l 5,4,-1
 250 0 l 5,5,-1
 250 -17 l 6,6,7
 250 -87 250 -87 228 -130.5 c 0,8,9
 207 -172 207 -172 184 -172 c 0,10,11
 152 -172 152 -172 124.5 -143.5 c 128,-1,12
 97 -115 97 -115 83 -73 c 1,13,-1
 12 -113 l 1,14,15
 106 -243 106 -243 184 -244 c 0,16,17
 250.186193794 -245.050574505 250.186193794 -245.050574505 279.5 -189 c 4,18,19
 326 -103 326 -103 324 -19 c 6,20,-1
 323.489257812 0 l 5,21,-1
 392 0 l 5,22,-1
 392 72 l 5,23,-1
 323.258789062 72 l 5,24,-1
 322 434 l 1,0,-1
EndSplineSet
EndChar

StartChar: uni027A
Encoding: 634 634 1125
Width: 409
Flags: W
LayerCount: 2
Fore
SplineSet
372 1 m 1,0,-1
 301 1 l 1,1,-1
 301 26.435546875 l 1,2,3
 248 -9 248 -9 198 -9 c 0,4,5
 155 -9 155 -9 107 16 c 128,-1,6
 59 41 59 41 26 79 c 1,7,-1
 80 117 l 1,8,9
 134 63 134 63 196 63 c 0,10,11
 230 63 230 63 252 76 c 128,-1,12
 274 89 274 89 301 118 c 1,13,-1
 301 822 l 5,14,-1
 372 822 l 5,15,-1
 372 1 l 1,0,-1
EndSplineSet
EndChar

StartChar: uni0251
Encoding: 593 593 1126
Width: 409
InSpiro: 1
Flags: W
LayerCount: 2
Fore
SplineSet
100 207 m 128,-1,1
 100 143 100 143 127.5 104 c 128,-1,2
 155 65 155 65 205 65 c 128,-1,3
 255 65 255 65 280.5 103.5 c 128,-1,4
 306 142 306 142 306 207 c 128,-1,5
 306 272 306 272 280.5 310 c 128,-1,6
 255 348 255 348 205 348 c 128,-1,7
 155 348 155 348 127.5 309.5 c 128,-1,0
 100 271 100 271 100 207 c 128,-1,1
28 206 m 128,-1,9
 28 295 28 295 78.5 357.5 c 128,-1,10
 129 420 129 420 205 420 c 0,11,12
 263.169770256 420 263.169770256 420 306 382.703862286 c 1,13,-1
 306 414 l 1,14,-1
 378 414 l 1,15,-1
 378 231.018429397 l 2,16,17
 379 218.792042981 379 218.792042981 379 206 c 128,-1,18
 379 193.207957019 379 193.207957019 378 180.981570603 c 2,19,-1
 378 0 l 1,20,-1
 306 0 l 1,21,-1
 306 29.2961377135 l 1,22,23
 263.169770256 -8 263.169770256 -8 205 -8 c 0,24,25
 129 -8 129 -8 78.5 54.5 c 128,-1,8
 28 117 28 117 28 206 c 128,-1,9
EndSplineSet
EndChar

StartChar: uni0252
Encoding: 594 594 1127
Width: 409
Flags: W
LayerCount: 2
Fore
SplineSet
313 207 m 132,-1,1
 313 143 313 143 285.5 104 c 132,-1,2
 258 65 258 65 208 65 c 132,-1,3
 158 65 158 65 132.5 103.5 c 132,-1,4
 107 142 107 142 107 207 c 132,-1,5
 107 272 107 272 132.5 310 c 132,-1,6
 158 348 158 348 208 348 c 132,-1,7
 258 348 258 348 285.5 309.5 c 132,-1,0
 313 271 313 271 313 207 c 132,-1,1
385 206 m 132,-1,9
 385 295 385 295 334.5 357.5 c 132,-1,10
 284 420 284 420 208 420 c 4,11,12
 149.830078125 420 149.830078125 420 107 382.704101562 c 5,13,-1
 107 414 l 5,14,-1
 35 414 l 5,15,-1
 35 231.018554688 l 6,16,17
 34 218.791992188 34 218.791992188 34 206 c 132,-1,18
 34 193.208007812 34 193.208007812 35 180.981445312 c 6,19,-1
 35 0 l 5,20,-1
 107 0 l 5,21,-1
 107 29.2958984375 l 5,22,23
 149.830078125 -8 149.830078125 -8 208 -8 c 4,24,25
 284 -8 284 -8 334.5 54.5 c 132,-1,8
 385 117 385 117 385 206 c 132,-1,9
EndSplineSet
EndChar

StartChar: uni024D
Encoding: 589 589 1128
Width: 409
Flags: W
LayerCount: 2
Fore
SplineSet
0 237 m 5,0,-1
 171 237 l 5,1,-1
 171 167 l 5,2,-1
 0 167 l 5,3,-1
 0 237 l 5,0,-1
31 414 m 1,4,-1
 102 414 l 1,5,-1
 102 388.564095987 l 1,6,7
 155.176022487 424 155.176022487 424 205 424 c 0,8,9
 248 424 248 424 296 399 c 128,-1,10
 344 374 344 374 377 336 c 1,11,-1
 323 298 l 1,12,13
 269 352 269 352 207 352 c 0,14,15
 173 352 173 352 151 339 c 128,-1,16
 129 326 129 326 102 297 c 1,17,-1
 102 0 l 1,18,-1
 31 0 l 1,19,-1
 31 414 l 1,4,-1
EndSplineSet
EndChar

StartChar: ae
Encoding: 230 230 1129
Width: 609
InSpiro: 1
Flags: W
LayerCount: 2
Fore
SplineSet
314.553710938 170 m 1,0,1
 591 170 l 1,2,-1
 594 170 l 1,3,-1
 593 205 l 1,4,-1
 593 206 l 2,5,6
 593 223.711914062 593 223.711914062 591 240.374023438 c 2,7,-1
 591 242 l 1,8,-1
 590.799804688 242 l 1,9,10
 582.458984375 308.045898438 582.458984375 308.045898438 542.5 357.5 c 0,11,12
 492 420 492 420 416 420 c 128,-1,13
 340 420 340 420 290 358 c 128,-1,14
 240 296 240 296 240 206 c 128,-1,15
 240 116 240 116 290 54 c 128,-1,16
 340 -8 340 -8 416 -8 c 0,17,18
 488 -8 488 -8 535 42 c 1,19,-1
 488 96 l 1,20,21
 462 65 462 65 416 65 c 0,22,23
 366 65 366 65 339 104 c 0,24,25
 320.303710938 131.005859375 320.303710938 131.005859375 314.553710938 170 c 1,0,1
  Spiro
    591 170 v
    594 170 v
    593 205 v
    593 206 ]
    592.5 223.449 o
    591 240.374 [
    591 242 v
    590.8 242 v
    574.554 303.898 o
    542.5 357.5 o
    485.625 404.375 o
    416 420 o
    346.5 404.5 o
    290 358 o
    252.5 289 o
    240 206 o
    252.5 123 o
    290 54 o
    346.5 7.5 o
    416 -8 o
    481.75 4.5 o
    535 42 v
    488 96 v
    457 72.75 o
    416 65 o
    371.75 74.75 o
    339 104 o
    323.54 134.003 o
    314.554 170 v
    0 0 z
  EndSpiro
518.68359375 242 m 1,26,-1
 314.274414062 242 l 1,27,28
 319.8359375 282.173828125 319.8359375 282.173828125 339 309.5 c 0,29,30
 366 348 366 348 416 348 c 128,-1,31
 466 348 466 348 493.5 309.5 c 0,32,33
 513.018554688 282.173828125 513.018554688 282.173828125 518.68359375 242 c 1,26,-1
  Spiro
    314.274 242 v
    323.237 278.962 o
    339 309.5 o
    371.75 338.375 o
    416 348 o
    460.375 338.375 o
    493.5 309.5 o
    509.555 278.962 o
    518.684 242 v
    0 0 z
  EndSpiro
234 150 m 1,34,35
 234 133 234 133 228 118 c 0,36,37
 218.015753209 90.6091769948 218.015753209 90.6091769948 195.742250383 74.8741834285 c 0
 171.23183516 57.5589354023 171.23183516 57.5589354023 144 62 c 0,39,40
 122.28815117 65.540845581 122.28815117 65.540845581 108.899325078 81.7160319672 c 0
 95.0299726697 98.4717474216 95.0299726697 98.4717474216 97 120 c 0,42,43
 99.1647975256 143.656680897 99.1647975256 143.656680897 119.036586429 159.414084872 c 0
 136.798839187 173.49872484 136.798839187 173.49872484 162 175 c 0,45,46
 202 177 202 177 234 150 c 1,34,35
  Spiro
    228 118 o
    144 62 o
    97 120 o
    162 175 o
    234 150 v
    0 0 z
  EndSpiro
15 355 m 1,47,-1
 49 306 l 1,48,49
 91.09535698 335.06969768 91.09535698 335.06969768 139.264313167 335.06969768 c 0,0,0
 151.373452484 335.06969768 151.373452484 335.06969768 163 333 c 0,50,51
 191.130747144 327.992310313 191.130747144 327.992310313 210.944595331 311.835277315 c 0
 232.636658578 294.146669913 232.636658578 294.146669913 239 268 c 0,53,54
 242 256 242 256 241 237 c 2,55,-1
 240 217 l 1,56,57
 206 244 206 244 162 245 c 0,58,59
 160.983844763 245.01664334 160.983844763 245.01664334 159.967855639 245.01662687 c 0,0,0
 108.495920672 245.01662687 108.495920672 245.01662687 70.1722045077 209.581853407 c 0
 31.1749299884 173.524296193 31.1749299884 173.524296193 27 121 c 0,61,62
 26.6058278994 116.04096782 26.6058278994 116.04096782 26.6058278994 111.036697638 c 0,0,0
 26.6058278994 62.9236278168 26.6058278994 62.9236278168 57.1298096509 29.0158517718 c 0
 90.5491697183 -8.10827528226 90.5491697183 -8.10827528226 141.152260066 -8.10827528226 c 0,0,0
 143.582762539 -8.10827528226 143.582762539 -8.10827528226 146 -8 c 0,64,65
 184.663950825 -6.26812621551 184.663950825 -6.26812621551 219.756559538 19.2559463048 c 0
 250.260721385 41.442682136 250.260721385 41.442682136 273 78 c 0,67,68
 277 84 277 84 280 90 c 2,69,-1
 309 170 l 1,70,-1
 311 233 l 2,71,72
 311.393019571 245.380116476 311.393019571 245.380116476 311.393019571 253.414271393 c 0,0,0
 311.393019571 279.205952514 311.393019571 279.205952514 307.4077348 297.608458762 c 0
 300.169816459 331.030370914 300.169816459 331.030370914 279.297832283 355.340505377 c 128,-1,74
 258.353147055 379.735316615 258.353147055 379.735316615 226.570144136 392.014106603 c 0
 198.129581276 403.001605152 198.129581276 403.001605152 163.817557373 403.001605152 c 0,0,0
 163.408749623 403.001605152 163.408749623 403.001605152 163 403 c 0,76,77
 86 403 86 403 15 355 c 1,47,-1
  Spiro
    15 355 v
    49 306 v
    163 333 o
    239 268 o
    241 237 [
    240 217 v
    162 245 o
    27 121 o
    146 -8 o
    273 78 o
    280 90 v
    309 170 v
    311 233 ]
    163 403 o
    0 0 z
  EndSpiro
EndSplineSet
EndChar

StartChar: uni0271
Encoding: 625 625 1132
Width: 601
Flags: W
LayerCount: 2
Fore
SplineSet
31 414 m 1,0,-1
 102 414 l 1,1,-1
 102 393.043102525 l 1,2,3
 102.84601382 393.626293611 102.84601382 393.626293611 103.5 394 c 0,4,5
 107 396 107 396 115 402 c 128,-1,6
 123 408 123 408 128 410 c 128,-1,7
 133 412 133 412 141 415.5 c 128,-1,8
 149 419 149 419 156 420.5 c 128,-1,9
 163 422 163 422 171.5 423 c 128,-1,10
 180 424 180 424 189 424 c 0,11,12
 241 424 241 424 285 400.5 c 0,13,14
 303.977770379 390.364145366 303.977770379 390.364145366 317.374614592 375.298472618 c 1,15,16
 320.483445169 378.207506817 320.483445169 378.207506817 327 384 c 0,17,18
 336 392 336 392 339.5 394 c 128,-1,19
 343 396 343 396 351 402 c 128,-1,20
 359 408 359 408 364 410 c 128,-1,21
 369 412 369 412 377 415.5 c 128,-1,22
 385 419 385 419 392 420.5 c 128,-1,23
 399 422 399 422 407.5 423 c 128,-1,24
 416 424 416 424 425 424 c 0,25,26
 477 424 477 424 521 400.5 c 128,-1,27
 565 377 565 377 579 327 c 0,28,29
 584 308 584 308 584 0 c 1,30,-1
 512 0 l 1,31,-1
 512 301 l 2,32,33
 512 323 512 323 498 335 c 128,-1,34
 484 347 484 347 468.5 349.5 c 128,-1,35
 453 352 453 352 427 352 c 0,36,37
 413 352 413 352 403 350.5 c 128,-1,38
 393 349 393 349 383 342 c 128,-1,39
 373 335 373 335 369.5 332 c 128,-1,40
 366 329 366 329 354 315.5 c 0,41,42
 348.679694245 309.514656025 348.679694245 309.514656025 344.931924786 305.200131865 c 0,43,44
 348 241.267439613 348 241.267439613 348 0 c 1,45,-1
 276 0 l 1,46,-1
 276 301 l 2,47,48
 276 323 276 323 262 335 c 128,-1,49
 248 347 248 347 232.5 349.5 c 128,-1,50
 217 352 217 352 191 352 c 0,51,52
 177 352 177 352 167 350.5 c 128,-1,53
 157 349 157 349 147 342 c 128,-1,54
 137 335 137 335 133.5 332 c 128,-1,55
 130 329 130 329 118 315.5 c 128,-1,56
 106 302 106 302 102 297 c 1,57,-1
 102 0 l 1,58,-1
 31 0 l 1,59,-1
 31 414 l 1,0,-1
583 184 m 1,60,-1
 584 -13 l 6,61,62
 584 -96 584 -96 530.5 -153 c 0,63,64
 476 -210 476 -210 423 -209 c 0,65,66
 371 -208 371 -208 318 -186 c 128,-1,67
 265 -164 265 -164 237 -125 c 1,68,-1
 297 -74 l 1,69,70
 318 -137 318 -137 423 -137 c 0,71,72
 447 -137 447 -137 479 -94 c 0,73,74
 512 -50 512 -50 512 -11 c 2,75,-1
 512 184 l 1,76,-1
 583 184 l 1,60,-1
EndSplineSet
EndChar

StartChar: uni023A
Encoding: 570 570 1133
Width: 512
Flags: W
LayerCount: 2
Fore
SplineSet
159 302 m 1,0,-1
 159 230 l 1,1,-1
 343 230 l 1,2,-1
 343 302 l 1,3,-1
 159 302 l 1,0,-1
481 13 m 1,4,-1
 302 614 l 1,5,-1
 219 614 l 1,6,-1
 407 -21 l 1,7,-1
 481 13 l 1,4,-1
29 9 m 1,8,-1
 98 -22 l 1,9,-1
 302 615 l 1,10,-1
 219 614 l 1,11,-1
 29 9 l 1,8,-1
399.309570312 587.8203125 m 5,12,-1
 2.119140625 59.4912109375 l 5,13,-1
 58.47265625 17.966796875 l 5,14,-1
 455.663085938 546.296875 l 5,15,-1
 399.309570312 587.8203125 l 5,12,-1
EndSplineSet
EndChar

StartChar: uni023B
Encoding: 571 571 1134
Width: 512
Flags: W
LayerCount: 2
Fore
SplineSet
436 490 m 5,0,1
 424 495 424 495 398 507.5 c 132,-1,2
 372 520 372 520 361 524 c 132,-1,3
 350 528 350 528 331 535 c 132,-1,4
 312 542 312 542 294.5 544 c 132,-1,5
 277 546 277 546 256 546 c 4,6,7
 186 546 186 546 143 472.5 c 132,-1,8
 100 399 100 399 100 309 c 4,9,10
 100 186 100 186 142 125.5 c 132,-1,11
 184 65 184 65 256 65 c 4,12,13
 330 65 330 65 429 138 c 5,14,15
 429 138 429 138 482 90 c 5,16,17
 481 89 481 89 470.5 80 c 132,-1,18
 460 71 460 71 456 68 c 132,-1,19
 452 65 452 65 440 56 c 132,-1,20
 428 47 428 47 421 42.5 c 132,-1,21
 414 38 414 38 400.5 30 c 132,-1,22
 387 22 387 22 376.5 17.5 c 132,-1,23
 366 13 366 13 350.5 7.5 c 132,-1,24
 335 2 335 2 321.5 -1 c 132,-1,25
 308 -4 308 -4 290.5 -6 c 132,-1,26
 273 -8 273 -8 256 -8 c 4,27,28
 28 -8 28 -8 28 308 c 4,29,30
 28 454 28 454 86 535.5 c 132,-1,31
 144 617 144 617 256 617 c 4,32,33
 372 617 372 617 481 546 c 5,34,35
 436 490 436 490 436 490 c 5,0,1
432.309570312 587.8203125 m 1,36,-1
 488.663085938 546.296875 l 1,37,-1
 91.47265625 17.966796875 l 1,38,-1
 35.119140625 59.4912109375 l 1,39,-1
 432.309570312 587.8203125 l 1,36,-1
EndSplineSet
EndChar

StartChar: uni023E
Encoding: 574 574 1135
Width: 512
Flags: W
LayerCount: 2
Fore
SplineSet
224 594 m 5,0,-1
 296 594 l 5,1,-1
 296 0 l 5,2,-1
 224 0 l 5,3,-1
 224 594 l 5,0,-1
31 614 m 5,4,-1
 481 614 l 5,5,-1
 481 541 l 5,6,-1
 31 541 l 5,7,-1
 31 614 l 5,4,-1
432.309570312 587.8203125 m 1,8,-1
 488.663085938 546.296875 l 1,9,-1
 91.47265625 17.966796875 l 1,10,-1
 35.119140625 59.4912109375 l 1,11,-1
 432.309570312 587.8203125 l 1,8,-1
EndSplineSet
EndChar

StartChar: uni0246
Encoding: 582 582 1136
Width: 512
Flags: W
LayerCount: 2
Fore
SplineSet
102 521 m 5,0,-1
 102 341 l 5,1,-1
 481 341 l 5,2,-1
 481 270 l 5,3,-1
 102 270 l 5,4,-1
 102 71 l 5,5,-1
 481 71 l 5,6,-1
 481 0 l 5,7,-1
 102 0 l 5,8,-1
 46 0 l 5,9,-1
 30 0 l 5,10,-1
 30 592 l 5,11,-1
 46 592 l 5,12,-1
 102 592 l 5,13,-1
 481 592 l 5,14,-1
 481 521 l 5,15,-1
 102 521 l 5,0,-1
432.309570312 587.8203125 m 1,16,-1
 488.663085938 546.296875 l 1,17,-1
 91.47265625 17.966796875 l 1,18,-1
 35.119140625 59.4912109375 l 1,19,-1
 432.309570312 587.8203125 l 1,16,-1
EndSplineSet
EndChar

StartChar: uni01A9
Encoding: 425 425 1138
Width: 500
Flags: W
LayerCount: 2
Fore
SplineSet
470 600 m 25,0,-1
 470 530 l 25,1,-1
 102 529 l 25,2,-1
 283 361 l 29,3,-1
 284 269 l 25,4,-1
 100 71 l 25,5,-1
 470 70 l 25,6,-1
 470 0 l 25,7,-1
 30 0 l 25,8,-1
 30 96 l 25,9,-1
 215 311 l 25,10,-1
 30 501 l 25,11,-1
 30 600 l 25,12,-1
 470 600 l 25,0,-1
EndSplineSet
EndChar

StartChar: Sigma
Encoding: 931 931 1139
Width: 500
Flags: W
LayerCount: 2
Fore
SplineSet
470 600 m 25,0,-1
 470 530 l 25,1,-1
 102 529 l 25,2,-1
 283 361 l 29,3,-1
 284 269 l 25,4,-1
 100 71 l 25,5,-1
 470 70 l 25,6,-1
 470 0 l 25,7,-1
 30 0 l 25,8,-1
 30 96 l 25,9,-1
 215 311 l 25,10,-1
 30 501 l 25,11,-1
 30 600 l 25,12,-1
 470 600 l 25,0,-1
EndSplineSet
EndChar

StartChar: alpha
Encoding: 945 945 1140
Width: 409
Flags: W
LayerCount: 2
Fore
SplineSet
234 150 m 1,0,1
 202 177 202 177 162 175 c 0,2,3
 136.798839187 173.49872484 136.798839187 173.49872484 119.036586429 159.414084872 c 128,-1,4
 99.1647975256 143.656680897 99.1647975256 143.656680897 97 120 c 0,5,6
 95.0299726697 98.4717474216 95.0299726697 98.4717474216 108.899325078 81.7160319672 c 128,-1,7
 122.28815117 65.540845581 122.28815117 65.540845581 144 62 c 0,8,9
 171.23183516 57.5589354023 171.23183516 57.5589354023 195.742250383 74.8741834285 c 128,-1,10
 218.015753209 90.6091769948 218.015753209 90.6091769948 228 118 c 0,11,12
 234 133 234 133 234 150 c 1,0,1
  Spiro
    234 150 v
    162 175 o
    97 120 o
    144 62 o
    228 118 o
    0 0 z
  EndSpiro
163 403 m 0,13,14
 197.499001612 402.871442253 197.499001612 402.871442253 226.165932757 391.499603277 c 128,-1,15
 257.607840191 379.026963404 257.607840191 379.026963404 278.427386744 354.659858626 c 128,-1,16
 299.099156447 330.465711217 299.099156447 330.465711217 306.593401462 297.260511843 c 128,-1,17
 311.683714088 274.706559406 311.683714088 274.706559406 311 233 c 2,18,-1
 310 172 l 1,19,20
 343 129 343 129 362 78 c 0,21,22
 375 43 375 43 380 6 c 1,23,-1
 310 0 l 1,24,25
 305 29 305 29 295 56 c 0,26,27
 289 73 289 73 280 90 c 1,28,29
 277 84 277 84 273 78 c 0,30,31
 250.260721385 41.442682136 250.260721385 41.442682136 219.756559538 19.2559463048 c 128,-1,32
 184.663950825 -6.26812621551 184.663950825 -6.26812621551 146 -8 c 0,33,34
 92.6047515674 -10.391732583 92.6047515674 -10.391732583 57.1298096509 29.0158517718 c 128,-1,35
 22.7263100877 67.2332169849 22.7263100877 67.2332169849 27 121 c 0,36,37
 31.1749299884 173.524296193 31.1749299884 173.524296193 70.1722045077 209.581853407 c 128,-1,38
 109.409529544 245.861365499 109.409529544 245.861365499 162 245 c 0,39,40
 206 244 206 244 240 217 c 1,41,-1
 241 237 l 2,42,43
 242 256 242 256 239 268 c 0,44,45
 232.636658578 294.146669913 232.636658578 294.146669913 210.944595331 311.835277315 c 128,-1,46
 191.130747144 327.992310313 191.130747144 327.992310313 163 333 c 0,47,48
 103 344 103 344 49 306 c 1,49,-1
 16 355 l 1,50,51
 86 403 86 403 163 403 c 0,13,14
  Spiro
    163 403 o
    311 233 [
    310 172 v
    362 78 o
    380 6 v
    310 0 v
    295 56 o
    280 90 v
    273 78 o
    146 -8 o
    27 121 o
    162 245 o
    240 217 v
    241 237 ]
    239 268 o
    163 333 o
    49 306 v
    16 355 v
    0 0 z
  EndSpiro
EndSplineSet
EndChar

StartChar: tonos
Encoding: 900 900 1141
Width: 409
Flags: W
LayerCount: 2
Fore
SplineSet
63.232421875 471.681640625 m 5,0,-1
 378.595703125 581.69140625 l 5,1,-1
 352 647 l 5,2,-1
 36.63671875 536.989257812 l 5,3,-1
 63.232421875 471.681640625 l 5,0,-1
EndSplineSet
EndChar

StartChar: ordfeminine
Encoding: 170 170 1143
Width: 409
Flags: W
LayerCount: 2
Fore
SplineSet
120.919921875 593.870117188 m 132,-1,1
 120.919921875 542.030273438 120.919921875 542.030273438 143.1953125 510.440429688 c 132,-1,2
 165.469726562 478.849609375 165.469726562 478.849609375 205.969726562 478.849609375 c 132,-1,3
 246.469726562 478.849609375 246.469726562 478.849609375 267.125 510.03515625 c 132,-1,4
 287.780273438 541.219726562 287.780273438 541.219726562 287.780273438 593.870117188 c 132,-1,5
 287.780273438 646.51953125 287.780273438 646.51953125 267.125 677.299804688 c 132,-1,6
 246.469726562 708.080078125 246.469726562 708.080078125 205.969726562 708.080078125 c 132,-1,7
 165.469726562 708.080078125 165.469726562 708.080078125 143.1953125 676.89453125 c 132,-1,0
 120.919921875 645.709960938 120.919921875 645.709960938 120.919921875 593.870117188 c 132,-1,1
62.599609375 593.059570312 m 132,-1,9
 62.599609375 665.150390625 62.599609375 665.150390625 103.504882812 715.775390625 c 132,-1,10
 144.41015625 766.400390625 144.41015625 766.400390625 205.969726562 766.400390625 c 4,11,12
 253.087890625 766.400390625 253.087890625 766.400390625 287.780273438 736.190429688 c 5,13,-1
 287.780273438 761.540039062 l 5,14,-1
 346.099609375 761.540039062 l 5,15,-1
 346.099609375 613.325195312 l 6,16,17
 346.91015625 603.421875 346.91015625 603.421875 346.91015625 593.059570312 c 132,-1,18
 346.91015625 582.698242188 346.91015625 582.698242188 346.099609375 572.794921875 c 6,19,-1
 346.099609375 426.200195312 l 5,20,-1
 287.780273438 426.200195312 l 5,21,-1
 287.780273438 449.9296875 l 5,22,23
 253.087890625 419.719726562 253.087890625 419.719726562 205.969726562 419.719726562 c 4,24,25
 144.41015625 419.719726562 144.41015625 419.719726562 103.504882812 470.344726562 c 132,-1,8
 62.599609375 520.969726562 62.599609375 520.969726562 62.599609375 593.059570312 c 132,-1,9
EndSplineSet
EndChar

StartChar: uni0288
Encoding: 648 648 1144
Width: 409
Flags: W
LayerCount: 2
Fore
SplineSet
100 614 m 1,0,-1
 172 614 l 1,1,-1
 172 442 l 1,2,-1
 377 442 l 1,3,-1
 377 371 l 1,4,-1
 172 371 l 1,5,-1
 172 -14 l 6,6,7
 172 -54 172 -54 194 -98 c 4,8,9
 215 -140 215 -140 238 -140 c 4,10,11
 270 -140 270 -140 288 -125.5 c 132,-1,12
 306 -111 306 -111 331 -74 c 5,13,-1
 380 -128 l 5,14,15
 349 -160 349 -160 335 -173 c 132,-1,16
 321 -186 321 -186 294.5 -199 c 132,-1,17
 268 -212 268 -212 238 -212 c 4,18,19
 183 -213 183 -213 142.5 -156.5 c 4,20,21
 97.8284602155 -94.762928163 97.8284602155 -94.762928163 98 -16 c 6,22,-1
 98.8428571429 371 l 1,23,-1
 27 371 l 1,24,-1
 27 442 l 1,25,-1
 99.180952381 442 l 1,26,-1
 100 614 l 1,0,-1
EndSplineSet
EndChar

StartChar: uni027C
Encoding: 636 636 1145
Width: 409
Flags: W
LayerCount: 2
Fore
SplineSet
31 414 m 1,0,-1
 102 414 l 1,1,-1
 102 388.564095987 l 1,2,3
 155 424 155 424 205 424 c 0,4,5
 248 424 248 424 296 399 c 128,-1,6
 344 374 344 374 377 336 c 1,7,-1
 323 298 l 1,8,9
 269 352 269 352 207 352 c 0,10,11
 173 352 173 352 151 339 c 128,-1,12
 129 326 129 326 102 297 c 1,13,-1
 102 -205 l 5,14,-1
 31 -205 l 5,15,-1
 31 414 l 1,0,-1
EndSplineSet
EndChar

StartChar: uni024F
Encoding: 591 591 1147
Width: 409
Flags: W
LayerCount: 2
Fore
SplineSet
0 237 m 5,0,-1
 409 237 l 5,1,-1
 409 167 l 5,2,-1
 0 167 l 5,3,-1
 0 237 l 5,0,-1
31 410 m 1,4,-1
 101 410 l 1,5,-1
 101 119 l 2,6,7
 101 90 101 90 133.5 72 c 0,8,9
 161 57 161 57 200 57 c 0,10,11
 238 57 238 57 260.5 74.5 c 128,-1,12
 283 92 283 92 307 127 c 1,13,-1
 307 410 l 1,14,-1
 379 410 l 1,15,-1
 379 -51 l 2,16,17
 379 -124 379 -124 332.5 -165.5 c 128,-1,18
 286 -207 286 -207 215 -207 c 0,19,20
 195 -207 195 -207 175.5 -202.5 c 128,-1,21
 156 -198 156 -198 143 -193.5 c 128,-1,22
 130 -189 130 -189 110 -176.5 c 128,-1,23
 90 -164 90 -164 83 -159 c 128,-1,24
 76 -154 76 -154 52.5 -136 c 128,-1,25
 29 -118 29 -118 25 -115 c 1,26,-1
 68 -58 l 1,27,28
 94 -86 94 -86 109 -99 c 128,-1,29
 124 -112 124 -112 149 -122.5 c 128,-1,30
 174 -133 174 -133 203 -133 c 0,31,32
 255 -133 255 -133 279.5 -120.5 c 0,33,34
 307 -106 307 -106 307 -66 c 2,35,-1
 307 44 l 1,36,37
 268 11 268 11 252 3.5 c 128,-1,38
 236 -4 236 -4 197 -4 c 0,39,40
 140 -4 140 -4 86 32 c 0,41,42
 31 69 31 69 31 118 c 2,43,-1
 31 410 l 1,4,-1
EndSplineSet
EndChar

StartChar: uni0180
Encoding: 384 384 1148
Width: 409
Flags: W
LayerCount: 2
Fore
SplineSet
0 647 m 5,0,-1
 0 577 l 5,1,-1
 209 577 l 5,2,-1
 209 647 l 5,3,-1
 0 647 l 5,0,-1
102 819 m 1,4,-1
 31 819 l 1,5,-1
 31 240.88 l 2,6,7
 29 224 29 224 29 206 c 128,-1,8
 29 188 29 188 31 171.12 c 2,9,-1
 31 0 l 1,10,-1
 102 0 l 1,11,-1
 102 29.9455233615 l 1,12,13
 145.543680586 -8 145.543680586 -8 205 -8 c 0,14,15
 281 -8 281 -8 331.5 54.5 c 128,-1,16
 382 117 382 117 382 206 c 128,-1,17
 382 295 382 295 331.5 357.5 c 128,-1,18
 281 420 281 420 205 420 c 0,19,20
 145.543680586 420 145.543680586 420 102 382.054476639 c 1,21,-1
 102 819 l 1,4,-1
309 207 m 128,-1,23
 309 143 309 143 282 104 c 128,-1,24
 255 65 255 65 205 65 c 128,-1,25
 155 65 155 65 127.5 104 c 0,26,27
 107.416198487 132.482482146 107.416198487 132.482482146 102 174.29914886 c 1,28,-1
 102 239.664487504 l 1,29,30
 107.416198487 281.382677882 107.416198487 281.382677882 127.5 309.5 c 0,31,32
 155 348 155 348 205 348 c 128,-1,33
 255 348 255 348 282 309.5 c 128,-1,22
 309 271 309 271 309 207 c 128,-1,23
EndSplineSet
EndChar

StartChar: uni024E
Encoding: 590 590 1149
Width: 512
Flags: W
LayerCount: 2
Fore
SplineSet
64 511 m 5,0,-1
 443 511 l 5,1,-1
 443 441 l 5,2,-1
 64 441 l 5,3,-1
 64 511 l 5,0,-1
224 330 m 1,4,-1
 296 330 l 1,5,-1
 296 0 l 1,6,-1
 224 0 l 1,7,-1
 224 330 l 1,4,-1
490 583 m 1,8,-1
 297 330 l 1,9,-1
 224 330 l 1,10,-1
 436 614 l 1,11,-1
 490 583 l 1,8,-1
20 573 m 1,12,-1
 78 614 l 1,13,-1
 296 329 l 1,14,-1
 224 330 l 1,15,-1
 20 573 l 1,12,-1
EndSplineSet
EndChar

StartChar: uni0254
Encoding: 596 596 1150
Width: 409
Flags: W
LayerCount: 2
Fore
SplineSet
85 303 m 5,0,1
 114 320 114 320 128.5 327.5 c 132,-1,2
 143 335 143 335 164 341.5 c 132,-1,3
 185 348 185 348 205 348 c 4,4,5
 255 348 255 348 282.5 309.5 c 132,-1,6
 310 271 310 271 310 207 c 132,-1,7
 310 143 310 143 282.5 104 c 132,-1,8
 255 65 255 65 205 65 c 4,9,10
 173 65 173 65 137 79 c 132,-1,11
 101 93 101 93 80 109 c 5,12,-1
 32 55 l 5,13,14
 108 -8 108 -8 205 -8 c 4,15,16
 281 -8 281 -8 331.5 54.5 c 132,-1,17
 382 117 382 117 382 206 c 132,-1,18
 382 295 382 295 331.5 357.5 c 132,-1,19
 281 420 281 420 205 420 c 4,20,21
 167 420 167 420 116 399 c 132,-1,22
 65 378 65 378 30 348 c 5,23,-1
 85 303 l 5,0,1
EndSplineSet
EndChar

StartChar: uni0248
Encoding: 584 584 1151
Width: 512
Flags: W
LayerCount: 2
Fore
SplineSet
310 400 m 5,0,-1
 310 330 l 5,1,-1
 511 330 l 5,2,-1
 511 400 l 5,3,-1
 310 400 l 5,0,-1
483 186 m 2,4,-1
 481 614 l 1,5,-1
 410 614 l 1,6,-1
 410 188 l 2,7,8
 410 143 410 143 367.5 107 c 128,-1,9
 325 71 325 71 255 71 c 0,10,11
 180 71 180 71 90 124 c 1,12,-1
 41 62 l 1,13,14
 165 0 165 0 256 0 c 0,15,16
 365 0 365 0 424.5 48.5 c 128,-1,17
 484 97 484 97 483 186 c 2,4,-1
EndSplineSet
EndChar

StartChar: uni0249
Encoding: 585 585 1152
Width: 133
Flags: W
LayerCount: 2
Fore
SplineSet
-41 240 m 5,0,-1
 -41 170 l 5,1,-1
 160 170 l 5,2,-1
 160 240 l 5,3,-1
 -41 240 l 5,0,-1
31 617 m 1,4,-1
 102 617 l 1,5,-1
 102 546 l 1,6,-1
 31 546 l 1,7,-1
 31 617 l 1,4,-1
102 410 m 1,8,-1
 31 410 l 1,9,-1
 31 -11 l 2,10,11
 30 -51 30 -51 -2 -94 c 128,-1,12
 -34 -137 -34 -137 -58 -137 c 0,13,14
 -163 -137 -163 -137 -184 -74 c 1,15,-1
 -244 -125 l 1,16,17
 -216 -164 -216 -164 -163 -186 c 128,-1,18
 -110 -208 -110 -208 -58 -209 c 0,19,20
 -5 -210 -5 -210 49.5 -153 c 128,-1,21
 104 -96 104 -96 104 -13 c 2,22,-1
 102 410 l 1,8,-1
EndSplineSet
EndChar

StartChar: uni0268
Encoding: 616 616 1153
Width: 133
Flags: W
LayerCount: 2
Fore
SplineSet
-41 280 m 5,0,-1
 160 280 l 5,1,-1
 160 210 l 5,2,-1
 -41 210 l 5,3,-1
 -41 280 l 5,0,-1
31 612 m 1,4,-1
 102 612 l 1,5,-1
 102 541 l 1,6,-1
 31 541 l 1,7,-1
 31 612 l 1,4,-1
31 414 m 1,8,-1
 102 414 l 1,9,-1
 102 0 l 1,10,-1
 31 0 l 1,11,-1
 31 414 l 1,8,-1
EndSplineSet
EndChar

StartChar: uni024C
Encoding: 588 588 1154
Width: 512
Flags: W
LayerCount: 2
Fore
SplineSet
-25 354 m 5,0,-1
 -25 284 l 5,1,-1
 146 284 l 5,2,-1
 146 354 l 5,3,-1
 -25 354 l 5,0,-1
109 320 m 1,4,-1
 67 262 l 1,5,-1
 447 -15 l 1,6,-1
 489 43 l 1,7,-1
 109 320 l 1,4,-1
31 614 m 1,8,-1
 31 0 l 1,9,-1
 94 0 l 1,10,-1
 94 614 l 1,11,-1
 31 614 l 1,8,-1
56 543 m 1,12,-1
 263 542 l 2,13,14
 347 541 347 541 378.5 518 c 128,-1,15
 410 495 410 495 410 442 c 0,16,17
 410 405 410 405 376.5 380 c 128,-1,18
 343 355 343 355 284 355 c 2,19,-1
 71 354 l 1,20,-1
 73 283 l 1,21,-1
 286 282 l 2,22,23
 361 282 361 282 421 327.5 c 128,-1,24
 481 373 481 373 481 441 c 0,25,26
 481 527 481 527 421.5 570.5 c 128,-1,27
 362 614 362 614 267 614 c 2,28,-1
 56 614 l 1,29,-1
 56 543 l 1,12,-1
EndSplineSet
EndChar

StartChar: longs
Encoding: 383 383 1155
Width: 409
Flags: W
LayerCount: 2
Fore
SplineSet
100 0 m 1,0,-1
 172 0 l 5,1,-1
 172 392 l 5,2,-1
 172 464 l 1,3,-1
 172 621 l 2,4,5
 172 661 172 661 194 704.5 c 0,6,7
 215 746 215 746 238 746 c 0,8,9
 270 746 270 746 297.5 717.5 c 128,-1,10
 325 689 325 689 339 647 c 1,11,-1
 410 687 l 1,12,13
 316 817 316 817 238 818 c 0,14,15
 187 819 187 819 142.5 763 c 0,16,17
 97.7314221049 706.662014334 97.7314221049 706.662014334 98 623 c 2,18,-1
 98.5104333868 464 l 1,19,-1
 30 464 l 1,20,-1
 30 392 l 1,21,-1
 98.7415730337 392 l 1,22,-1
 100 0 l 1,0,-1
EndSplineSet
EndChar

StartChar: Gamma
Encoding: 915 915 1156
Width: 500
Flags: W
LayerCount: 2
Fore
SplineSet
30 600 m 1,0,-1
 470 600 l 5,1,-1
 470 528 l 5,2,-1
 30 528 l 1,3,-1
 30 600 l 1,0,-1
30 600 m 1,4,-1
 116 600 l 1,5,-1
 116 1 l 1,6,-1
 30 1 l 1,7,-1
 30 600 l 1,4,-1
EndSplineSet
EndChar

StartChar: uni0394
Encoding: 916 916 1158
Width: 500
Flags: W
LayerCount: 2
Fore
SplineSet
249 479 m 29,0,-1
 103 70 l 1,1,-1
 383 70 l 1,2,-1
 249 479 l 29,0,-1
212 600 m 29,3,-1
 276 603 l 29,4,-1
 470 70 l 25,5,-1
 470 1 l 25,6,-1
 30 1 l 25,7,-1
 30 70 l 25,8,-1
 212 600 l 29,3,-1
EndSplineSet
EndChar

StartChar: Theta
Encoding: 920 920 1159
Width: 512
Flags: W
LayerCount: 2
Fore
SplineSet
144 341 m 1
 368 341 l 1
 368 271 l 5
 144 271 l 5
 144 341 l 1
EndSplineSet
Refer: 50 79 N 1 0 0 1 0 0 3
EndChar

StartChar: Xi
Encoding: 926 926 1160
Width: 500
Flags: W
LayerCount: 2
Fore
SplineSet
30 71 m 1,0,-1
 470 71 l 1,1,-1
 470 1 l 1,2,-1
 30 1 l 1,3,-1
 30 71 l 1,0,-1
94 340 m 1,4,-1
 400 340 l 1,5,-1
 400 270 l 1,6,-1
 94 270 l 1,7,-1
 94 340 l 1,4,-1
30 600 m 5,8,-1
 470 600 l 5,9,-1
 470 530 l 5,10,-1
 30 530 l 5,11,-1
 30 600 l 5,8,-1
EndSplineSet
EndChar

StartChar: Pi
Encoding: 928 928 1161
Width: 500
Flags: W
LayerCount: 2
Fore
SplineSet
400 542 m 5,0,-1
 470 542 l 5,1,-1
 470 0 l 5,2,-1
 400 0 l 5,3,-1
 400 542 l 5,0,-1
30 542 m 1,4,-1
 100 542 l 1,5,-1
 100 0 l 1,6,-1
 30 0 l 1,7,-1
 30 542 l 1,4,-1
30 600 m 1,8,-1
 470 600 l 1,9,-1
 470 530 l 1,10,-1
 30 530 l 1,11,-1
 30 600 l 1,8,-1
EndSplineSet
EndChar

StartChar: Phi
Encoding: 934 934 1162
Width: 500
Flags: W
LayerCount: 2
Fore
SplineSet
67 323 m 128,-1,1
 67 288 67 288 125 263 c 4,2,3
 177 241 177 241 242 240.5 c 4,4,5
 310 241 310 241 367 263 c 4,6,7
 433 288 433 288 433 323 c 128,-1,8
 433 358 433 358 367 379 c 0,9,10
 310 397 310 397 242 397.5 c 0,11,12
 174 397 174 397 125 379 c 0,13,0
 67 358 67 358 67 323 c 128,-1,1
0 319 m 128,-1,15
 0 382 0 382 73 425 c 128,-1,16
 146 468 146 468 250 468 c 128,-1,17
 354 468 354 468 427 425 c 128,-1,18
 500 382 500 382 500 319 c 128,-1,19
 500 256 500 256 427 213 c 132,-1,20
 354 170 354 170 250 170 c 132,-1,21
 146 170 146 170 73 213 c 132,-1,14
 0 256 0 256 0 319 c 128,-1,15
206 600 m 1,22,-1
 286 600 l 1,23,-1
 286 0 l 1,24,-1
 206 0 l 1,25,-1
 206 600 l 1,22,-1
EndSplineSet
EndChar

StartChar: uni03F9
Encoding: 1017 1017 1164
Width: 500
Flags: W
LayerCount: 2
Fore
SplineSet
436 490 m 1,0,1
 424 495 424 495 398 507.5 c 128,-1,2
 372 520 372 520 361 524 c 128,-1,3
 350 528 350 528 331 535 c 128,-1,4
 312 542 312 542 294.5 544 c 128,-1,5
 277 546 277 546 256 546 c 0,6,7
 186 546 186 546 143 472.5 c 128,-1,8
 100 399 100 399 100 309 c 0,9,10
 100 186 100 186 142 125.5 c 128,-1,11
 184 65 184 65 256 65 c 0,12,13
 330 65 330 65 429 138 c 1,14,15
 429 138 429 138 482 90 c 1,16,17
 481 89 481 89 470.5 80 c 128,-1,18
 460 71 460 71 456 68 c 128,-1,19
 452 65 452 65 440 56 c 128,-1,20
 428 47 428 47 421 42.5 c 128,-1,21
 414 38 414 38 400.5 30 c 128,-1,22
 387 22 387 22 376.5 17.5 c 128,-1,23
 366 13 366 13 350.5 7.5 c 128,-1,24
 335 2 335 2 321.5 -1 c 128,-1,25
 308 -4 308 -4 290.5 -6 c 128,-1,26
 273 -8 273 -8 256 -8 c 0,27,28
 28 -8 28 -8 28 308 c 0,29,30
 28 454 28 454 86 535.5 c 128,-1,31
 144 617 144 617 256 617 c 0,32,33
 372 617 372 617 481 546 c 1,34,35
 436 490 436 490 436 490 c 1,0,1
EndSplineSet
EndChar

StartChar: Psi
Encoding: 936 936 1167
Width: 500
Flags: W
LayerCount: 2
Fore
SplineSet
30 600 m 1,0,-1
 100 600 l 1,1,-1
 103 444 l 2,2,3
 103.781536799 403.360086438 103.781536799 403.360086438 109.847818264 381.31423056 c 0,4,5
 118.593230611 349.531976253 118.593230611 349.531976253 140.027965596 326.441975538 c 0,6,7
 161.148442807 303.690500691 161.148442807 303.690500691 192.178758939 291.633906292 c 0,8,9
 221.064483573 280.410576683 221.064483573 280.410576683 254 280 c 0,10,11
 255.185992972 279.98521532 255.185992972 279.98521532 256.372427425 279.985196086 c 0,12,13
 287.338939891 279.985196086 287.338939891 279.985196086 314.248682267 289.755320854 c 0,14,15
 344.681834249 300.80469055 344.681834249 300.80469055 365.300366636 322.773234545 c 0,16,17
 386.230343513 345.073615057 386.230343513 345.073615057 394.371051688 376.083488704 c 0,18,19
 399.999999999 397.525477794 399.999999999 397.525477794 400 437 c 2,20,-1
 400 600 l 1,21,-1
 468 600 l 1,22,-1
 470 431 l 2,23,24
 470.085697627 423.758550506 470.085697627 423.758550506 470.085697627 418.19504509 c 0,25,26
 470.085697627 371.728762216 470.085697627 371.728762216 462.084515909 342.70844932 c 0,27,28
 449.789381009 298.113953855 449.789381009 298.113953855 417.793304369 266.752326924 c 0,29,30
 387.059237663 236.62768556 387.059237663 236.62768556 341.74713534 222.150644054 c 0,31,32
 303.593762811 209.960789039 303.593762811 209.960789039 259.024060406 209.960789039 c 0,33,34
 256.511437865 209.960789039 256.511437865 209.960789039 254 210 c 0,35,36
 205.785111009 210.750421226 205.785111009 210.750421226 164.186854123 225.229220303 c 0,37,38
 118.061540476 241.283718705 118.061540476 241.283718705 86.6965262336 272.393316256 c 0,39,40
 53.9923758559 304.831144867 53.9923758559 304.831144867 40.7950044884 350.36574828 c 0,41,42
 31.5334482352 382.320694399 31.5334482352 382.320694399 31 441 c 2,43,-1
 30 551 l 1,44,-1
 30 600 l 1,0,-1
  Spiro
    30 600 v
    100 600 v
    103 444 ]
    254 280 o
    400 437 [
    400 600 v
    468 600 v
    470 431 ]
    254 210 o
    31 441 [
    30 551 v
    0 0 z
  EndSpiro
221 600 m 5,45,-1
 291 600 l 5,46,-1
 291 0 l 5,47,-1
 221 0 l 5,48,-1
 221 600 l 5,45,-1
EndSplineSet
EndChar

StartChar: uni03BC
Encoding: 956 956 1178
Width: 409
Flags: W
LayerCount: 2
Fore
SplineSet
31 414 m 25,0,-1
 102 414 l 25,1,-1
 101 -90 l 26,2,3
 101 -146 101 -146 62 -176 c 0,4,5
 16 -213 16 -213 -25 -213 c 25,6,-1
 -42 -145 l 1,7,8
 -7.14270787725 -142.248108517 -7.14270787725 -142.248108517 10 -129 c 4,9,10
 32 -112 32 -112 32 -90 c 2,11,-1
 31 414 l 25,0,-1
379 0 m 1,12,-1
 307 0 l 1,13,-1
 307 24.6121491324 l 1,14,15
 254.577582912 -10 254.577582912 -10 205 -10 c 0,16,17
 151 -10 151 -10 100.5 13.5 c 128,-1,18
 50 37 50 37 36 87 c 0,19,20
 31 106 31 106 31 414 c 1,21,-1
 102 414 l 1,22,-1
 102 113 l 2,23,24
 103 61 103 61 203 61 c 0,25,26
 237 61 237 61 258 74 c 128,-1,27
 279 87 279 87 307 117 c 1,28,-1
 307 414 l 1,29,-1
 379 414 l 1,30,-1
 379 0 l 1,12,-1
  Spiro
    379 0 v
    307 0 v
    307 24.6121 v
    255.289 -1.34696 o
    205 -10 o
    151.875 -4.125 o
    100.5 13.5 o
    59.125 43.625 o
    36 87 o
    32.25 178.25 o
    31 414 v
    102 414 v
    102 113 ]
    127.75 74 o
    203 61 o
    233.75 64.25 o
    258 74 o
    280.75 91.25 o
    307 117 v
    307 414 v
    379 414 v
    0 0 z
  EndSpiro
EndSplineSet
EndChar

StartChar: uni03F8
Encoding: 1016 1016 1180
Width: 409
Flags: W
LayerCount: 2
Fore
SplineSet
102 819 m 1,0,-1
 31 819 l 1,1,-1
 31 240.88 l 2,2,3
 29 224 29 224 29 206 c 128,-1,4
 29 188 29 188 31 171.12 c 2,5,-1
 31 -204 l 5,6,-1
 102 -204 l 5,7,-1
 102 29.9455233615 l 1,8,9
 146 -8 146 -8 205 -8 c 0,10,11
 281 -8 281 -8 331.5 54.5 c 128,-1,12
 382 117 382 117 382 206 c 128,-1,13
 382 295 382 295 331.5 357.5 c 128,-1,14
 281 420 281 420 205 420 c 0,15,16
 146 420 146 420 102 382.054476639 c 1,17,-1
 102 819 l 1,0,-1
309 207 m 128,-1,19
 309 143 309 143 282 104 c 128,-1,20
 255 65 255 65 205 65 c 128,-1,21
 155 65 155 65 127.5 104 c 0,22,23
 107.416198487 132.482482146 107.416198487 132.482482146 102 174.29914886 c 1,24,-1
 102 239.664487504 l 1,25,26
 107.416198487 281.382677882 107.416198487 281.382677882 127.5 309.5 c 0,27,28
 155 348 155 348 205 348 c 128,-1,29
 255 348 255 348 282 309.5 c 128,-1,18
 309 271 309 271 309 207 c 128,-1,19
EndSplineSet
EndChar

